SplineFontDB: 3.0
FontName: Oltartkhica-Regular
FullName: Oltartkhica Regular
FamilyName: Oltartkhica Regular
Weight: Regular
Copyright: Copyright \\(c\\) 2014-2011, John Quijada, compiled by Demian Terentev
Version: 042.002
ItalicAngle: 0
UnderlinePosition: -100
UnderlineWidth: 50
Ascent: 800
Descent: 200
InvalidEm: 0
sfntRevision: 0x002a0083
LayerCount: 2
Layer: 0 0 "Back" 1
Layer: 1 0 "Fore" 0
XUID: [1021 589 -1086611993 14293953]
StyleMap: 0x0040
FSType: 8
OS2Version: 3
OS2_WeightWidthSlopeOnly: 0
OS2_UseTypoMetrics: 0
CreationTime: 1470845832
ModificationTime: 1471315038
PfmFamily: 17
TTFWeight: 400
TTFWidth: 5
LineGap: 0
VLineGap: 0
Panose: 2 0 5 3 0 0 0 0 0 0
OS2TypoAscent: 800
OS2TypoAOffset: 0
OS2TypoDescent: -200
OS2TypoDOffset: 0
OS2TypoLinegap: 90
OS2WinAscent: 1053
OS2WinAOffset: 0
OS2WinDescent: 375
OS2WinDOffset: 0
HheadAscent: 1053
HheadAOffset: 0
HheadDescent: -375
HheadDOffset: 0
OS2SubXSize: 650
OS2SubYSize: 600
OS2SubXOff: 0
OS2SubYOff: 75
OS2SupXSize: 650
OS2SupYSize: 600
OS2SupXOff: 0
OS2SupYOff: 350
OS2StrikeYSize: 50
OS2StrikeYPos: 220
OS2Vendor: 'PfEd'
OS2CodePages: 00000001.00000000
OS2UnicodeRanges: 00000000.00000000.00000000.00000000
Lookup: 4 0 0 "Modifiers" { "Consonantal Horizontal Line"  "Consonantal Horizontal and Vertical Line"  "Consonantal Vertical Line"  } ['liga' ('DFLT' <'dflt' > ) ]
MarkAttachClasses: 1
DEI: 91125
LangName: 1033 "Copyright (c) 2014-2011, John Quijada, compiled by Demian Terentev" "" "" "42.002;PfEd;Oltartkhica-Regular" "Oltartkhica-Regular" "Version 42.002;PS 042.002;hotconv 1.0.88;makeotf.lib2.5.64775" "" "" "" "" "" "" "" "" "" "" "Oltartkhica"
Encoding: Custom
UnicodeInterp: none
NameList: AGL For New Fonts
DisplaySize: -48
AntiAlias: 1
FitToEm: 0
WinInfo: 4845 15 5
BeginPrivate: 6
BlueScale 5 0.037
BlueFuzz 1 0
StdHW 3 [3]
StdVW 4 [87]
StemSnapH 18 [3 92 105 111 119]
StemSnapV 27 [87 96 102 107 111 119 129]
EndPrivate
BeginChars: 4909 4909

StartChar: uniE000
Encoding: 0 57344 0
Width: 1000
GlyphClass: 2
Flags: MW
HStem: 0 802<649 844 649 649>
VStem: 151 693<0 396>
LayerCount: 2
Fore
SplineSet
844 802 m 1
 349 399 l 1
 844 0 l 1
 649 0 l 1
 151 396 l 1
 646 802 l 1
 844 802 l 1
EndSplineSet
EndChar

StartChar: uniE001
Encoding: 1 57345 1
Width: 1000
GlyphClass: 2
Flags: HMW
HStem: 399 109.5
VStem: 723 121
LayerCount: 2
Fore
SplineSet
842 803 m 1
 486 508 l 5
 844 513 l 1
 844 105 l 1
 721 5 l 1
 725 399 l 1
 157 399 l 1
 659 804 l 1
 842 803 l 1
EndSplineSet
EndChar

StartChar: uniE002
Encoding: 2 57346 2
Width: 1000
GlyphClass: 2
Flags: HMW
HStem: 399 106.5
VStem: 154 690<0 507>
LayerCount: 2
Fore
SplineSet
844 803 m 1
 470 504 l 5
 844 507 l 1
 332 8 l 1
 154 0 l 1
 578 399 l 1
 158 399 l 1
 650 801 l 1
 844 803 l 1
EndSplineSet
EndChar

StartChar: uniE003
Encoding: 3 57347 3
Width: 1000
GlyphClass: 2
Flags: MW
HStem: 399 104.5
VStem: 151 693<0 399>
LayerCount: 2
Fore
SplineSet
570 804 m 1
 358 503 l 1
 581 504 l 1
 844 0 l 1
 704 0 l 1
 493 399 l 1
 151 399 l 1
 440 804 l 1
 570 804 l 1
EndSplineSet
EndChar

StartChar: uniE004
Encoding: 4 57348 4
Width: 1000
GlyphClass: 2
Flags: MW
HStem: 0 803<154 844 154 844>
VStem: 154 690<0 398>
LayerCount: 2
Fore
SplineSet
844 803 m 1
 566 580 l 1
 844 398 l 1
 342 0 l 1
 154 0 l 1
 654 399 l 1
 389 573 l 1
 670 801 l 1
 844 803 l 1
EndSplineSet
EndChar

StartChar: uniE005
Encoding: 5 57349 5
Width: 1000
GlyphClass: 2
Flags: HMW
HStem: 511 96<455 455 307 455>
VStem: 307 687<0 511>
LayerCount: 2
Fore
SplineSet
625 606 m 5
 843 419 l 1
 573 419 l 1
 994 0 l 1
 836 1 l 1
 307 511 l 1
 559 511 l 1
 455 607 l 1
 690 802 l 1
 847 801 l 1
 625 606 l 5
EndSplineSet
EndChar

StartChar: uniE006
Encoding: 6 57350 6
Width: 1000
GlyphClass: 2
Flags: HMW
HStem: -1 806<498 659>
VStem: 498.5 134.5
LayerCount: 2
Fore
SplineSet
659 801 m 1
 486 614 l 5
 636 399 l 1
 630 102 l 1
 498 -1 l 1
 499 395 l 1
 323 613 l 5
 501 800 l 1
 659 801 l 1
EndSplineSet
EndChar

StartChar: uniE007
Encoding: 7 57351 7
Width: 1000
GlyphClass: 2
Flags: HMW
HStem: 0 802<152 840 152 626>
VStem: 150 145
LayerCount: 2
Fore
SplineSet
283 802 m 1
 291 390 l 5
 840 0 l 1
 646 0 l 1
 148 340 l 1
 152 802 l 1
 283 802 l 1
EndSplineSet
EndChar

StartChar: uniE008
Encoding: 8 57352 8
Width: 1000
GlyphClass: 2
Flags: MW
HStem: 0 802<500 844 500 844>
VStem: 151 693<0 396>
LayerCount: 2
Fore
SplineSet
331 399 m 1
 151 396 l 1
 500 802 l 1
 659 801 l 1
 331 399 l 1
331 399 m 1
 703 0 l 1
 844 0 l 1
 490 399 l 1
 331 399 l 1
EndSplineSet
EndChar

StartChar: uniE009
Encoding: 9 57353 9
Width: 1000
GlyphClass: 2
Flags: MW
HStem: 0 798<497 839 497 839>
VStem: 336 503<0 399>
LayerCount: 2
Fore
SplineSet
497 798 m 1
 497 399 l 1
 613 399 l 1
 613 675 l 1
 497 798 l 1
336 399 m 1
 701 0 l 1
 839 0 l 1
 497 399 l 1
 336 399 l 1
EndSplineSet
EndChar

StartChar: uniE00A
Encoding: 10 57354 10
Width: 1000
GlyphClass: 2
Flags: MW
HStem: 0 798<391 840 391 840>
VStem: 499 79<449 449 449 675 399 449>
LayerCount: 2
Fore
SplineSet
391 321 m 1
 499 399 l 1
 499 675 l 1
 391 798 l 1
 391 321 l 1
499 399 m 1
 726 0 l 1
 840 0 l 1
 578 449 l 1
 499 399 l 1
EndSplineSet
EndChar

StartChar: uniE00B
Encoding: 11 57355 11
Width: 1000
GlyphClass: 2
Flags: MW
HStem: 399 96.5
VStem: 726.5 117.5
LayerCount: 2
Fore
SplineSet
844 803 m 1
 500 493 l 1
 847 498 l 1
 847 360 844 202 844 0 c 1
 726 102 l 1
 727 399 l 1
 584 399 l 1
 417 581 l 1
 671 802 l 1
 844 803 l 1
EndSplineSet
EndChar

StartChar: uniE00C
Encoding: 12 57356 12
Width: 1000
GlyphClass: 2
Flags: MW
HStem: 400.5 108.5
VStem: 714 127
LayerCount: 2
Fore
SplineSet
676 801 m 1
 415 507 l 1
 599 511 l 1
 840 297 l 1
 842 0 l 1
 717 99 l 1
 711 399 l 1
 151 402 l 1
 503 800 l 1
 676 801 l 1
EndSplineSet
EndChar

StartChar: uniE00D
Encoding: 13 57357 13
Width: 1000
GlyphClass: 2
Flags: MW
HStem: 399.5 105
VStem: 158 686<399 801>
LayerCount: 2
Fore
SplineSet
844 801 m 1
 492 504 l 1
 656 505 l 1
 840 319 l 1
 497 1 l 1
 316 1 l 1
 751 400 l 1
 158 399 l 1
 670 801 l 1
 844 801 l 1
EndSplineSet
EndChar

StartChar: uniE00E
Encoding: 14 57358 14
Width: 1000
GlyphClass: 2
Flags: MW
HStem: 399 112.5
VStem: 728.5 115.5
LayerCount: 2
Fore
SplineSet
666 803 m 1
 349 510 l 1
 626 513 l 1
 844 289 l 1
 844 0 l 1
 728 132 l 1
 729 399 l 1
 494 399 l 1
 246 574 l 1
 500 801 l 1
 666 803 l 1
EndSplineSet
EndChar

StartChar: uniE00F
Encoding: 15 57359 15
Width: 1000
GlyphClass: 2
Flags: MW
HStem: 302 97<606 606>
VStem: 168 676<399 508>
LayerCount: 2
Fore
SplineSet
844 803 m 1
 670 801 l 1
 168 399 l 1
 727 399 l 1
 844 508 l 1
 492 504 l 1
 844 803 l 1
728 109 m 1
 727 399 l 1
 606 302 l 1
 609 7 l 1
 728 109 l 1
EndSplineSet
EndChar

StartChar: uniE010
Encoding: 16 57360 16
Width: 1000
GlyphClass: 2
Flags: HMW
HStem: 484 84<442 442 364 442>
VStem: 151 693<0 351>
LayerCount: 2
Fore
SplineSet
643 565 m 1
 844 381 l 1
 442 379 l 1
 272 0 l 1
 151 0 l 1
 364 484 l 1
 556 484 l 1
 482 568 l 5
 695 803 l 5
 844 803 l 1
 643 565 l 1
EndSplineSet
EndChar

StartChar: uniE011
Encoding: 17 57361 17
Width: 1000
GlyphClass: 2
Flags: MW
HStem: 399 111
VStem: 244 600<0 580>
LayerCount: 2
Fore
SplineSet
667 804 m 1
 332 506 l 1
 658 514 l 1
 844 0 l 1
 734 0 l 1
 583 399 l 1
 413 399 l 1
 244 580 l 1
 499 805 l 1
 667 804 l 1
EndSplineSet
EndChar

StartChar: uniE012
Encoding: 18 57362 18
Width: 1000
GlyphClass: 2
Flags: HMW
HStem: -2 802<563 649>
VStem: 464 100.5
LayerCount: 2
Fore
SplineSet
496 798 m 1
 151 352 l 5
 464 349 l 1
 566 464 l 1
 395 467 l 1
 649 800 l 1
 496 798 l 1
563 -2 m 1
 680 112 l 1
 680 595 l 1
 566 464 l 1
 563 -2 l 1
EndSplineSet
EndChar

StartChar: uniE013
Encoding: 19 57363 19
Width: 1000
GlyphClass: 2
Flags: MW
HStem: 0 803<334 684 499 684>
VStem: 305 410<398 617>
LayerCount: 2
Fore
SplineSet
684 803 m 1
 510 801 l 1
 305 617 l 1
 530 399 l 1
 715 398 l 1
 485 623 l 1
 684 803 l 1
516 199 m 1
 334 0 l 1
 499 0 l 1
 665 203 l 1
 530 399 l 1
 391 398 l 1
 516 199 l 1
EndSplineSet
EndChar

StartChar: uniE014
Encoding: 20 57364 20
Width: 1000
GlyphClass: 2
Flags: MW
HStem: -2 803<339 685>
VStem: 306 534<398 595>
LayerCount: 2
Fore
SplineSet
511 799 m 1
 306 595 l 1
 525 397 l 1
 686 396 l 1
 486 600 l 1
 685 801 l 1
 511 799 l 1
339 -2 m 1
 499 0 l 1
 840 398 l 1
 686 396 l 1
 339 -2 l 1
EndSplineSet
EndChar

StartChar: uniE015
Encoding: 21 57365 21
Width: 1000
GlyphClass: 2
Flags: MW
HStem: 0 801<685 836 685 836>
VStem: 316 520
LayerCount: 2
Fore
SplineSet
685 801 m 1
 511 799 l 1
 316 595 l 1
 495 398 l 1
 656 400 l 1
 486 600 l 1
 685 801 l 1
349 401 m 1
 696 0 l 1
 836 0 l 1
 495 398 l 1
 349 401 l 1
EndSplineSet
EndChar

StartChar: uniE016
Encoding: 22 57366 22
Width: 1000
GlyphClass: 2
Flags: MW
HStem: 2 799<499 685>
VStem: 316 369<585 801>
LayerCount: 2
Fore
SplineSet
685 801 m 1
 511 799 l 1
 316 585 l 1
 495 399 l 1
 656 400 l 1
 486 588 l 1
 685 801 l 1
499 2 m 1
 495 399 l 1
 374 399 l 1
 376 95 l 1
 499 2 l 1
EndSplineSet
EndChar

StartChar: uniE017
Encoding: 23 57367 23
Width: 1000
GlyphClass: 2
Flags: MW
HStem: 0 801<155 685 305 685>
VStem: 155 530
LayerCount: 2
Fore
SplineSet
511 799 m 1
 306 602 l 1
 494 402 l 1
 495 404 l 1
 656 400 l 1
 486 607 l 1
 685 801 l 1
 511 799 l 1
494 402 m 1
 494 401 l 1
 495 401 l 1
 494 402 l 1
305 0 m 1
 494 401 l 1
 351 401 l 1
 155 0 l 1
 305 0 l 1
EndSplineSet
EndChar

StartChar: uniE030
Encoding: 48 57392 48
Width: 1000
GlyphClass: 2
Flags: MW
HStem: 0 807<605 671>
VStem: 236 764<184 571>
LayerCount: 2
Fore
SplineSet
497 805 m 1
 236 571 l 1
 483 355 l 1
 650 355 l 1
 423 571 l 1
 671 807 l 1
 497 805 l 1
650 355 m 1
 821 190 l 1
 605 0 l 1
 793 1 l 1
 1000 184 l 1
 815 355 l 1
 650 355 l 1
EndSplineSet
EndChar

StartChar: uniE048
Encoding: 72 57416 72
Width: 1000
GlyphClass: 2
Flags: HMW
HStem: 0 807<605 671>
VStem: 236 764<236 623>
LayerCount: 2
Fore
SplineSet
497 2 m 1
 236 236 l 1
 483 452 l 1
 650 452 l 1
 423 236 l 1
 671 0 l 1
 497 2 l 1
650 452 m 1
 821 617 l 1
 605 807 l 1
 793 806 l 1
 1000 623 l 1
 815 452 l 1
 650 452 l 1
EndSplineSet
EndChar

StartChar: uniE060
Encoding: 96 57440 96
Width: 1000
GlyphClass: 2
Flags: MW
HStem: 1 800<151 844 299 844>
VStem: 151 693
LayerCount: 2
Fore
SplineSet
422 402 m 1
 420 402 l 1
 151 1 l 1
 299 1 l 1
 570 402 l 1
 844 801 l 1
 691 801 l 1
 422 402 l 1
EndSplineSet
EndChar

StartChar: uniE061
Encoding: 97 57441 97
Width: 1000
GlyphClass: 2
Flags: MW
HStem: 1 800<151 841>
VStem: 151 690
LayerCount: 2
Fore
SplineSet
841 801 m 1
 688 801 l 1
 422 399 l 1
 420 399 l 1
 151 1 l 1
 503 4 l 1
 411 14 285 28 379 127 c 1
 570 399 l 1
 841 801 l 1
EndSplineSet
EndChar

StartChar: uniE062
Encoding: 98 57442 98
Width: 1000
GlyphClass: 2
Flags: MW
HStem: 1 800<151 841 304 841>
VStem: 151 690
LayerCount: 2
Fore
SplineSet
612 675 m 1
 422 403 l 1
 151 1 l 1
 304 1 l 1
 570 403 l 1
 572 403 l 1
 841 801 l 1
 489 798 l 1
 581 788 707 774 612 675 c 1
EndSplineSet
EndChar

StartChar: uniE063
Encoding: 99 57443 99
Width: 1000
GlyphClass: 2
Flags: MW
HStem: 1 796<151 839>
VStem: 151 688
LayerCount: 2
Fore
SplineSet
839 797 m 1
 487 794 l 1
 579 784 705 770 610 671 c 1
 420 399 l 1
 151 1 l 1
 503 4 l 1
 411 14 285 28 379 127 c 1
 570 399 l 1
 839 797 l 1
EndSplineSet
EndChar

StartChar: uniE064
Encoding: 100 57444 100
Width: 1000
GlyphClass: 2
Flags: MW
HStem: -99 903
VStem: 154 700
LayerCount: 2
Fore
SplineSet
435 402 m 1
 154 0 l 1
 307 0 l 1
 398 82 550 -2 264 -99 c 1
 382 -70 675 -24 392 127 c 1
 583 402 l 1
 586 402 l 1
 854 804 l 1
 706 804 l 1
 435 402 l 1
EndSplineSet
EndChar

StartChar: uniE065
Encoding: 101 57445 101
Width: 1000
GlyphClass: 2
Flags: MW
HStem: 1 903
VStem: 154 700
LayerCount: 2
Fore
SplineSet
744 904 m 1
 626 875 333 829 616 678 c 1
 425 403 l 1
 422 403 l 1
 154 1 l 1
 302 1 l 1
 573 403 l 1
 854 805 l 1
 701 805 l 1
 610 723 457 807 744 904 c 1
EndSplineSet
EndChar

StartChar: uniE066
Encoding: 102 57446 102
Width: 1000
GlyphClass: 2
Flags: MW
HStem: -99 896
VStem: 419.64 81.82
LayerCount: 2
Fore
SplineSet
839 797 m 1
 570 399 l 1
 420 399 l 1
 610 671 l 1
 705 770 579 784 487 794 c 1
 839 797 l 1
423 399 m 1
 468 396 516 399 571 399 c 1
 382 127 l 1
 665 -24 372 -70 254 -99 c 1
 540 -2 388 82 297 0 c 1
 144 0 l 1
 423 399 l 1
EndSplineSet
EndChar

StartChar: uniE067
Encoding: 103 57447 103
Width: 1000
GlyphClass: 2
Flags: MW
HStem: 1 896
VStem: 481.51 81.41
LayerCount: 2
Fore
SplineSet
686 798 m 1
 839 798 l 1
 560 399 l 1
 515 402 467 399 412 399 c 1
 601 671 l 1
 318 822 611 868 729 897 c 1
 442 800 595 716 686 798 c 1
563 399 m 1
 372 127 l 1
 278 28 404 14 496 4 c 1
 144 1 l 1
 413 399 l 1
 563 399 l 1
EndSplineSet
EndChar

StartChar: uniE068
Encoding: 104 57448 104
Width: 1000
GlyphClass: 2
Flags: MW
HStem: -2 900<151 844 299 844>
VStem: 151 693
LayerCount: 2
Fore
SplineSet
422 449 m 1
 420 449 l 1
 151 -2 l 1
 299 -2 l 1
 570 449 l 1
 844 898 l 1
 691 898 l 1
 422 449 l 1
EndSplineSet
EndChar

StartChar: uniE069
Encoding: 105 57449 105
Width: 1000
GlyphClass: 2
Flags: MW
HStem: 1 900<151 841>
VStem: 151 690
LayerCount: 2
Fore
SplineSet
841 901 m 1
 688 901 l 1
 422 449 l 1
 420 449 l 1
 151 1 l 1
 503 4 l 1
 411 16 285 31 379 143 c 1
 570 449 l 1
 841 901 l 1
EndSplineSet
EndChar

StartChar: uniE06A
Encoding: 106 57450 106
Width: 1000
GlyphClass: 2
Flags: MW
HStem: 1 900<151 841 304 841>
VStem: 151 690
LayerCount: 2
Fore
SplineSet
612 759 m 1
 422 453 l 1
 151 1 l 1
 304 1 l 1
 570 453 l 1
 572 453 l 1
 841 901 l 1
 489 898 l 1
 581 886 707 871 612 759 c 1
EndSplineSet
EndChar

StartChar: uniE06B
Encoding: 107 57451 107
Width: 1000
GlyphClass: 2
Flags: MW
HStem: 1 896<151 839>
VStem: 151 688
LayerCount: 2
Fore
SplineSet
839 897 m 1
 487 893 l 1
 579 882 705 866 610 755 c 1
 420 449 l 1
 151 1 l 1
 503 5 l 1
 411 16 285 32 379 143 c 1
 570 449 l 1
 839 897 l 1
EndSplineSet
EndChar

StartChar: uniE06C
Encoding: 108 57452 108
Width: 1000
GlyphClass: 2
Flags: MW
HStem: -105 1015
VStem: 154 700
LayerCount: 2
Fore
SplineSet
435 458 m 1
 154 6 l 1
 307 6 l 1
 398 98 550 3 264 -105 c 1
 382 -72 675 -21 392 149 c 1
 583 458 l 1
 586 458 l 1
 854 910 l 1
 706 910 l 1
 435 458 l 1
EndSplineSet
EndChar

StartChar: uniE06D
Encoding: 109 57453 109
Width: 1000
GlyphClass: 2
Flags: MW
HStem: -5 1015
VStem: 154 700
LayerCount: 2
Fore
SplineSet
744 1010 m 1
 626 977 333 926 616 756 c 1
 425 447 l 1
 422 447 l 1
 154 -5 l 1
 302 -5 l 1
 573 447 l 1
 854 899 l 1
 701 899 l 1
 610 807 457 902 744 1010 c 1
EndSplineSet
EndChar

StartChar: uniE06E
Encoding: 110 57454 110
Width: 1000
GlyphClass: 2
Flags: MW
HStem: -105 1008
VStem: 419.64 81.82
LayerCount: 2
Fore
SplineSet
839 903 m 1
 570 455 l 1
 420 455 l 1
 610 761 l 1
 705 873 579 888 487 900 c 1
 839 903 l 1
423 455 m 1
 468 452 516 455 571 455 c 1
 382 149 l 1
 665 -21 372 -72 254 -105 c 1
 540 4 388 98 297 6 c 1
 144 6 l 1
 423 455 l 1
EndSplineSet
EndChar

StartChar: uniE06F
Encoding: 111 57455 111
Width: 1000
GlyphClass: 2
Flags: MW
HStem: -5 1008
VStem: 481.51 81.41
LayerCount: 2
Fore
SplineSet
686 892 m 1
 839 892 l 1
 560 443 l 1
 515 446 467 443 412 443 c 1
 601 749 l 1
 318 919 611 970 729 1003 c 1
 442 894 595 800 686 892 c 1
563 443 m 1
 372 137 l 1
 278 25 404 10 496 -2 c 1
 144 -5 l 1
 413 443 l 1
 563 443 l 1
EndSplineSet
EndChar

StartChar: uniE070
Encoding: 112 57456 112
Width: 1000
GlyphClass: 2
Flags: MW
HStem: -97 900<151 844 299 844>
VStem: 151 693
LayerCount: 2
Fore
SplineSet
422 354 m 1
 420 354 l 1
 151 -97 l 1
 299 -97 l 1
 570 354 l 1
 844 803 l 1
 691 803 l 1
 422 354 l 1
EndSplineSet
EndChar

StartChar: uniE071
Encoding: 113 57457 113
Width: 1000
GlyphClass: 2
Flags: MW
HStem: -99 900<151 841>
VStem: 151 690
LayerCount: 2
Fore
SplineSet
841 801 m 1
 688 801 l 1
 422 349 l 1
 420 349 l 1
 151 -99 l 1
 503 -96 l 1
 411 -84 285 -69 379 43 c 1
 570 349 l 1
 841 801 l 1
EndSplineSet
EndChar

StartChar: uniE072
Encoding: 114 57458 114
Width: 1000
GlyphClass: 2
Flags: MW
HStem: -99 900<151 841 304 841>
VStem: 151 690
LayerCount: 2
Fore
SplineSet
612 659 m 1
 422 353 l 1
 151 -99 l 1
 304 -99 l 1
 570 353 l 1
 572 353 l 1
 841 801 l 1
 489 798 l 1
 581 786 707 771 612 659 c 1
EndSplineSet
EndChar

StartChar: uniE073
Encoding: 115 57459 115
Width: 1000
GlyphClass: 2
Flags: MW
HStem: -99 896<151 839>
VStem: 151 688
LayerCount: 2
Fore
SplineSet
839 797 m 1
 487 793 l 1
 579 782 705 766 610 655 c 1
 420 349 l 1
 151 -99 l 1
 503 -95 l 1
 411 -84 285 -68 379 43 c 1
 570 349 l 1
 839 797 l 1
EndSplineSet
EndChar

StartChar: uniE074
Encoding: 116 57460 116
Width: 1000
GlyphClass: 2
Flags: MW
HStem: -205 1015
VStem: 154 700
LayerCount: 2
Fore
SplineSet
435 358 m 1
 154 -94 l 1
 307 -94 l 1
 398 -2 550 -97 264 -205 c 1
 382 -172 675 -121 392 49 c 1
 583 358 l 1
 586 358 l 1
 854 810 l 1
 706 810 l 1
 435 358 l 1
EndSplineSet
EndChar

StartChar: uniE075
Encoding: 117 57461 117
Width: 1000
GlyphClass: 2
Flags: MW
HStem: -105 1015
VStem: 154 700
LayerCount: 2
Fore
SplineSet
744 910 m 1
 626 877 333 826 616 656 c 1
 425 347 l 1
 422 347 l 1
 154 -105 l 1
 302 -105 l 1
 573 347 l 1
 854 799 l 1
 701 799 l 1
 610 707 457 802 744 910 c 1
EndSplineSet
EndChar

StartChar: uniE076
Encoding: 118 57462 118
Width: 1000
GlyphClass: 2
Flags: MW
HStem: -205 1008
VStem: 419.64 81.82
LayerCount: 2
Fore
SplineSet
839 803 m 1
 570 355 l 1
 420 355 l 1
 610 661 l 1
 705 773 579 788 487 800 c 1
 839 803 l 1
423 355 m 1
 468 352 516 355 571 355 c 1
 382 49 l 1
 665 -121 372 -172 254 -205 c 1
 540 -96 388 -2 297 -94 c 1
 144 -94 l 1
 423 355 l 1
EndSplineSet
EndChar

StartChar: uniE077
Encoding: 119 57463 119
Width: 1000
GlyphClass: 2
Flags: MW
HStem: -105 1008
VStem: 481.51 81.41
LayerCount: 2
Fore
SplineSet
686 792 m 1
 839 792 l 1
 560 343 l 1
 515 346 467 343 412 343 c 1
 601 649 l 1
 318 819 611 870 729 903 c 1
 442 794 595 700 686 792 c 1
563 343 m 1
 372 37 l 1
 278 -75 404 -90 496 -102 c 1
 144 -105 l 1
 413 343 l 1
 563 343 l 1
EndSplineSet
EndChar

StartChar: uniE078
Encoding: 120 57464 120
Width: 1000
GlyphClass: 2
Flags: MW
HStem: -99 1000<151 844 299 844>
VStem: 151 693
LayerCount: 2
Fore
SplineSet
422 402 m 1
 420 402 l 1
 151 -99 l 1
 299 -99 l 1
 570 402 l 1
 844 901 l 1
 691 901 l 1
 422 402 l 1
EndSplineSet
EndChar

StartChar: uniE079
Encoding: 121 57465 121
Width: 1000
GlyphClass: 2
Flags: MW
HStem: -99 1000<151 841>
VStem: 151 690
LayerCount: 2
Fore
SplineSet
841 901 m 1
 688 901 l 1
 422 399 l 1
 420 399 l 1
 151 -99 l 1
 503 -95 l 1
 411 -82 285 -65 379 59 c 1
 570 399 l 1
 841 901 l 1
EndSplineSet
EndChar

StartChar: uniE07A
Encoding: 122 57466 122
Width: 1000
GlyphClass: 2
Flags: MW
HStem: -99 1000<151 841 304 841>
VStem: 151 690
LayerCount: 2
Fore
SplineSet
612 744 m 1
 422 404 l 1
 151 -99 l 1
 304 -99 l 1
 570 404 l 1
 572 404 l 1
 841 901 l 1
 489 897 l 1
 581 884 707 867 612 744 c 1
EndSplineSet
EndChar

StartChar: uniE07B
Encoding: 123 57467 123
Width: 1000
GlyphClass: 2
Flags: MW
HStem: -99 996<151 839>
VStem: 151 688
LayerCount: 2
Fore
SplineSet
839 897 m 1
 487 893 l 1
 579 880 705 863 610 739 c 1
 420 399 l 1
 151 -99 l 1
 503 -95 l 1
 411 -82 285 -65 379 59 c 1
 570 399 l 1
 839 897 l 1
EndSplineSet
EndChar

StartChar: uniE07C
Encoding: 124 57468 124
Width: 1000
GlyphClass: 2
Flags: MW
HStem: -212 1129
VStem: 154 700
LayerCount: 2
Fore
SplineSet
435 414 m 1
 154 -88 l 1
 307 -88 l 1
 398 14 550 -91 264 -212 c 1
 382 -175 675 -118 392 71 c 1
 583 414 l 1
 586 414 l 1
 854 917 l 1
 706 917 l 1
 435 414 l 1
EndSplineSet
EndChar

StartChar: uniE07D
Encoding: 125 57469 125
Width: 1000
GlyphClass: 2
Flags: MW
HStem: -112 1129
VStem: 154 700
LayerCount: 2
Fore
SplineSet
744 1017 m 1
 626 980 333 923 616 734 c 1
 425 391 l 1
 422 391 l 1
 154 -112 l 1
 302 -112 l 1
 573 391 l 1
 854 893 l 1
 701 893 l 1
 610 791 457 896 744 1017 c 1
EndSplineSet
EndChar

StartChar: uniE07E
Encoding: 126 57470 126
Width: 1000
GlyphClass: 2
Flags: MW
HStem: -211 1120
VStem: 419.64 81.82
LayerCount: 2
Fore
SplineSet
839 909 m 1
 570 412 l 1
 420 412 l 1
 610 752 l 1
 705 875 579 892 487 905 c 1
 839 909 l 1
423 412 m 1
 468 408 516 412 571 412 c 1
 382 72 l 1
 665 -117 372 -174 254 -211 c 1
 540 -90 388 15 297 -87 c 1
 144 -87 l 1
 423 412 l 1
EndSplineSet
EndChar

StartChar: uniE07F
Encoding: 127 57471 127
Width: 1000
GlyphClass: 2
Flags: MW
HStem: -111 1120
VStem: 481.51 81.41
LayerCount: 2
Fore
SplineSet
686 885 m 1
 839 885 l 1
 560 387 l 1
 515 390 467 387 412 387 c 1
 601 727 l 1
 318 915 611 972 729 1009 c 1
 442 888 595 783 686 885 c 1
563 387 m 1
 372 47 l 1
 278 -77 404 -94 496 -107 c 1
 144 -111 l 1
 413 387 l 1
 563 387 l 1
EndSplineSet
EndChar

StartChar: uniE080
Encoding: 128 57472 128
Width: 1000
GlyphClass: 2
Flags: MW
HStem: -3 804<237 784 237 784>
VStem: 237 547
LayerCount: 2
Fore
SplineSet
355 399 m 1
 631 801 l 1
 784 801 l 1
 503 399 l 1
 355 399 l 1
237 -3 m 1
 503 399 l 1
 655 399 l 1
 384 -3 l 1
 237 -3 l 1
EndSplineSet
EndChar

StartChar: uniE081
Encoding: 129 57473 129
Width: 1000
GlyphClass: 2
Flags: MW
HStem: 1 800<236 631>
VStem: 236 548
LayerCount: 2
Fore
SplineSet
631 801 m 1
 355 399 l 1
 503 399 l 1
 784 801 l 1
 631 801 l 1
505 399 m 1
 236 1 l 1
 588 4 l 1
 496 14 370 28 464 127 c 1
 655 399 l 1
 505 399 l 1
EndSplineSet
EndChar

StartChar: uniE082
Encoding: 130 57474 130
Width: 1000
GlyphClass: 2
Flags: MW
HStem: 1 800<236 784 389 784>
VStem: 236 548
LayerCount: 2
Fore
SplineSet
515 403 m 1
 784 801 l 1
 432 798 l 1
 524 788 650 774 555 675 c 1
 365 403 l 1
 515 403 l 1
389 1 m 1
 665 403 l 1
 517 403 l 1
 236 1 l 1
 389 1 l 1
EndSplineSet
EndChar

StartChar: uniE083
Encoding: 131 57475 131
Width: 1000
GlyphClass: 2
Flags: MW
HStem: 1 797<236 774>
VStem: 236 538
LayerCount: 2
Fore
SplineSet
505 400 m 1
 774 798 l 1
 422 795 l 1
 514 785 640 771 545 672 c 1
 355 400 l 1
 505 400 l 1
505 399 m 1
 236 1 l 1
 588 4 l 1
 496 14 370 28 464 127 c 1
 655 399 l 1
 505 399 l 1
EndSplineSet
EndChar

StartChar: uniE084
Encoding: 132 57476 132
Width: 1000
GlyphClass: 2
Flags: MW
HStem: -100 904
VStem: 219 555
LayerCount: 2
Fore
SplineSet
626 804 m 1
 345 402 l 1
 495 402 l 1
 774 804 l 1
 626 804 l 1
219 -1 m 1
 371 -1 l 1
 462 81 615 -3 328 -100 c 1
 446 -71 740 -25 456 126 c 1
 647 401 l 1
 500 401 l 1
 219 -1 l 1
EndSplineSet
EndChar

StartChar: uniE085
Encoding: 133 57477 133
Width: 1000
GlyphClass: 2
Flags: MW
HStem: -100 904
VStem: 219 555
LayerCount: 2
Fore
SplineSet
774 705 m 1
 621 705 l 1
 530 623 377 707 664 804 c 1
 546 775 253 729 536 578 c 1
 345 303 l 1
 493 303 l 1
 774 705 l 1
366 -100 m 1
 647 302 l 1
 497 302 l 1
 219 -100 l 1
 366 -100 l 1
EndSplineSet
EndChar

StartChar: uniE086
Encoding: 134 57478 134
Width: 1000
GlyphClass: 2
Flags: MW
HStem: -100 898
VStem: 234 530
LayerCount: 2
Fore
SplineSet
535 672 m 1
 345 400 l 1
 495 400 l 1
 764 798 l 1
 412 795 l 1
 504 785 630 771 535 672 c 1
234 -1 m 1
 386 -1 l 1
 477 81 630 -3 343 -100 c 1
 461 -71 755 -25 471 126 c 1
 662 401 l 1
 495 400 l 1
 234 -1 l 1
EndSplineSet
EndChar

StartChar: uniE087
Encoding: 135 57479 135
Width: 1000
GlyphClass: 2
Flags: MW
HStem: 0 898
VStem: 234 530
LayerCount: 2
Fore
SplineSet
654 898 m 1
 536 869 243 823 526 672 c 1
 335 397 l 1
 503 398 l 1
 764 799 l 1
 611 799 l 1
 520 717 367 801 654 898 c 1
503 398 m 1
 234 0 l 1
 585 3 l 1
 493 13 368 27 462 126 c 1
 652 398 l 1
 503 398 l 1
EndSplineSet
EndChar

StartChar: uniE088
Encoding: 136 57480 136
Width: 1000
GlyphClass: 2
Flags: MW
HStem: 3 897<225 703 373 703>
VStem: 225 630
LayerCount: 2
Fore
SplineSet
703 900 m 1
 355 399 l 1
 501 399 l 1
 225 3 l 1
 373 3 l 1
 654 399 l 1
 503 399 l 1
 855 900 l 1
 703 900 l 1
EndSplineSet
EndChar

StartChar: uniE089
Encoding: 137 57481 137
Width: 1000
GlyphClass: 2
Flags: MW
HStem: -1 901<306 773>
VStem: 306 619
LayerCount: 2
Fore
SplineSet
773 900 m 1
 425 397 l 1
 573 397 l 1
 925 900 l 1
 773 900 l 1
575 397 m 1
 306 -1 l 1
 658 2 l 1
 566 12 440 26 534 125 c 1
 725 397 l 1
 575 397 l 1
EndSplineSet
EndChar

StartChar: uniE08A
Encoding: 138 57482 138
Width: 1000
GlyphClass: 2
Flags: MW
HStem: -1 896<219 799 372 799>
VStem: 219 580
LayerCount: 2
Fore
SplineSet
500 399 m 1
 799 895 l 1
 448 891 l 1
 539 878 665 861 571 738 c 1
 351 399 l 1
 500 399 l 1
372 -1 m 1
 651 399 l 1
 504 399 l 1
 219 -1 l 1
 372 -1 l 1
EndSplineSet
EndChar

StartChar: uniE08B
Encoding: 139 57483 139
Width: 1000
GlyphClass: 2
Flags: MW
HStem: -1 896<196 759>
VStem: 196 563
LayerCount: 2
Fore
SplineSet
460 399 m 1
 759 895 l 1
 408 891 l 1
 499 878 625 861 531 738 c 1
 311 399 l 1
 460 399 l 1
465 397 m 1
 196 -1 l 1
 548 2 l 1
 456 12 330 26 424 125 c 1
 615 397 l 1
 465 397 l 1
EndSplineSet
EndChar

StartChar: uniE08C
Encoding: 140 57484 140
Width: 1000
GlyphClass: 2
Flags: MW
HStem: -100 1000
VStem: 244 609
LayerCount: 2
Fore
SplineSet
701 900 m 1
 353 399 l 1
 501 399 l 1
 853 900 l 1
 701 900 l 1
244 -1 m 1
 396 -1 l 1
 487 81 640 -3 353 -100 c 1
 471 -71 765 -25 481 126 c 1
 672 401 l 1
 505 400 l 1
 244 -1 l 1
EndSplineSet
EndChar

StartChar: uniE08D
Encoding: 141 57485 141
Width: 1000
GlyphClass: 2
Flags: MW
HStem: 3 1001<149 676 302 676>
VStem: 149 636
LayerCount: 2
Fore
SplineSet
505 504 m 1
 785 905 l 1
 633 905 l 1
 614 878 l 1
 578 908 l 1
 676 1004 l 1
 555 974 l 1
 468 918 l 1
 464 812 l 1
 548 778 l 1
 357 503 l 1
 501 503 l 1
 149 3 l 1
 302 3 l 1
 649 504 l 1
 505 504 l 1
EndSplineSet
EndChar

StartChar: uniE08E
Encoding: 142 57486 142
Width: 1000
GlyphClass: 2
Flags: MW
HStem: -101 1025<329 798>
VStem: 219 579
LayerCount: 2
Fore
SplineSet
498 396 m 1
 798 924 l 1
 444 902 l 1
 533 885 l 1
 611 839 l 1
 345 396 l 1
 498 396 l 1
219 -2 m 1
 372 -2 l 1
 391 25 l 1
 427 -5 l 1
 329 -101 l 1
 450 -71 l 1
 537 -15 l 1
 541 91 l 1
 457 125 l 1
 648 398 l 1
 500 398 l 1
 219 -2 l 1
EndSplineSet
EndChar

StartChar: uniE08F
Encoding: 143 57487 143
Width: 1000
GlyphClass: 2
Flags: MW
HStem: -1 1005<209 740>
VStem: 209 640
LayerCount: 2
Fore
SplineSet
496 403 m 1
 849 905 l 1
 697 905 l 1
 678 878 l 1
 642 908 l 1
 740 1004 l 1
 619 974 l 1
 532 918 l 1
 528 812 l 1
 612 778 l 1
 345 399 l 1
 492 399 l 1
 209 -1 l 1
 574 1 l 1
 484 18 l 1
 406 64 l 1
 648 403 l 1
 496 403 l 1
EndSplineSet
EndChar

StartChar: uniE090
Encoding: 144 57488 144
Width: 1000
GlyphClass: 2
Flags: MW
HStem: -97 897<225 708 378 708>
VStem: 225 630
LayerCount: 2
Fore
SplineSet
708 800 m 1
 427 404 l 1
 578 404 l 1
 225 -97 l 1
 378 -97 l 1
 725 404 l 1
 579 404 l 1
 855 800 l 1
 708 800 l 1
EndSplineSet
EndChar

StartChar: uniE091
Encoding: 145 57489 145
Width: 1000
GlyphClass: 2
Flags: MW
HStem: -99 900<157 784>
VStem: 157 627
LayerCount: 2
Fore
SplineSet
784 801 m 1
 631 801 l 1
 355 399 l 1
 500 399 l 1
 157 -99 l 1
 512 -96 l 1
 422 -79 l 1
 344 -33 l 1
 653 399 l 1
 503 399 l 1
 784 801 l 1
EndSplineSet
EndChar

StartChar: uniE092
Encoding: 146 57490 146
Width: 1000
GlyphClass: 2
Flags: MW
HStem: -99 900<147 774 300 774>
VStem: 147 627
LayerCount: 2
Fore
SplineSet
419 798 m 1
 509 781 l 1
 587 735 l 1
 345 399 l 1
 495 399 l 1
 147 -99 l 1
 300 -99 l 1
 643 399 l 1
 498 399 l 1
 774 801 l 1
 419 798 l 1
EndSplineSet
EndChar

StartChar: uniE093
Encoding: 147 57491 147
Width: 1000
GlyphClass: 2
Flags: MW
HStem: -101 901<157 783>
VStem: 157 626
LayerCount: 2
Fore
SplineSet
499 399 m 1
 783 800 l 1
 429 798 l 1
 518 781 l 1
 596 735 l 1
 347 399 l 1
 499 399 l 1
502 403 m 1
 157 -101 l 1
 512 -99 l 1
 422 -82 l 1
 344 -36 l 1
 654 403 l 1
 502 403 l 1
EndSplineSet
EndChar

StartChar: uniE094
Encoding: 148 57492 148
Width: 1000
GlyphClass: 2
Flags: MW
HStem: -199 1001<257 780>
VStem: 147 633
LayerCount: 2
Fore
SplineSet
498 398 m 1
 780 802 l 1
 628 802 l 1
 351 398 l 1
 498 398 l 1
147 -100 m 1
 300 -100 l 1
 319 -73 l 1
 355 -103 l 1
 257 -199 l 1
 378 -169 l 1
 465 -113 l 1
 469 -7 l 1
 385 27 l 1
 646 399 l 1
 499 399 l 1
 147 -100 l 1
EndSplineSet
EndChar

StartChar: uniE095
Encoding: 149 57493 149
Width: 1000
GlyphClass: 2
Flags: MW
HStem: -100 1001<142 669 295 669>
VStem: 142 636
LayerCount: 2
Fore
SplineSet
498 401 m 1
 778 802 l 1
 626 802 l 1
 607 775 l 1
 571 805 l 1
 669 901 l 1
 548 871 l 1
 461 815 l 1
 457 709 l 1
 541 675 l 1
 350 400 l 1
 494 400 l 1
 142 -100 l 1
 295 -100 l 1
 642 401 l 1
 498 401 l 1
EndSplineSet
EndChar

StartChar: uniE096
Encoding: 150 57494 150
Width: 1000
GlyphClass: 2
Flags: MW
HStem: -184 1005<284 764>
VStem: 175 589
LayerCount: 2
Fore
SplineSet
508 399 m 1
 764 821 l 1
 409 819 l 1
 499 802 l 1
 577 756 l 1
 356 399 l 1
 501 399 l 1
 175 -85 l 1
 327 -85 l 1
 346 -58 l 1
 382 -88 l 1
 284 -184 l 1
 405 -154 l 1
 492 -98 l 1
 496 8 l 1
 412 42 l 1
 648 399 l 1
 508 399 l 1
EndSplineSet
EndChar

StartChar: uniE097
Encoding: 151 57495 151
Width: 1000
GlyphClass: 2
Flags: MW
HStem: -108 1006<154 674>
VStem: 154 630
LayerCount: 2
Fore
SplineSet
784 799 m 1
 631 799 l 1
 612 772 l 1
 576 802 l 1
 674 898 l 1
 553 868 l 1
 466 812 l 1
 462 706 l 1
 546 672 l 1
 353 400 l 1
 500 400 l 1
 784 799 l 1
503 403 m 1
 154 -108 l 1
 508 -106 l 1
 419 -89 l 1
 341 -43 l 1
 655 403 l 1
 503 403 l 1
EndSplineSet
EndChar

StartChar: uniE098
Encoding: 152 57496 152
Width: 1000
GlyphClass: 2
Flags: MW
HStem: -96 996<157 703 304 703>
VStem: 157 698
LayerCount: 2
Fore
SplineSet
703 900 m 1
 355 399 l 1
 500 399 l 1
 157 -96 l 1
 304 -96 l 1
 653 399 l 1
 503 399 l 1
 855 900 l 1
 703 900 l 1
EndSplineSet
EndChar

StartChar: uniE099
Encoding: 153 57497 153
Width: 1000
GlyphClass: 2
Flags: MW
HStem: -102 1002<156 703>
VStem: 156 699
LayerCount: 2
Fore
SplineSet
703 900 m 1
 355 399 l 1
 503 399 l 1
 855 900 l 1
 703 900 l 1
156 -102 m 1
 511 -100 l 1
 421 -83 l 1
 343 -37 l 1
 648 397 l 1
 495 397 l 1
 156 -102 l 1
EndSplineSet
EndChar

StartChar: uniE09A
Encoding: 154 57498 154
Width: 1000
GlyphClass: 2
Flags: MW
HStem: -102 1002<146 835 299 835>
VStem: 146 689
LayerCount: 2
Fore
SplineSet
835 900 m 1
 481 898 l 1
 570 881 l 1
 648 835 l 1
 336 405 l 1
 489 405 l 1
 835 900 l 1
299 -102 m 1
 639 406 l 1
 491 406 l 1
 146 -102 l 1
 299 -102 l 1
EndSplineSet
EndChar

StartChar: uniE09B
Encoding: 155 57499 155
Width: 1000
GlyphClass: 2
Flags: MW
HStem: -102 1002<147 846>
VStem: 147 699
LayerCount: 2
Fore
SplineSet
497 403 m 1
 846 900 l 1
 492 898 l 1
 581 881 l 1
 659 835 l 1
 341 399 l 1
 493 399 l 1
 147 -102 l 1
 502 -100 l 1
 412 -83 l 1
 334 -37 l 1
 649 403 l 1
 497 403 l 1
EndSplineSet
EndChar

StartChar: uniE09C
Encoding: 156 57500 156
Width: 1000
GlyphClass: 2
Flags: MW
HStem: -198 1098<276 865>
VStem: 166 699
LayerCount: 2
Fore
SplineSet
865 900 m 1
 713 900 l 1
 365 399 l 1
 509 399 l 1
 166 -99 l 1
 319 -99 l 1
 338 -72 l 1
 374 -102 l 1
 276 -198 l 1
 397 -168 l 1
 484 -112 l 1
 488 -6 l 1
 404 28 l 1
 658 400 l 1
 514 400 l 1
 865 900 l 1
EndSplineSet
EndChar

StartChar: uniE09D
Encoding: 157 57501 157
Width: 1000
GlyphClass: 2
Flags: MW
HStem: -99 1103<150 746 303 746>
VStem: 150 705
LayerCount: 2
Fore
SplineSet
855 905 m 1
 703 905 l 1
 684 878 l 1
 648 908 l 1
 746 1004 l 1
 625 974 l 1
 538 918 l 1
 534 812 l 1
 618 778 l 1
 355 399 l 1
 503 399 l 1
 855 905 l 1
510 400 m 1
 150 -99 l 1
 303 -99 l 1
 658 400 l 1
 510 400 l 1
EndSplineSet
EndChar

StartChar: uniE09E
Encoding: 158 57502 158
Width: 1000
GlyphClass: 2
Flags: MW
HStem: -196 1100<259 798>
VStem: 149 649
LayerCount: 2
Fore
SplineSet
798 904 m 1
 444 902 l 1
 673 885 l 1
 611 839 l 1
 345 396 l 1
 491 396 l 1
 149 -97 l 1
 302 -97 l 1
 321 -70 l 1
 357 -100 l 1
 259 -196 l 1
 380 -166 l 1
 467 -110 l 1
 471 -4 l 1
 387 30 l 1
 641 399 l 1
 500 399 l 1
 798 904 l 1
EndSplineSet
EndChar

StartChar: uniE09F
Encoding: 159 57503 159
Width: 1000
GlyphClass: 2
Flags: MW
HStem: -99 1103<145 750>
VStem: 145 714
LayerCount: 2
Fore
SplineSet
507 403 m 1
 859 905 l 1
 707 905 l 1
 688 878 l 1
 652 908 l 1
 750 1004 l 1
 629 974 l 1
 542 918 l 1
 538 812 l 1
 622 778 l 1
 355 397 l 1
 491 397 l 1
 145 -99 l 1
 500 -97 l 1
 410 -80 l 1
 332 -34 l 1
 648 403 l 1
 507 403 l 1
EndSplineSet
EndChar

StartChar: uniE0A0
Encoding: 160 57504 160
Width: 1000
GlyphClass: 2
Flags: MW
HStem: -3 804<287 734 287 734>
VStem: 287 447
LayerCount: 2
Fore
SplineSet
305 399 m 1
 581 801 l 1
 734 801 l 1
 453 399 l 1
 305 399 l 1
287 -3 m 1
 553 399 l 1
 705 399 l 1
 434 -3 l 1
 287 -3 l 1
EndSplineSet
EndChar

StartChar: uniE0A1
Encoding: 161 57505 161
Width: 1000
GlyphClass: 2
Flags: MW
HStem: -1.5 64.5
VStem: 274 450
LayerCount: 2
Fore
SplineSet
295 399 m 1
 571 801 l 1
 724 801 l 1
 443 399 l 1
 295 399 l 1
274 -3 m 1
 550 399 l 1
 703 399 l 1
 461 63 l 1
 539 17 l 1
 629 0 l 1
 274 -3 l 1
EndSplineSet
EndChar

StartChar: uniE0A2
Encoding: 162 57506 162
Width: 1000
GlyphClass: 2
Flags: MW
HStem: 735 64.5
VStem: 264 460
LayerCount: 2
Fore
SplineSet
724 801 m 1
 448 399 l 1
 295 399 l 1
 537 735 l 1
 459 781 l 1
 369 798 l 1
 724 801 l 1
693 399 m 1
 417 -3 l 1
 264 -3 l 1
 545 399 l 1
 693 399 l 1
EndSplineSet
EndChar

StartChar: uniE0A3
Encoding: 163 57507 163
Width: 1000
GlyphClass: 2
Flags: MW
HStem: -3 803<628 724>
VStem: 273 451
LayerCount: 2
Fore
SplineSet
448 396 m 1
 724 800 l 1
 369 798 l 1
 459 781 l 1
 537 735 l 1
 295 396 l 1
 448 396 l 1
273 0 m 1
 628 -3 l 1
 538 14 l 1
 460 60 l 1
 702 396 l 1
 549 396 l 1
 273 0 l 1
EndSplineSet
EndChar

StartChar: uniE0A4
Encoding: 164 57508 164
Width: 1000
GlyphClass: 2
Flags: MW
HStem: -99 933<374 714>
VStem: 264 450
LayerCount: 2
Fore
SplineSet
714 834 m 1
 438 402 l 1
 285 402 l 1
 566 834 l 1
 714 834 l 1
693 402 m 1
 502 127 l 1
 586 93 l 1
 582 -13 l 1
 495 -69 l 1
 374 -99 l 1
 472 -3 l 1
 436 27 l 1
 417 0 l 1
 264 0 l 1
 545 402 l 1
 693 402 l 1
EndSplineSet
EndChar

StartChar: uniE0A5
Encoding: 165 57509 165
Width: 1000
GlyphClass: 2
Flags: MW
HStem: -3 903<272 614 272 614>
VStem: 272 452
LayerCount: 2
Fore
SplineSet
295 399 m 1
 486 674 l 1
 402 708 l 1
 406 814 l 1
 493 870 l 1
 614 900 l 1
 516 804 l 1
 552 774 l 1
 571 801 l 1
 724 801 l 1
 443 399 l 1
 295 399 l 1
272 -3 m 1
 548 399 l 1
 701 399 l 1
 420 -3 l 1
 272 -3 l 1
EndSplineSet
EndChar

StartChar: uniE0A6
Encoding: 166 57510 166
Width: 1000
GlyphClass: 2
Flags: MW
HStem: -101 951<379 734>
VStem: 269 465
LayerCount: 2
Fore
SplineSet
458 396 m 1
 734 850 l 1
 379 848 l 1
 469 831 l 1
 547 785 l 1
 305 396 l 1
 458 396 l 1
269 -2 m 1
 422 -2 l 1
 441 25 l 1
 477 -5 l 1
 379 -101 l 1
 500 -71 l 1
 587 -15 l 1
 591 91 l 1
 507 125 l 1
 698 398 l 1
 550 398 l 1
 269 -2 l 1
EndSplineSet
EndChar

StartChar: uniE0A7
Encoding: 167 57511 167
Width: 1000
GlyphClass: 2
Flags: MW
HStem: -1 871<269 617>
VStem: 269 458
LayerCount: 2
Fore
SplineSet
727 771 m 1
 574 771 l 1
 555 744 l 1
 519 774 l 1
 617 870 l 1
 496 840 l 1
 409 784 l 1
 405 678 l 1
 489 644 l 1
 298 399 l 1
 446 396 l 1
 727 771 l 1
269 -1 m 1
 624 1 l 1
 534 18 l 1
 456 64 l 1
 698 400 l 1
 545 400 l 1
 269 -1 l 1
EndSplineSet
EndChar

StartChar: uniE0A8
Encoding: 168 57512 168
Width: 1000
GlyphClass: 2
Flags: MW
HStem: 1 899<275 805 275 805>
VStem: 275 530
LayerCount: 2
Fore
SplineSet
305 399 m 1
 653 900 l 1
 805 900 l 1
 453 399 l 1
 305 399 l 1
275 1 m 1
 551 399 l 1
 704 399 l 1
 423 1 l 1
 275 1 l 1
EndSplineSet
EndChar

StartChar: uniE0A9
Encoding: 169 57513 169
Width: 1000
GlyphClass: 2
Flags: MW
HStem: 0 900<338 703>
VStem: 338 517
LayerCount: 2
Fore
SplineSet
703 900 m 1
 355 399 l 1
 503 399 l 1
 855 900 l 1
 703 900 l 1
338 0 m 1
 693 2 l 1
 603 19 l 1
 525 65 l 1
 757 397 l 1
 604 397 l 1
 338 0 l 1
EndSplineSet
EndChar

StartChar: uniE0AA
Encoding: 170 57514 170
Width: 1000
GlyphClass: 2
Flags: MW
HStem: 835 64
VStem: 269 546
LayerCount: 2
Fore
SplineSet
815 900 m 1
 443 399 l 1
 287 399 l 1
 628 835 l 1
 550 881 l 1
 461 898 l 1
 815 900 l 1
701 399 m 1
 422 -1 l 1
 269 -1 l 1
 554 399 l 1
 701 399 l 1
EndSplineSet
EndChar

StartChar: uniE0AB
Encoding: 171 57515 171
Width: 1000
GlyphClass: 2
Flags: MW
HStem: -3 903<329 845>
VStem: 329 516
LayerCount: 2
Fore
SplineSet
845 900 m 1
 491 898 l 1
 580 881 l 1
 658 835 l 1
 340 399 l 1
 493 399 l 1
 845 900 l 1
329 -3 m 1
 684 -1 l 1
 594 16 l 1
 516 62 l 1
 758 402 l 1
 605 402 l 1
 329 -3 l 1
EndSplineSet
EndChar

StartChar: uniE0AC
Encoding: 172 57516 172
Width: 1000
GlyphClass: 2
Flags: MW
HStem: -142 1041<386 793>
VStem: 276 517
LayerCount: 2
Fore
SplineSet
441 398 m 1
 793 899 l 1
 641 899 l 1
 293 398 l 1
 441 398 l 1
276 -43 m 1
 429 -43 l 1
 448 -16 l 1
 484 -46 l 1
 386 -142 l 1
 507 -112 l 1
 594 -56 l 1
 598 50 l 1
 514 84 l 1
 705 399 l 1
 557 399 l 1
 276 -43 l 1
EndSplineSet
EndChar

StartChar: uniE0AD
Encoding: 173 57517 173
Width: 1000
GlyphClass: 2
Flags: MW
HStem: 3 1001<219 626 219 626>
VStem: 219 516
LayerCount: 2
Fore
SplineSet
307 503 m 1
 498 778 l 1
 414 812 l 1
 418 918 l 1
 505 974 l 1
 626 1004 l 1
 528 908 l 1
 564 878 l 1
 583 905 l 1
 735 905 l 1
 457 500 l 1
 307 503 l 1
719 504 m 1
 372 3 l 1
 219 3 l 1
 572 504 l 1
 719 504 l 1
EndSplineSet
EndChar

StartChar: uniE0AE
Encoding: 174 57518 174
Width: 1000
GlyphClass: 2
Flags: MW
HStem: 839 74
VStem: 279 469
LayerCount: 2
Fore
SplineSet
748 924 m 1
 448 396 l 1
 397 403 346 396 295 396 c 1
 561 839 l 1
 483 885 l 1
 394 902 l 1
 748 924 l 1
708 398 m 1
 517 125 l 1
 591 91 l 1
 587 -15 l 1
 510 -71 l 1
 389 -101 l 1
 487 -5 l 1
 451 25 l 1
 432 -2 l 1
 279 -2 l 1
 550 398 l 1
 708 398 l 1
EndSplineSet
EndChar

StartChar: uniE0AF
Encoding: 175 57519 175
Width: 1000
GlyphClass: 2
Flags: MW
HStem: -1 1005<269 690>
VStem: 269 530
LayerCount: 2
Fore
SplineSet
799 905 m 1
 647 905 l 1
 628 878 l 1
 592 908 l 1
 690 1004 l 1
 569 974 l 1
 482 918 l 1
 478 812 l 1
 562 778 l 1
 295 399 l 1
 443 399 l 1
 799 905 l 1
555 403 m 1
 269 -1 l 1
 634 1 l 1
 544 18 l 1
 466 64 l 1
 708 403 l 1
 555 403 l 1
EndSplineSet
EndChar

StartChar: uniE0B0
Encoding: 176 57520 176
Width: 1000
GlyphClass: 2
Flags: MW
HStem: -103 903<213 732 213 732>
VStem: 213 519
LayerCount: 2
Fore
SplineSet
301 399 m 1
 580 800 l 1
 732 800 l 1
 448 399 l 1
 301 399 l 1
213 -103 m 1
 558 399 l 1
 710 399 l 1
 361 -103 l 1
 213 -103 l 1
EndSplineSet
EndChar

StartChar: uniE0B1
Encoding: 177 57521 177
Width: 1000
GlyphClass: 2
Flags: MW
HStem: -97.5 64.5
VStem: 227 497
LayerCount: 2
Fore
SplineSet
295 399 m 1
 571 801 l 1
 724 801 l 1
 443 399 l 1
 295 399 l 1
227 -99 m 1
 570 399 l 1
 723 399 l 1
 414 -33 l 1
 492 -79 l 1
 562 -96 l 1
 227 -99 l 1
EndSplineSet
EndChar

StartChar: uniE0B2
Encoding: 178 57522 178
Width: 1000
GlyphClass: 2
Flags: MW
HStem: 735 64.5
VStem: 197 527
LayerCount: 2
Fore
SplineSet
724 801 m 1
 448 399 l 1
 295 399 l 1
 537 735 l 1
 459 781 l 1
 369 798 l 1
 724 801 l 1
693 399 m 1
 350 -99 l 1
 197 -99 l 1
 545 399 l 1
 693 399 l 1
EndSplineSet
EndChar

StartChar: uniE0B3
Encoding: 179 57523 179
Width: 1000
GlyphClass: 2
Flags: MW
HStem: -101 901<217 733>
VStem: 217 516
LayerCount: 2
Fore
SplineSet
733 800 m 1
 379 798 l 1
 468 781 l 1
 546 735 l 1
 297 399 l 1
 449 399 l 1
 733 800 l 1
217 -101 m 1
 562 -99 l 1
 472 -82 l 1
 414 -36 l 1
 714 403 l 1
 562 403 l 1
 217 -101 l 1
EndSplineSet
EndChar

StartChar: uniE0B4
Encoding: 180 57524 180
Width: 1000
GlyphClass: 2
Flags: MW
HStem: -199 1001<307 588>
VStem: 197 543
LayerCount: 2
Fore
SplineSet
588 802 m 1
 311 398 l 1
 458 398 l 1
 740 802 l 1
 588 802 l 1
197 -100 m 1
 350 -100 l 1
 369 -73 l 1
 405 -103 l 1
 307 -199 l 1
 428 -169 l 1
 515 -113 l 1
 519 -7 l 1
 435 27 l 1
 696 399 l 1
 549 399 l 1
 197 -100 l 1
EndSplineSet
EndChar

StartChar: uniE0B5
Encoding: 181 57525 181
Width: 1000
GlyphClass: 2
Flags: MW
HStem: -100 1001<202 619 355 619>
VStem: 202 526
LayerCount: 2
Fore
SplineSet
728 802 m 1
 576 802 l 1
 557 775 l 1
 521 805 l 1
 619 901 l 1
 498 871 l 1
 411 815 l 1
 407 709 l 1
 491 675 l 1
 300 400 l 1
 447 400 l 1
 728 802 l 1
355 -100 m 1
 702 401 l 1
 555 401 l 1
 202 -100 l 1
 355 -100 l 1
EndSplineSet
EndChar

StartChar: uniE0B6
Encoding: 182 57526 182
Width: 1000
GlyphClass: 2
Flags: MW
HStem: -184 985<344 704>
VStem: 235 473
LayerCount: 2
Fore
SplineSet
448 399 m 1
 704 801 l 1
 349 799 l 1
 439 782 l 1
 517 736 l 1
 296 399 l 1
 448 399 l 1
561 399 m 1
 235 -85 l 1
 387 -85 l 1
 406 -58 l 1
 442 -88 l 1
 344 -184 l 1
 465 -154 l 1
 552 -98 l 1
 556 8 l 1
 472 42 l 1
 708 399 l 1
 561 399 l 1
EndSplineSet
EndChar

StartChar: uniE0B7
Encoding: 183 57527 183
Width: 1000
GlyphClass: 2
Flags: MW
HStem: -108 1006<214 624>
VStem: 214 520
LayerCount: 2
Fore
SplineSet
734 799 m 1
 581 799 l 1
 562 772 l 1
 526 802 l 1
 624 898 l 1
 503 868 l 1
 416 812 l 1
 412 706 l 1
 496 672 l 1
 303 400 l 1
 450 400 l 1
 734 799 l 1
563 403 m 1
 214 -108 l 1
 568 -106 l 1
 479 -89 l 1
 401 -43 l 1
 715 403 l 1
 563 403 l 1
EndSplineSet
EndChar

StartChar: uniE0B8
Encoding: 184 57528 184
Width: 1000
GlyphClass: 2
Flags: MW
HStem: -96 996<207 805 207 805>
VStem: 207 598
LayerCount: 2
Fore
SplineSet
305 399 m 1
 653 900 l 1
 805 900 l 1
 453 399 l 1
 305 399 l 1
207 -96 m 1
 550 399 l 1
 703 399 l 1
 354 -96 l 1
 207 -96 l 1
EndSplineSet
EndChar

StartChar: uniE0B9
Encoding: 185 57529 185
Width: 1000
GlyphClass: 2
Flags: MW
HStem: -102 1002<206 653>
VStem: 206 599
LayerCount: 2
Fore
SplineSet
653 900 m 1
 305 399 l 1
 453 399 l 1
 805 900 l 1
 653 900 l 1
206 -102 m 1
 561 -100 l 1
 471 -83 l 1
 393 -37 l 1
 698 397 l 1
 545 397 l 1
 206 -102 l 1
EndSplineSet
EndChar

StartChar: uniE0BA
Encoding: 186 57530 186
Width: 1000
GlyphClass: 2
Flags: MW
HStem: -102 997<206 795 359 795>
VStem: 206 589
LayerCount: 2
Fore
SplineSet
795 895 m 1
 441 893 l 1
 530 876 l 1
 608 830 l 1
 296 400 l 1
 449 400 l 1
 795 895 l 1
359 -102 m 1
 699 401 l 1
 551 401 l 1
 206 -102 l 1
 359 -102 l 1
EndSplineSet
EndChar

StartChar: uniE0BB
Encoding: 187 57531 187
Width: 1000
GlyphClass: 2
Flags: MW
HStem: -102 1002<208 807>
VStem: 208 599
LayerCount: 2
Fore
SplineSet
455 399 m 1
 807 900 l 1
 453 898 l 1
 542 881 l 1
 620 835 l 1
 302 399 l 1
 455 399 l 1
208 -102 m 1
 563 -100 l 1
 473 -83 l 1
 395 -37 l 1
 710 403 l 1
 557 403 l 1
 208 -102 l 1
EndSplineSet
EndChar

StartChar: uniE0BC
Encoding: 188 57532 188
Width: 1000
GlyphClass: 2
Flags: MW
HStem: -198 1098<306 653>
VStem: 196 609
LayerCount: 2
Fore
SplineSet
653 900 m 1
 305 399 l 1
 453 399 l 1
 805 900 l 1
 653 900 l 1
196 -99 m 1
 349 -99 l 1
 368 -72 l 1
 404 -102 l 1
 306 -198 l 1
 427 -168 l 1
 514 -112 l 1
 518 -6 l 1
 434 28 l 1
 688 400 l 1
 540 400 l 1
 196 -99 l 1
EndSplineSet
EndChar

StartChar: uniE0BD
Encoding: 189 57533 189
Width: 1000
GlyphClass: 2
Flags: MW
HStem: -99 1103<200 636 353 636>
VStem: 200 595
LayerCount: 2
Fore
SplineSet
795 905 m 1
 593 905 l 1
 574 878 l 1
 588 908 l 1
 636 1004 l 1
 565 974 l 1
 478 918 l 1
 474 812 l 1
 558 778 l 1
 295 399 l 1
 443 399 l 1
 795 905 l 1
353 -99 m 1
 708 400 l 1
 560 400 l 1
 200 -99 l 1
 353 -99 l 1
EndSplineSet
EndChar

StartChar: uniE0BE
Encoding: 190 57534 190
Width: 1000
GlyphClass: 2
Flags: MW
HStem: -196 1100<309 748>
VStem: 199 549
LayerCount: 2
Fore
SplineSet
448 396 m 1
 748 904 l 1
 394 902 l 1
 623 885 l 1
 561 839 l 1
 295 396 l 1
 448 396 l 1
199 -97 m 1
 352 -97 l 1
 371 -70 l 1
 407 -100 l 1
 309 -196 l 1
 430 -166 l 1
 517 -110 l 1
 521 -4 l 1
 437 30 l 1
 691 399 l 1
 543 399 l 1
 199 -97 l 1
EndSplineSet
EndChar

StartChar: uniE0BF
Encoding: 191 57535 191
Width: 1000
GlyphClass: 2
Flags: MW
HStem: -99 1103<205 690>
VStem: 205 594
LayerCount: 2
Fore
SplineSet
799 905 m 1
 647 905 l 1
 628 878 l 1
 592 908 l 1
 690 1004 l 1
 569 974 l 1
 482 918 l 1
 478 812 l 1
 562 778 l 1
 295 397 l 1
 443 397 l 1
 799 905 l 1
555 403 m 1
 205 -99 l 1
 560 -97 l 1
 470 -80 l 1
 392 -34 l 1
 708 403 l 1
 555 403 l 1
EndSplineSet
EndChar

StartChar: uniE0C0
Encoding: 192 57536 192
Width: 1000
GlyphClass: 2
Flags: MW
HStem: 351 102<91 843>
VStem: 91 752<351 453>
LayerCount: 2
Fore
SplineSet
91 453 m 1
 151 351 l 1
 843 351 l 1
 783 450 l 1
 91 453 l 1
EndSplineSet
EndChar

StartChar: uniE0C1
Encoding: 193 57537 193
Width: 1000
GlyphClass: 2
Flags: MW
HStem: 351 260
VStem: 724 19
LayerCount: 2
Fore
SplineSet
151 453 m 1
 211 351 l 1
 844 353 l 1
 724 611 l 1
 748 513 756 459 708 454 c 1
 151 453 l 1
EndSplineSet
EndChar

StartChar: uniE0C2
Encoding: 194 57538 194
Width: 1000
GlyphClass: 2
Flags: MW
HStem: 348.5 101.5
VStem: 151 693<349 449>
LayerCount: 2
Fore
SplineSet
151 349 m 1
 211 451 l 1
 844 449 l 1
 724 191 l 1
 748 289 756 343 708 348 c 1
 151 349 l 1
EndSplineSet
EndChar

StartChar: uniE0C3
Encoding: 195 57539 195
Width: 1000
GlyphClass: 2
Flags: MW
HStem: 191 260
VStem: 251 19
LayerCount: 2
Fore
SplineSet
844 349 m 1
 784 451 l 1
 151 449 l 1
 270 191 l 1
 246 289 238 343 286 348 c 1
 844 349 l 1
EndSplineSet
EndChar

StartChar: uniE0C4
Encoding: 196 57540 196
Width: 1000
GlyphClass: 2
Flags: MW
HStem: 352 101.5
VStem: 151 693<353 453>
LayerCount: 2
Fore
SplineSet
844 453 m 1
 784 351 l 1
 151 353 l 1
 270 611 l 1
 246 513 238 459 286 454 c 1
 844 453 l 1
EndSplineSet
EndChar

StartChar: uniE0C5
Encoding: 197 57541 197
Width: 1000
GlyphClass: 2
Flags: MW
HStem: 195 416
VStem: 251 19 724 19
LayerCount: 2
Fore
SplineSet
527 455 m 1
 286 454 l 1
 238 459 246 513 270 611 c 1
 151 353 l 1
 465 353 l 1
 507 421 l 1
 467 353 l 1
 708 352 l 1
 756 347 748 293 724 195 c 1
 844 453 l 1
 527 455 l 1
EndSplineSet
EndChar

StartChar: uniE0C6
Encoding: 198 57542 198
Width: 1000
GlyphClass: 2
Flags: MW
HStem: 195 416
VStem: 255 19 728 19
LayerCount: 2
Fore
SplineSet
728 611 m 1
 752 513 760 459 712 454 c 1
 470 455 l 1
 155 453 l 1
 274 195 l 1
 250 293 242 347 290 352 c 1
 532 353 l 1
 512 387 l 1
 533 353 l 1
 848 353 l 1
 728 611 l 1
EndSplineSet
EndChar

StartChar: uniE0C7
Encoding: 199 57543 199
Width: 1000
GlyphClass: 2
Flags: MW
HStem: 0 804<160 499>
VStem: 160 684<695 804>
LayerCount: 2
Fore
SplineSet
748 801 m 1
 160 804 l 1
 499 491 l 1
 499 0 l 1
 623 129 l 1
 622 508 l 1
 438 697 l 1
 844 695 l 1
 748 801 l 1
EndSplineSet
EndChar

StartChar: uniE0C9
Encoding: 201 57545 201
Width: 1000
GlyphClass: 2
Flags: HMW
HStem: 545 150.5
VStem: 495 89<400 400>
LayerCount: 2
Fore
SplineSet
744 800 m 1
 158 803 l 1
 495 400 l 1
 584 492 l 5
 406 696 l 1
 840 695 l 1
 744 800 l 1
691 113 m 1
 693 595 l 1
 584 492 l 5
 584 3 l 1
 691 113 l 1
EndSplineSet
EndChar

StartChar: uniE0CB
Encoding: 203 57547 203
Width: 1000
GlyphClass: 2
Flags: MW
HStem: 566.5 128.5
VStem: 150 694<693 804>
LayerCount: 2
Fore
SplineSet
844 693 m 5
 748 801 l 5
 150 804 l 5
 370 565 l 5
 496 568 l 5
 378 697 l 5
 844 693 l 5
374 130 m 5
 370 565 l 5
 256 568 l 5
 263 0 l 5
 374 130 l 5
EndSplineSet
EndChar

StartChar: uniE0CD
Encoding: 205 57549 205
Width: 1000
GlyphClass: 2
Flags: HMW
HStem: 0 804<151 794>
VStem: 151 643<0 804>
LayerCount: 2
Fore
SplineSet
794 804 m 1
 400 804 l 1
 151 504 l 1
 151 0 l 1
 277 90 l 1
 283 660 l 1
 677 666 l 5
 794 804 l 1
EndSplineSet
EndChar

StartChar: uniE0CE
Encoding: 206 57550 206
Width: 1000
GlyphClass: 2
Flags: MW
HStem: 1 800<250 842 392 842>
VStem: 158 684<800 801>
LayerCount: 2
Fore
SplineSet
842 801 m 1
 158 800 l 1
 505 399 l 1
 250 1 l 1
 392 1 l 1
 666 399 l 1
 408 687 l 1
 752 688 l 1
 842 801 l 1
EndSplineSet
EndChar

StartChar: uniE0CF
Encoding: 207 57551 207
Width: 1000
GlyphClass: 2
Flags: MW
HStem: 0 799<151 151>
VStem: 151 583<798 798 798 799>
LayerCount: 2
Fore
SplineSet
734 798 m 1
 151 799 l 1
 151 0 l 1
 267 153 l 1
 264 690 l 1
 632 687 l 1
 734 798 l 1
EndSplineSet
EndChar

StartChar: uniE0D1
Encoding: 209 57553 209
Width: 1000
GlyphClass: 2
Flags: MW
HStem: 574 112
VStem: 151 593<688 801>
LayerCount: 2
Fore
SplineSet
151 801 m 1
 264 684 l 1
 744 688 l 1
 651 802 l 1
 151 801 l 1
268 115 m 1
 382 0 l 1
 378 574 l 1
 264 684 l 1
 268 115 l 1
EndSplineSet
EndChar

StartChar: uniE0D3
Encoding: 211 57555 211
Width: 1000
GlyphClass: 2
Flags: MW
HStem: 4 795<235 235>
VStem: 241 99
LayerCount: 2
Fore
SplineSet
748 799 m 1
 151 799 l 1
 151 298 l 1
 238 403 l 1
 244 690 l 1
 647 688 l 1
 748 799 l 1
340 496 m 1
 238 403 l 1
 235 4 l 1
 331 79 l 1
 340 496 l 1
EndSplineSet
EndChar

StartChar: uniE0D5
Encoding: 213 57557 213
Width: 1000
GlyphClass: 2
Flags: MW
HStem: 0 799<499 652 652 652>
VStem: 151 594<319 799 319 799>
LayerCount: 2
Fore
SplineSet
745 799 m 1
 151 799 l 1
 151 319 l 1
 499 0 l 1
 652 0 l 1
 246 400 l 1
 244 690 l 1
 644 688 l 1
 745 799 l 1
EndSplineSet
EndChar

StartChar: uniE0D7
Encoding: 215 57559 215
Width: 1000
GlyphClass: 2
Flags: MW
HStem: 0 802<499 749 631 749>
VStem: 151 598<799 802>
LayerCount: 2
Fore
SplineSet
749 802 m 1
 151 799 l 1
 499 0 l 1
 631 0 l 1
 325 684 l 1
 648 683 l 1
 749 802 l 1
EndSplineSet
EndChar

StartChar: uniE0D9
Encoding: 217 57561 217
Width: 1000
GlyphClass: 2
Flags: MW
HStem: 0 802<151 153>
VStem: 151 693<0 669 0 669>
LayerCount: 2
Fore
SplineSet
153 802 m 1
 331 671 l 1
 844 669 l 1
 718 801 l 1
 153 802 l 1
151 0 m 1
 280 90 l 1
 280 497 l 1
 262 552 377 557 454 550 c 1
 331 671 l 1
 181 664 173 621 151 544 c 1
 151 0 l 1
EndSplineSet
EndChar

StartChar: uniE0DB
Encoding: 219 57563 219
Width: 1000
GlyphClass: 2
Flags: MW
HStem: 399 293.5
VStem: 151 687<799 800>
LayerCount: 2
Fore
SplineSet
151 799 m 1
 387 399 l 1
 505 399 l 1
 344 694 l 1
 737 691 l 1
 838 800 l 1
 151 799 l 1
642 399 m 1
 505 399 l 1
 165 4 l 1
 307 3 l 1
 642 399 l 1
EndSplineSet
EndChar

StartChar: uniE0DC
Encoding: 220 57564 220
Width: 1000
GlyphClass: 2
Flags: HMW
HStem: -15 819<499 499>
VStem: 189 655<605 804>
LayerCount: 2
Fore
SplineSet
844 800 m 5
 400 800 l 5
 189 605 l 1
 499 365 l 1
 499 5 l 1
 618 111 l 1
 615 419 l 1
 284 682 l 1
 759 684 l 1
 844 800 l 5
EndSplineSet
EndChar

StartChar: uniE0DE
Encoding: 222 57566 222
Width: 1000
GlyphClass: 2
Flags: MW
HStem: 574 116.5
VStem: 151 683<691 799>
LayerCount: 2
Fore
SplineSet
151 799 m 1
 244 690 l 1
 834 691 l 1
 741 801 l 1
 151 799 l 1
244 690 m 1
 249 229 l 1
 514 0 l 1
 685 0 l 1
 358 295 l 1
 363 574 l 1
 244 690 l 1
EndSplineSet
EndChar

StartChar: uniE0DF
Encoding: 223 57567 223
Width: 1000
GlyphClass: 2
Flags: MW
HStem: 399 292
VStem: 151 688<799 799>
LayerCount: 2
Fore
SplineSet
151 799 m 1
 508 399 l 1
 640 399 l 1
 385 694 l 1
 737 688 l 1
 839 799 l 1
 151 799 l 1
266 0 m 1
 508 399 l 1
 378 399 l 1
 151 0 l 1
 266 0 l 1
EndSplineSet
EndChar

StartChar: uniE0E1
Encoding: 225 57569 225
Width: 1000
GlyphClass: 2
Flags: MW
HStem: 401 290
VStem: 151 678<799 799>
LayerCount: 2
Fore
SplineSet
727 688 m 1
 829 799 l 1
 151 799 l 1
 498 401 l 1
 622 401 l 1
 395 694 l 1
 727 688 l 1
609 2 m 1
 733 2 l 1
 498 401 l 1
 378 401 l 1
 609 2 l 1
EndSplineSet
EndChar

StartChar: uniE0E7
Encoding: 231 57575 231
Width: 1000
GlyphClass: 2
Flags: MW
HStem: 346.5 118 688.5 111
VStem: 151 110 499 110.5
LayerCount: 2
Fore
SplineSet
841 798 m 1
 745 686 l 1
 264 691 l 1
 258 465 l 1
 613 464 l 1
 606 105 l 1
 499 3 l 1
 499 347 l 1
 151 346 l 1
 151 801 l 1
 841 798 l 1
EndSplineSet
EndChar

StartChar: uniE0E9
Encoding: 233 57577 233
Width: 1000
GlyphClass: 2
Flags: MW
HStem: 563 126
VStem: 246 93
LayerCount: 2
Fore
SplineSet
151 799 m 1
 151 398 l 1
 248 483 l 1
 244 690 l 1
 733 688 l 1
 834 799 l 1
 151 799 l 1
339 563 m 1
 248 483 l 1
 564 2 l 1
 704 2 l 1
 339 563 l 1
EndSplineSet
EndChar

StartChar: uniE0EB
Encoding: 235 57579 235
Width: 1000
GlyphClass: 2
Flags: MW
HStem: 506 182.5
VStem: 245.5 255
LayerCount: 2
Fore
SplineSet
151 799 m 1
 151 306 l 1
 247 399 l 1
 244 690 l 1
 742 687 l 1
 844 798 l 1
 151 799 l 1
613 103 m 1
 613 399 l 2
 612 471 586 500 502 505 c 2
 364 507 l 1
 247 399 l 1
 499 399 l 1
 502 0 l 1
 613 103 l 1
EndSplineSet
EndChar

StartChar: uniE0ED
Encoding: 237 57581 237
Width: 1000
GlyphClass: 2
Flags: HMW
HStem: 399 110.5 680 119.5
VStem: 151 124.5
LayerCount: 2
Fore
SplineSet
844 798 m 1
 748 690 l 1
 427 692 l 1
 675 399 l 1
 270 399 l 1
 269 118 l 5
 151 0 l 1
 151 511 l 1
 431 508 l 1
 151 801 l 1
 844 798 l 1
EndSplineSet
EndChar

StartChar: uniE0EE
Encoding: 238 57582 238
Width: 1000
GlyphClass: 2
Flags: HMW
HStem: 398 107 681.5 118
VStem: 151 103<506 684 506 801>
LayerCount: 2
Fore
SplineSet
844 798 m 1
 748 682 l 1
 262 687 l 5
 262 506 l 5
 651 504 l 1
 162 2 l 1
 2 2 l 1
 399 398 l 1
 151 398 l 1
 151 801 l 1
 844 798 l 1
EndSplineSet
EndChar

StartChar: uniE0F0
Encoding: 240 57584 240
Width: 1000
GlyphClass: 2
Flags: MW
HStem: 399 281.5
VStem: 151 692<0 681>
LayerCount: 2
Fore
SplineSet
160 799 m 1
 274 680 l 1
 843 681 l 1
 751 804 l 1
 160 799 l 1
274 680 m 1
 279 285 l 1
 492 285 l 1
 151 0 l 1
 345 0 l 1
 766 399 l 1
 400 399 l 1
 398 574 l 1
 274 680 l 1
EndSplineSet
EndChar

StartChar: uniE0F2
Encoding: 242 57586 242
Width: 1000
GlyphClass: 2
Flags: HMW
HStem: 449 241.5
VStem: 389 110
LayerCount: 2
Fore
SplineSet
160 799 m 1
 274 690 l 1
 843 691 l 1
 748 803 l 1
 160 799 l 1
388 584 m 1
 274 690 l 1
 279 345 l 1
 499 345 l 1
 499 0 l 1
 610 112 l 1
 609 449 l 1
 390 449 l 1
 388 584 l 1
EndSplineSet
EndChar

StartChar: uniE124
Encoding: 292 57636 292
Width: 0
GlyphClass: 2
Flags: MW
HStem: 729 175<-73 -52>
VStem: -155 239<799 901>
LayerCount: 2
Fore
SplineSet
-155 799 m 1
 -52 904 l 1
 84 901 l 1
 -73 729 l 1
 -155 799 l 1
EndSplineSet
EndChar

StartChar: uniE125
Encoding: 293 57637 293
Width: 0
GlyphClass: 2
Flags: MW
HStem: 850 55.97
VStem: -175 259
LayerCount: 2
Fore
SplineSet
-175 796 m 1
 -139 898 -16 955 84 850 c 1
 -108 857 -52 741 -64 700 c 1
 -175 796 l 1
EndSplineSet
EndChar

StartChar: uniE126
Encoding: 294 57638 294
Width: 0
GlyphClass: 2
Flags: MW
HStem: 742 224<-149 -39>
VStem: -151 112.5
LayerCount: 2
Fore
SplineSet
-153 799 m 1
 -149 966 l 1
 -38 902 l 1
 -39 742 l 1
 -153 799 l 1
EndSplineSet
EndChar

StartChar: uniE127
Encoding: 295 57639 295
Width: 0
GlyphClass: 2
Flags: MW
HStem: 681 236
VStem: -147 211.65
LayerCount: 2
Fore
SplineSet
-83 681 m 1
 25 690 112 794 36 917 c 1
 -7 730 -104 813 -147 813 c 1
 -83 681 l 1
EndSplineSet
EndChar

StartChar: uniE128
Encoding: 296 57640 296
Width: 0
GlyphClass: 2
Flags: MW
HStem: 804.5 143.5
VStem: -230 185<803 948>
LayerCount: 2
Fore
SplineSet
-162 806 m 1
 -230 948 l 1
 -112 948 l 1
 -45 803 l 1
 -162 806 l 1
EndSplineSet
EndChar

StartChar: uniE129
Encoding: 297 57641 297
Width: 0
GlyphClass: 2
Flags: MW
HStem: 802.75 114.25
VStem: 36 28.65
LayerCount: 2
Fore
SplineSet
-83 917 m 1
 25 908 112 804 36 681 c 1
 -7 868 -104 784 -147 785 c 1
 -83 917 l 1
EndSplineSet
EndChar

StartChar: uniE12A
Encoding: 298 57642 298
Width: 0
GlyphClass: 2
Flags: MW
HStem: 742 224<-488 -378>
VStem: -489 115<799 902>
LayerCount: 2
Fore
SplineSet
-374 799 m 1
 -378 966 l 1
 -489 902 l 1
 -488 742 l 1
 -374 799 l 1
EndSplineSet
EndChar

StartChar: uniE12B
Encoding: 299 57643 299
Width: 0
GlyphClass: 2
Flags: MW
HStem: 590.23 211.77
VStem: -157.32 176.32
LayerCount: 2
Fore
SplineSet
-147 798 m 1
 -183 696 -124 574 19 592 c 1
 -133 708 -17 763 0 802 c 1
 -147 798 l 1
EndSplineSet
EndChar

StartChar: uniE12C
Encoding: 300 57644 300
Width: 0
GlyphClass: 2
Flags: MW
HStem: 800 112.5
VStem: -524 224<802 912>
LayerCount: 2
Fore
SplineSet
-357 798 m 1
 -524 802 l 1
 -460 913 l 1
 -300 912 l 1
 -357 798 l 1
EndSplineSet
EndChar

StartChar: uniE12D
Encoding: 301 57645 301
Width: 0
GlyphClass: 2
Flags: MW
HStem: 803 118<87 151>
VStem: -179 330<803 920>
LayerCount: 2
Fore
SplineSet
-122 806 m 1
 151 803 l 1
 87 921 l 1
 -179 920 l 1
 -122 806 l 1
EndSplineSet
EndChar

StartChar: uniE12E
Encoding: 302 57646 302
Width: 0
GlyphClass: 2
Flags: MW
HStem: 804.5 116
VStem: -179 330<803 920>
LayerCount: 2
Fore
SplineSet
94 806 m 1
 -179 803 l 1
 -115 921 l 1
 151 920 l 1
 94 806 l 1
EndSplineSet
EndChar

StartChar: uniE12F
Encoding: 303 57647 303
Width: 0
GlyphClass: 2
Flags: MW
HStem: 782 195<-459 -348>
VStem: -455.5 105.5
LayerCount: 2
Fore
SplineSet
-459 782 m 1
 -452 919 l 1
 -348 977 l 1
 -352 784 l 1
 -459 782 l 1
EndSplineSet
EndChar

StartChar: uniE14B
Encoding: 331 57675 331
Width: 0
GlyphClass: 2
Flags: MW
HStem: 353 94
VStem: -329 329<353 447>
LayerCount: 2
Fore
SplineSet
0 447 m 1
 -243 446 l 1
 -329 353 l 1
 -94 354 l 1
 0 447 l 1
EndSplineSet
EndChar

StartChar: uniE14C
Encoding: 332 57676 332
Width: 0
GlyphClass: 2
Flags: MW
HStem: 303.5 168
VStem: -303 299<306 472>
LayerCount: 2
Fore
SplineSet
-4 472 m 1
 -176 301 l 1
 -303 306 l 1
 -136 471 l 1
 -4 472 l 1
EndSplineSet
EndChar

StartChar: uniE14D
Encoding: 333 57677 333
Width: 0
GlyphClass: 2
Flags: MW
HStem: 301 171
VStem: -303 299<306 472>
LayerCount: 2
Fore
SplineSet
-303 472 m 1
 -131 301 l 1
 -4 306 l 1
 -171 471 l 1
 -303 472 l 1
EndSplineSet
EndChar

StartChar: uniE14E
Encoding: 334 57678 334
Width: 0
GlyphClass: 2
Flags: MW
HStem: 302 199<-105 -95>
VStem: -203 203<399 400>
LayerCount: 2
Fore
SplineSet
0 400 m 1
 -105 302 l 1
 -203 399 l 1
 -95 501 l 1
 0 400 l 1
EndSplineSet
EndChar

StartChar: uniE14F
Encoding: 335 57679 335
Width: 0
GlyphClass: 2
Flags: MW
HStem: 225 329<-101 -7>
VStem: -100.5 93
LayerCount: 2
Fore
SplineSet
-7 554 m 1
 -8 311 l 1
 -101 225 l 1
 -100 460 l 1
 -7 554 l 1
EndSplineSet
EndChar

StartChar: uniE150
Encoding: 336 57680 336
Width: 0
GlyphClass: 2
Flags: MW
HStem: 300 194.61
VStem: -236 236.03
LayerCount: 2
Fore
SplineSet
-2 492 m 0
 17 488 -99 450 -111 399 c 0
 -123 347 22 302 -23 300 c 0
 -88 297 -234 320 -236 399 c 0
 -238 476 -63 504 -2 492 c 0
EndSplineSet
EndChar

StartChar: uniE151
Encoding: 337 57681 337
Width: 0
GlyphClass: 2
Flags: MW
HStem: 300 194.61
VStem: -236.06 236.06
LayerCount: 2
Fore
SplineSet
-234 492 m 0
 -253 488 -137 450 -125 399 c 0
 -113 347 -258 302 -213 300 c 0
 -148 297 -2 320 0 399 c 0
 2 476 -173 504 -234 492 c 0
EndSplineSet
EndChar

StartChar: uniE152
Encoding: 338 57682 338
Width: 0
GlyphClass: 2
Flags: MW
HStem: 852 199<-505 -495>
VStem: -603 203<949 950>
LayerCount: 2
Fore
SplineSet
-400 950 m 1
 -505 852 l 1
 -603 949 l 1
 -495 1051 l 1
 -400 950 l 1
EndSplineSet
EndChar

StartChar: uniE153
Encoding: 339 57683 339
Width: 0
GlyphClass: 2
Flags: MW
HStem: 853.5 168
VStem: -703 299<856 1022>
LayerCount: 2
Fore
SplineSet
-404 1022 m 1
 -576 851 l 1
 -703 856 l 1
 -536 1021 l 1
 -404 1022 l 1
EndSplineSet
EndChar

StartChar: uniE154
Encoding: 340 57684 340
Width: 0
GlyphClass: 2
Flags: MW
HStem: 851 171
VStem: -703 299<856 1022>
LayerCount: 2
Fore
SplineSet
-703 1022 m 1
 -531 851 l 1
 -404 856 l 1
 -571 1021 l 1
 -703 1022 l 1
EndSplineSet
EndChar

StartChar: uniE155
Encoding: 341 57685 341
Width: 0
GlyphClass: 2
Flags: MW
HStem: 851 171
VStem: -663 259<853 1022>
LayerCount: 2
Fore
SplineSet
-663 1022 m 1
 -490 851 l 1
 -404 853 l 1
 -533 979 l 1
 -409 976 l 1
 -442 1021 l 1
 -663 1022 l 1
EndSplineSet
EndChar

StartChar: uniE156
Encoding: 342 57686 342
Width: 0
GlyphClass: 2
Flags: MW
HStem: 977.5 44
VStem: -663 259<853 1022>
LayerCount: 2
Fore
SplineSet
-404 1022 m 1
 -576 851 l 1
 -663 853 l 1
 -534 979 l 1
 -658 976 l 1
 -625 1021 l 1
 -404 1022 l 1
EndSplineSet
EndChar

StartChar: uniE157
Encoding: 343 57687 343
Width: 0
GlyphClass: 2
Flags: MW
HStem: 850 194.61
VStem: -636 236.03
LayerCount: 2
Fore
SplineSet
-402 1042 m 0
 -383 1038 -499 1000 -511 949 c 0
 -523 897 -378 852 -423 850 c 0
 -488 847 -634 870 -636 949 c 0
 -638 1026 -463 1054 -402 1042 c 0
EndSplineSet
EndChar

StartChar: uniE158
Encoding: 344 57688 344
Width: 0
GlyphClass: 2
Flags: MW
HStem: 850 194.61
VStem: -636.06 236.06
LayerCount: 2
Fore
SplineSet
-634 1042 m 0
 -653 1038 -537 1000 -525 949 c 0
 -513 897 -658 852 -613 850 c 0
 -548 847 -402 870 -400 949 c 0
 -398 1026 -573 1054 -634 1042 c 0
EndSplineSet
EndChar

StartChar: uniE159
Encoding: 345 57689 345
Width: 0
GlyphClass: 2
Flags: MW
HStem: 903 94
VStem: -829 329<903 997>
LayerCount: 2
Fore
SplineSet
-500 997 m 1
 -743 996 l 1
 -829 903 l 1
 -594 904 l 1
 -500 997 l 1
EndSplineSet
EndChar

StartChar: uniE15A
Encoding: 346 57690 346
Width: 0
GlyphClass: 2
Flags: MW
HStem: -248 199<-505 -495>
VStem: -603 203<-151 -150>
LayerCount: 2
Fore
SplineSet
-400 -150 m 1
 -505 -248 l 1
 -603 -151 l 1
 -495 -49 l 1
 -400 -150 l 1
EndSplineSet
EndChar

StartChar: uniE15B
Encoding: 347 57691 347
Width: 0
GlyphClass: 2
Flags: MW
HStem: -224 171
VStem: -703 299<-219 -53>
LayerCount: 2
Fore
SplineSet
-703 -53 m 1
 -531 -224 l 1
 -404 -219 l 1
 -571 -54 l 1
 -703 -53 l 1
EndSplineSet
EndChar

StartChar: uniE15C
Encoding: 348 57692 348
Width: 0
GlyphClass: 2
Flags: MW
HStem: -221.5 168
VStem: -703 299<-219 -53>
LayerCount: 2
Fore
SplineSet
-404 -53 m 1
 -576 -224 l 1
 -703 -219 l 1
 -536 -54 l 1
 -404 -53 l 1
EndSplineSet
EndChar

StartChar: uniE15D
Encoding: 349 57693 349
Width: 0
GlyphClass: 2
Flags: MW
HStem: -250 194.61
VStem: -636 236.03
LayerCount: 2
Fore
SplineSet
-402 -58 m 0
 -383 -62 -499 -100 -511 -151 c 0
 -523 -203 -378 -248 -423 -250 c 0
 -488 -253 -634 -230 -636 -151 c 0
 -638 -74 -463 -46 -402 -58 c 0
EndSplineSet
EndChar

StartChar: uniE15E
Encoding: 350 57694 350
Width: 0
GlyphClass: 2
Flags: MW
HStem: -250 194.61
VStem: -636.06 236.06
LayerCount: 2
Fore
SplineSet
-634 -58 m 0
 -653 -62 -537 -100 -525 -151 c 0
 -513 -203 -658 -248 -613 -250 c 0
 -548 -253 -402 -230 -400 -151 c 0
 -398 -74 -573 -46 -634 -58 c 0
EndSplineSet
EndChar

StartChar: uniE15F
Encoding: 351 57695 351
Width: 0
GlyphClass: 2
Flags: MW
HStem: -197 94
VStem: -729 329<-197 -103>
LayerCount: 2
Fore
SplineSet
-400 -103 m 1
 -643 -104 l 1
 -729 -197 l 1
 -494 -196 l 1
 -400 -103 l 1
EndSplineSet
EndChar

StartChar: uniE160
Encoding: 352 57696 352
Width: 0
GlyphClass: 2
Flags: MW
HStem: -376 329<-501 -407>
VStem: -500.5 93
LayerCount: 2
Fore
SplineSet
-407 -47 m 1
 -408 -290 l 1
 -501 -376 l 1
 -500 -141 l 1
 -407 -47 l 1
EndSplineSet
EndChar

StartChar: uniE161
Encoding: 353 57697 353
Width: 0
GlyphClass: 2
Flags: MW
HStem: -248.5 44
VStem: -663 259<-249 -80>
LayerCount: 2
Fore
SplineSet
-663 -249 m 1
 -490 -78 l 1
 -404 -80 l 1
 -533 -206 l 1
 -409 -203 l 1
 -442 -248 l 1
 -663 -249 l 1
EndSplineSet
EndChar

StartChar: uniE162
Encoding: 354 57698 354
Width: 0
GlyphClass: 2
Flags: MW
HStem: -249 171
VStem: -663 259<-249 -80>
LayerCount: 2
Fore
SplineSet
-404 -249 m 1
 -576 -78 l 1
 -663 -80 l 1
 -534 -206 l 1
 -658 -203 l 1
 -625 -248 l 1
 -404 -249 l 1
EndSplineSet
EndChar

StartChar: uniE163
Encoding: 355 57699 355
Width: 0
GlyphClass: 2
Flags: MW
HStem: -149 171
VStem: -663 259<-147 22>
LayerCount: 2
Fore
SplineSet
-663 22 m 1
 -490 -149 l 1
 -404 -147 l 1
 -533 -21 l 1
 -409 -24 l 1
 -442 21 l 1
 -663 22 l 1
EndSplineSet
EndChar

StartChar: uniE164
Encoding: 356 57700 356
Width: 0
GlyphClass: 2
Flags: MW
HStem: -22.5 44
VStem: -663 259<-147 22>
LayerCount: 2
Fore
SplineSet
-404 22 m 1
 -576 -149 l 1
 -663 -147 l 1
 -534 -21 l 1
 -658 -24 l 1
 -625 21 l 1
 -404 22 l 1
EndSplineSet
EndChar

StartChar: uniE165
Encoding: 357 57701 357
Width: 0
GlyphClass: 2
Flags: MW
HStem: 435 512<-770 -640>
VStem: -767 124.5
LayerCount: 2
Fore
SplineSet
-770 435 m 1
 -764 803 l 1
 -640 947 l 1
 -645 615 l 1
 -770 435 l 1
EndSplineSet
EndChar

StartChar: uniE166
Encoding: 358 57702 358
Width: 0
GlyphClass: 2
Flags: MW
HStem: 668 135
VStem: -843 401<668 803>
LayerCount: 2
Fore
SplineSet
-442 803 m 1
 -760 801 l 1
 -843 668 l 1
 -531 671 l 1
 -442 803 l 1
EndSplineSet
EndChar

StartChar: uniE167
Encoding: 359 57703 359
Width: 0
GlyphClass: 2
Flags: MW
HStem: 548.5 254.5
VStem: -878 316<547 803>
LayerCount: 2
Fore
SplineSet
-878 547 m 1
 -709 803 l 1
 -562 803 l 1
 -729 550 l 1
 -878 547 l 1
EndSplineSet
EndChar

StartChar: uniE168
Encoding: 360 57704 360
Width: 0
GlyphClass: 2
Flags: MW
HStem: 427 374<-998 -754>
VStem: -998 318<527 801>
LayerCount: 2
Fore
SplineSet
-754 427 m 1
 -998 801 l 1
 -880 800 l 1
 -680 527 l 1
 -754 427 l 1
EndSplineSet
EndChar

StartChar: uniE169
Encoding: 361 57705 361
Width: 0
GlyphClass: 2
Flags: MW
HStem: 593 214<-822 -556 -710 -556>
VStem: -890 334<721 807>
LayerCount: 2
Fore
SplineSet
-826 803 m 1
 -890 721 l 1
 -744 723 l 1
 -822 593 l 1
 -710 593 l 1
 -556 807 l 1
 -826 803 l 1
EndSplineSet
EndChar

StartChar: uniE16A
Encoding: 362 57706 362
Width: 0
GlyphClass: 2
Flags: MW
HStem: 619 82<-660 -660>
VStem: -994 434<799 800>
LayerCount: 2
Fore
SplineSet
-560 800 m 1
 -994 799 l 1
 -717 511 l 1
 -660 619 l 1
 -766 701 l 1
 -612 701 l 1
 -560 800 l 1
EndSplineSet
EndChar

StartChar: uniE16B
Encoding: 363 57707 363
Width: 0
GlyphClass: 2
Flags: MW
HStem: 435 364<-766 -760>
VStem: -766 202
LayerCount: 2
Fore
SplineSet
-680 549 m 1
 -684 717 l 1
 -587 659 l 1
 -564 685 l 1
 -760 799 l 1
 -766 435 l 1
 -680 549 l 1
EndSplineSet
EndChar

StartChar: uniE16C
Encoding: 364 57708 364
Width: 0
GlyphClass: 2
Flags: MW
HStem: 427 376<-820 -716>
VStem: -816 97.5
LayerCount: 2
Fore
SplineSet
-820 427 m 1
 -812 709 l 1
 -909 651 l 1
 -932 677 l 1
 -716 803 l 1
 -721 559 l 1
 -820 427 l 1
EndSplineSet
EndChar

StartChar: uniE16D
Encoding: 365 57709 365
Width: 0
GlyphClass: 2
Flags: MW
HStem: 579 94
VStem: -996 327<577 673>
LayerCount: 2
Fore
SplineSet
-839 800 m 1
 -735 801 l 1
 -820 673 l 1
 -669 673 l 1
 -733 581 l 1
 -996 577 l 1
 -839 800 l 1
EndSplineSet
EndChar

StartChar: uniE16E
Encoding: 366 57710 366
Width: 0
GlyphClass: 2
Flags: MW
HStem: 580 224
VStem: -990 328<580 676>
LayerCount: 2
Fore
SplineSet
-820 803 m 1
 -924 804 l 1
 -839 676 l 1
 -990 676 l 1
 -926 584 l 1
 -662 580 l 1
 -820 803 l 1
EndSplineSet
EndChar

StartChar: uniE16F
Encoding: 367 57711 367
Width: 0
GlyphClass: 2
Flags: MW
HStem: 399 620<-824 -681>
VStem: -814.5 125
LayerCount: 2
Fore
SplineSet
-824 399 m 1
 -805 875 l 1
 -681 1019 l 1
 -698 579 l 1
 -824 399 l 1
EndSplineSet
EndChar

StartChar: uniE170
Encoding: 368 57712 368
Width: 0
GlyphClass: 2
Flags: MW
HStem: 509 510<-972 -484>
VStem: -972 488
LayerCount: 2
Fore
SplineSet
-972 509 m 1
 -628 1012 l 1
 -484 1019 l 1
 -829 512 l 1
 -972 509 l 1
EndSplineSet
EndChar

StartChar: uniE171
Encoding: 369 57713 369
Width: 0
GlyphClass: 2
Flags: MW
HStem: 427 524<-1004 -754>
VStem: -1004 324
LayerCount: 2
Fore
SplineSet
-754 427 m 1
 -1004 951 l 1
 -886 950 l 1
 -680 527 l 1
 -754 427 l 1
EndSplineSet
EndChar

StartChar: uniE172
Encoding: 370 57714 370
Width: 0
GlyphClass: 2
Flags: MW
HStem: 475 320.38
VStem: -996 372
LayerCount: 2
Fore
SplineSet
-720 475 m 1
 -756 687 -796 767 -996 795 c 1
 -836 799 -716 784 -624 627 c 1
 -720 475 l 1
EndSplineSet
EndChar

StartChar: uniE173
Encoding: 371 57715 371
Width: 0
GlyphClass: 2
Flags: MW
HStem: 467 392
VStem: -988 326
LayerCount: 2
Fore
SplineSet
-662 577 m 1
 -680 583 -960 659 -988 859 c 1
 -992 699 -891 559 -734 467 c 1
 -662 577 l 1
EndSplineSet
EndChar

StartChar: uniE174
Encoding: 372 57716 372
Width: 0
GlyphClass: 2
Flags: MW
HStem: 548.5 121
VStem: -1075 543<668 803>
LayerCount: 2
Fore
SplineSet
-742 803 m 1
 -992 801 l 1
 -1075 668 l 1
 -831 671 l 1
 -742 803 l 1
-848 547 m 1
 -679 803 l 1
 -532 803 l 1
 -699 550 l 1
 -848 547 l 1
EndSplineSet
EndChar

StartChar: uniE175
Encoding: 373 57717 373
Width: 0
GlyphClass: 2
Flags: MW
HStem: 319 628<-920 -640>
VStem: -767 124.5
LayerCount: 2
Fore
SplineSet
-770 435 m 1
 -764 803 l 1
 -640 947 l 1
 -645 615 l 1
 -770 435 l 1
-924 459 m 1
 -999 386 l 1
 -920 319 l 1
 -845 391 l 1
 -924 459 l 1
EndSplineSet
EndChar

StartChar: uniE176
Encoding: 374 57718 374
Width: 0
GlyphClass: 2
Flags: MW
HStem: 586 83.5
VStem: -843 401<668 803>
LayerCount: 2
Fore
SplineSet
-442 803 m 1
 -760 801 l 1
 -843 668 l 1
 -531 671 l 1
 -442 803 l 1
-684 586 m 1
 -760 513 l 1
 -681 446 l 1
 -606 518 l 1
 -684 586 l 1
EndSplineSet
EndChar

StartChar: uniE177
Encoding: 375 57719 375
Width: 0
GlyphClass: 2
Flags: MW
HStem: 548.5 254.5
VStem: -925 363
LayerCount: 2
Fore
SplineSet
-878 547 m 1
 -709 803 l 1
 -562 803 l 1
 -729 550 l 1
 -878 547 l 1
-850 475 m 1
 -925 402 l 1
 -846 335 l 1
 -771 407 l 1
 -850 475 l 1
EndSplineSet
EndChar

StartChar: uniE178
Encoding: 376 57720 376
Width: 0
GlyphClass: 2
Flags: MW
HStem: 319 482<-998 -920>
VStem: -999 319<386 527>
LayerCount: 2
Fore
SplineSet
-754 427 m 1
 -998 801 l 1
 -880 800 l 1
 -680 527 l 1
 -754 427 l 1
-924 459 m 1
 -999 386 l 1
 -920 319 l 1
 -845 391 l 1
 -924 459 l 1
EndSplineSet
EndChar

StartChar: uniE179
Encoding: 377 57721 377
Width: 0
GlyphClass: 2
Flags: MW
HStem: 418 389<-871 -556>
VStem: -950 394<485 807>
LayerCount: 2
Fore
SplineSet
-826 803 m 1
 -890 721 l 1
 -744 723 l 1
 -822 593 l 1
 -710 593 l 1
 -556 807 l 1
 -826 803 l 1
-874 558 m 1
 -950 485 l 1
 -871 418 l 1
 -796 490 l 1
 -874 558 l 1
EndSplineSet
EndChar

StartChar: uniE17A
Encoding: 378 57722 378
Width: 0
GlyphClass: 2
Flags: MW
HStem: 619 82<-660 -660>
VStem: -994 434<799 800>
LayerCount: 2
Fore
SplineSet
-560 800 m 1
 -994 799 l 1
 -717 511 l 1
 -660 619 l 1
 -766 701 l 1
 -612 701 l 1
 -560 800 l 1
-878 514 m 1
 -954 441 l 1
 -875 374 l 1
 -800 446 l 1
 -878 514 l 1
EndSplineSet
EndChar

StartChar: uniE17B
Encoding: 379 57723 379
Width: 0
GlyphClass: 2
Flags: MW
HStem: 329 470<-882 -760>
VStem: -885 122
LayerCount: 2
Fore
SplineSet
-680 549 m 1
 -684 717 l 1
 -587 659 l 1
 -564 685 l 1
 -760 799 l 1
 -766 435 l 1
 -680 549 l 1
-885 469 m 1
 -961 396 l 1
 -882 329 l 1
 -807 401 l 1
 -885 469 l 1
EndSplineSet
EndChar

StartChar: uniE17C
Encoding: 380 57724 380
Width: 0
GlyphClass: 2
Flags: MW
HStem: 338 465<-930 -716>
VStem: -816 97.5
LayerCount: 2
Fore
SplineSet
-820 427 m 1
 -812 709 l 1
 -909 651 l 1
 -932 677 l 1
 -716 803 l 1
 -721 559 l 1
 -820 427 l 1
-933 478 m 1
 -1009 405 l 1
 -930 338 l 1
 -855 410 l 1
 -933 478 l 1
EndSplineSet
EndChar

StartChar: uniE17D
Encoding: 381 57725 381
Width: 0
GlyphClass: 2
Flags: MW
HStem: 579 94
VStem: -996 327<577 673>
LayerCount: 2
Fore
SplineSet
-839 800 m 1
 -735 801 l 1
 -820 673 l 1
 -669 673 l 1
 -733 581 l 1
 -996 577 l 1
 -839 800 l 1
-885 538 m 1
 -961 465 l 1
 -882 398 l 1
 -807 470 l 1
 -885 538 l 1
EndSplineSet
EndChar

StartChar: uniE17E
Encoding: 382 57726 382
Width: 0
GlyphClass: 2
Flags: MW
HStem: 532 50
VStem: -990 328<580 676>
LayerCount: 2
Fore
SplineSet
-820 803 m 1
 -924 804 l 1
 -839 676 l 1
 -990 676 l 1
 -926 584 l 1
 -662 580 l 1
 -820 803 l 1
-867 532 m 1
 -943 459 l 1
 -864 392 l 1
 -789 464 l 1
 -867 532 l 1
EndSplineSet
EndChar

StartChar: uniE17F
Encoding: 383 57727 383
Width: 0
GlyphClass: 2
Flags: MW
HStem: 319 700<-920 -681>
VStem: -814.5 125
LayerCount: 2
Fore
SplineSet
-824 399 m 1
 -805 875 l 1
 -681 1019 l 1
 -698 579 l 1
 -824 399 l 1
-924 459 m 1
 -999 386 l 1
 -920 319 l 1
 -845 391 l 1
 -924 459 l 1
EndSplineSet
EndChar

StartChar: uniE180
Encoding: 384 57728 384
Width: 0
GlyphClass: 2
Flags: MW
HStem: 297 722<-921 -484>
VStem: -1000 516
LayerCount: 2
Fore
SplineSet
-972 509 m 1
 -628 1012 l 1
 -484 1019 l 1
 -829 512 l 1
 -972 509 l 1
-925 437 m 1
 -1000 364 l 1
 -921 297 l 1
 -846 369 l 1
 -925 437 l 1
EndSplineSet
EndChar

StartChar: uniE181
Encoding: 385 57729 385
Width: 0
GlyphClass: 2
Flags: MW
HStem: 319 632<-1004 -920>
VStem: -1004 324
LayerCount: 2
Fore
SplineSet
-754 427 m 1
 -1004 951 l 1
 -886 950 l 1
 -680 527 l 1
 -754 427 l 1
-924 459 m 1
 -999 386 l 1
 -920 319 l 1
 -845 391 l 1
 -924 459 l 1
EndSplineSet
EndChar

StartChar: uniE182
Encoding: 386 57730 386
Width: 0
GlyphClass: 2
Flags: MW
HStem: 458 337.38
VStem: -996 372
LayerCount: 2
Fore
SplineSet
-720 475 m 1
 -756 687 -796 767 -996 795 c 1
 -836 799 -716 784 -624 627 c 1
 -720 475 l 1
-914 598 m 1
 -990 525 l 1
 -911 458 l 1
 -836 530 l 1
 -914 598 l 1
EndSplineSet
EndChar

StartChar: uniE183
Encoding: 387 57731 387
Width: 0
GlyphClass: 2
Flags: MW
HStem: 359 500
VStem: -1002 340<426 577>
LayerCount: 2
Fore
SplineSet
-662 577 m 1
 -680 583 -960 659 -988 859 c 1
 -992 699 -891 559 -734 467 c 1
 -662 577 l 1
-926 499 m 1
 -1002 426 l 1
 -923 359 l 1
 -848 431 l 1
 -926 499 l 1
EndSplineSet
EndChar

StartChar: uniE184
Encoding: 388 57732 388
Width: 0
GlyphClass: 2
Flags: MW
HStem: 548.5 121
VStem: -1075 543<668 803>
LayerCount: 2
Fore
SplineSet
-742 803 m 1
 -992 801 l 1
 -1075 668 l 1
 -831 671 l 1
 -742 803 l 1
-848 547 m 1
 -679 803 l 1
 -532 803 l 1
 -699 550 l 1
 -848 547 l 1
-881 475 m 1
 -956 402 l 1
 -877 335 l 1
 -802 407 l 1
 -881 475 l 1
EndSplineSet
EndChar

StartChar: uniE185
Encoding: 389 57733 389
Width: 1000
GlyphClass: 2
Flags: MW
HStem: 1 800<151 844 151 844>
VStem: 151 693
LayerCount: 2
Fore
SplineSet
573 402 m 1
 304 801 l 1
 151 801 l 1
 425 402 l 1
 696 1 l 1
 844 1 l 1
 575 402 l 1
 573 402 l 1
EndSplineSet
EndChar

StartChar: uniE186
Encoding: 390 57734 390
Width: 1000
GlyphClass: 2
Flags: MW
HStem: 1 800<151 841>
VStem: 151 690
LayerCount: 2
Fore
SplineSet
841 1 m 1
 572 399 l 1
 570 399 l 1
 304 801 l 1
 151 801 l 1
 422 399 l 1
 612 127 l 1
 707 28 581 14 489 4 c 1
 841 1 l 1
EndSplineSet
EndChar

StartChar: uniE187
Encoding: 391 57735 391
Width: 1000
GlyphClass: 2
Flags: MW
HStem: 1 800<151 841 151 841>
VStem: 151 690
LayerCount: 2
Fore
SplineSet
379 675 m 1
 285 774 411 788 503 798 c 1
 151 801 l 1
 420 403 l 1
 422 403 l 1
 688 1 l 1
 841 1 l 1
 570 403 l 1
 379 675 l 1
EndSplineSet
EndChar

StartChar: uniE188
Encoding: 392 57736 392
Width: 1000
GlyphClass: 2
Flags: MW
HStem: 1 796<151 839>
VStem: 151 688
LayerCount: 2
Fore
SplineSet
839 1 m 1
 570 399 l 1
 379 671 l 1
 285 770 411 784 503 794 c 1
 151 797 l 1
 420 399 l 1
 610 127 l 1
 705 28 579 14 487 4 c 1
 839 1 l 1
EndSplineSet
EndChar

StartChar: uniE189
Encoding: 393 57737 393
Width: 1000
GlyphClass: 2
Flags: MW
HStem: -99 903
VStem: 154 700
LayerCount: 2
Fore
SplineSet
854 0 m 1
 573 402 l 1
 302 804 l 1
 154 804 l 1
 422 402 l 1
 425 402 l 1
 616 127 l 1
 333 -24 626 -70 744 -99 c 1
 457 -2 610 82 701 0 c 1
 854 0 l 1
EndSplineSet
EndChar

StartChar: uniE18A
Encoding: 394 57738 394
Width: 1000
GlyphClass: 2
Flags: MW
HStem: 1 903
VStem: 154 700
LayerCount: 2
Fore
SplineSet
583 403 m 1
 392 678 l 1
 675 829 382 875 264 904 c 1
 550 807 398 723 307 805 c 1
 154 805 l 1
 435 403 l 1
 706 1 l 1
 854 1 l 1
 586 403 l 1
 583 403 l 1
EndSplineSet
EndChar

StartChar: uniE18B
Encoding: 395 57739 395
Width: 1000
GlyphClass: 2
Flags: MW
HStem: -99 896
VStem: 481.51 81.41
LayerCount: 2
Fore
SplineSet
372 671 m 1
 563 399 l 1
 413 399 l 1
 144 797 l 1
 496 794 l 1
 404 784 278 770 372 671 c 1
686 0 m 1
 595 82 442 -2 729 -99 c 1
 611 -70 318 -24 601 127 c 1
 412 399 l 1
 467 399 515 396 560 399 c 1
 839 0 l 1
 686 0 l 1
EndSplineSet
EndChar

StartChar: uniE18C
Encoding: 396 57740 396
Width: 1000
GlyphClass: 2
Flags: MW
HStem: 1 896
VStem: 419.64 81.82
LayerCount: 2
Fore
SplineSet
571 399 m 1
 516 399 468 402 423 399 c 1
 144 798 l 1
 297 798 l 1
 388 716 540 800 254 897 c 1
 372 868 665 822 382 671 c 1
 571 399 l 1
487 4 m 1
 579 14 705 28 610 127 c 1
 420 399 l 1
 570 399 l 1
 839 1 l 1
 487 4 l 1
EndSplineSet
EndChar

StartChar: uniE18D
Encoding: 397 57741 397
Width: 1000
GlyphClass: 2
Flags: MW
HStem: -2 900<151 844 151 844>
VStem: 151 693
LayerCount: 2
Fore
SplineSet
573 449 m 1
 304 898 l 1
 151 898 l 1
 425 449 l 1
 696 -2 l 1
 844 -2 l 1
 575 449 l 1
 573 449 l 1
EndSplineSet
EndChar

StartChar: uniE18E
Encoding: 398 57742 398
Width: 1000
GlyphClass: 2
Flags: MW
HStem: 1 900<151 841>
VStem: 151 690
LayerCount: 2
Fore
SplineSet
841 1 m 1
 572 449 l 1
 570 449 l 1
 304 901 l 1
 151 901 l 1
 422 449 l 1
 612 143 l 1
 707 31 581 16 489 4 c 1
 841 1 l 1
EndSplineSet
EndChar

StartChar: uniE18F
Encoding: 399 57743 399
Width: 1000
GlyphClass: 2
Flags: MW
HStem: 1 900<151 841 151 841>
VStem: 151 690
LayerCount: 2
Fore
SplineSet
379 759 m 1
 285 871 411 886 503 898 c 1
 151 901 l 1
 420 453 l 1
 422 453 l 1
 688 1 l 1
 841 1 l 1
 570 453 l 1
 379 759 l 1
EndSplineSet
EndChar

StartChar: uniE190
Encoding: 400 57744 400
Width: 1000
GlyphClass: 2
Flags: MW
HStem: 1 896<151 839>
VStem: 151 688
LayerCount: 2
Fore
SplineSet
839 1 m 1
 570 449 l 1
 379 755 l 1
 285 866 411 882 503 893 c 1
 151 897 l 1
 420 449 l 1
 610 143 l 1
 705 32 579 16 487 5 c 1
 839 1 l 1
EndSplineSet
EndChar

StartChar: uniE191
Encoding: 401 57745 401
Width: 1000
GlyphClass: 2
Flags: MW
HStem: -105 1015
VStem: 154 700
LayerCount: 2
Fore
SplineSet
854 6 m 1
 573 458 l 1
 302 910 l 1
 154 910 l 1
 422 458 l 1
 425 458 l 1
 616 149 l 1
 333 -21 626 -72 744 -105 c 1
 457 3 610 98 701 6 c 1
 854 6 l 1
EndSplineSet
EndChar

StartChar: uniE192
Encoding: 402 57746 402
Width: 1000
GlyphClass: 2
Flags: MW
HStem: -5 1015
VStem: 154 700
LayerCount: 2
Fore
SplineSet
583 447 m 1
 392 756 l 1
 675 926 382 977 264 1010 c 1
 550 902 398 807 307 899 c 1
 154 899 l 1
 435 447 l 1
 706 -5 l 1
 854 -5 l 1
 586 447 l 1
 583 447 l 1
EndSplineSet
EndChar

StartChar: uniE193
Encoding: 403 57747 403
Width: 1000
GlyphClass: 2
Flags: MW
HStem: -105 1008
VStem: 481.51 81.41
LayerCount: 2
Fore
SplineSet
372 761 m 1
 563 455 l 1
 413 455 l 1
 144 903 l 1
 496 900 l 1
 404 888 278 873 372 761 c 1
686 6 m 1
 595 98 442 4 729 -105 c 1
 611 -72 318 -21 601 149 c 1
 412 455 l 1
 467 455 515 452 560 455 c 1
 839 6 l 1
 686 6 l 1
EndSplineSet
EndChar

StartChar: uniE194
Encoding: 404 57748 404
Width: 1000
GlyphClass: 2
Flags: MW
HStem: -5 1008
VStem: 419.64 81.82
LayerCount: 2
Fore
SplineSet
571 443 m 1
 516 443 468 446 423 443 c 1
 144 892 l 1
 297 892 l 1
 388 800 540 894 254 1003 c 1
 372 970 665 919 382 749 c 1
 571 443 l 1
487 -2 m 1
 579 10 705 25 610 137 c 1
 420 443 l 1
 570 443 l 1
 839 -5 l 1
 487 -2 l 1
EndSplineSet
EndChar

StartChar: uniE195
Encoding: 405 57749 405
Width: 1000
GlyphClass: 2
Flags: MW
HStem: -97 900<151 844 151 844>
VStem: 151 693
LayerCount: 2
Fore
SplineSet
573 354 m 1
 304 803 l 1
 151 803 l 1
 425 354 l 1
 696 -97 l 1
 844 -97 l 1
 575 354 l 1
 573 354 l 1
EndSplineSet
EndChar

StartChar: uniE196
Encoding: 406 57750 406
Width: 1000
GlyphClass: 2
Flags: MW
HStem: -99 900<151 841>
VStem: 151 690
LayerCount: 2
Fore
SplineSet
841 -99 m 1
 572 349 l 1
 570 349 l 1
 304 801 l 1
 151 801 l 1
 422 349 l 1
 612 43 l 1
 707 -69 581 -84 489 -96 c 1
 841 -99 l 1
EndSplineSet
EndChar

StartChar: uniE197
Encoding: 407 57751 407
Width: 1000
GlyphClass: 2
Flags: MW
HStem: -99 900<151 841 151 841>
VStem: 151 690
LayerCount: 2
Fore
SplineSet
379 659 m 1
 285 771 411 786 503 798 c 1
 151 801 l 1
 420 353 l 1
 422 353 l 1
 688 -99 l 1
 841 -99 l 1
 570 353 l 1
 379 659 l 1
EndSplineSet
EndChar

StartChar: uniE198
Encoding: 408 57752 408
Width: 1000
GlyphClass: 2
Flags: MW
HStem: -99 896<151 839>
VStem: 151 688
LayerCount: 2
Fore
SplineSet
839 -99 m 1
 570 349 l 1
 379 655 l 1
 285 766 411 782 503 793 c 1
 151 797 l 1
 420 349 l 1
 610 43 l 1
 705 -68 579 -84 487 -95 c 1
 839 -99 l 1
EndSplineSet
EndChar

StartChar: uniE199
Encoding: 409 57753 409
Width: 1000
GlyphClass: 2
Flags: MW
HStem: -205 1015
VStem: 154 700
LayerCount: 2
Fore
SplineSet
854 -94 m 1
 573 358 l 1
 302 810 l 1
 154 810 l 1
 422 358 l 1
 425 358 l 1
 616 49 l 1
 333 -121 626 -172 744 -205 c 1
 457 -97 610 -2 701 -94 c 1
 854 -94 l 1
EndSplineSet
EndChar

StartChar: uniE19A
Encoding: 410 57754 410
Width: 1000
GlyphClass: 2
Flags: MW
HStem: -105 1015
VStem: 154 700
LayerCount: 2
Fore
SplineSet
583 347 m 1
 392 656 l 1
 675 826 382 877 264 910 c 1
 550 802 398 707 307 799 c 1
 154 799 l 1
 435 347 l 1
 706 -105 l 1
 854 -105 l 1
 586 347 l 1
 583 347 l 1
EndSplineSet
EndChar

StartChar: uniE19B
Encoding: 411 57755 411
Width: 1000
GlyphClass: 2
Flags: MW
HStem: -205 1008
VStem: 481.51 81.41
LayerCount: 2
Fore
SplineSet
372 661 m 1
 563 355 l 1
 413 355 l 1
 144 803 l 1
 496 800 l 1
 404 788 278 773 372 661 c 1
686 -94 m 1
 595 -2 442 -96 729 -205 c 1
 611 -172 318 -121 601 49 c 1
 412 355 l 1
 467 355 515 352 560 355 c 1
 839 -94 l 1
 686 -94 l 1
EndSplineSet
EndChar

StartChar: uniE19C
Encoding: 412 57756 412
Width: 1000
GlyphClass: 2
Flags: MW
HStem: -105 1008
VStem: 419.64 81.82
LayerCount: 2
Fore
SplineSet
571 343 m 1
 516 343 468 346 423 343 c 1
 144 792 l 1
 297 792 l 1
 388 700 540 794 254 903 c 1
 372 870 665 819 382 649 c 1
 571 343 l 1
487 -102 m 1
 579 -90 705 -75 610 37 c 1
 420 343 l 1
 570 343 l 1
 839 -105 l 1
 487 -102 l 1
EndSplineSet
EndChar

StartChar: uniE19D
Encoding: 413 57757 413
Width: 1000
GlyphClass: 2
Flags: MW
HStem: -99 1000<151 844 151 844>
VStem: 151 693
LayerCount: 2
Fore
SplineSet
573 402 m 1
 304 901 l 1
 151 901 l 1
 425 402 l 1
 696 -99 l 1
 844 -99 l 1
 575 402 l 1
 573 402 l 1
EndSplineSet
EndChar

StartChar: uniE19E
Encoding: 414 57758 414
Width: 1000
GlyphClass: 2
Flags: MW
HStem: -99 1000<151 841>
VStem: 151 690
LayerCount: 2
Fore
SplineSet
841 -99 m 1
 572 399 l 1
 570 399 l 1
 304 901 l 1
 151 901 l 1
 422 399 l 1
 612 59 l 1
 707 -65 581 -82 489 -95 c 1
 841 -99 l 1
EndSplineSet
EndChar

StartChar: uniE19F
Encoding: 415 57759 415
Width: 1000
GlyphClass: 2
Flags: MW
HStem: -99 1000<151 841 151 841>
VStem: 151 690
LayerCount: 2
Fore
SplineSet
379 744 m 1
 285 867 411 884 503 897 c 1
 151 901 l 1
 420 404 l 1
 422 404 l 1
 688 -99 l 1
 841 -99 l 1
 570 404 l 1
 379 744 l 1
EndSplineSet
EndChar

StartChar: uniE1A0
Encoding: 416 57760 416
Width: 1000
GlyphClass: 2
Flags: MW
HStem: -99 996<151 839>
VStem: 151 688
LayerCount: 2
Fore
SplineSet
839 -99 m 1
 570 399 l 1
 379 739 l 1
 285 863 411 880 503 893 c 1
 151 897 l 1
 420 399 l 1
 610 59 l 1
 705 -65 579 -82 487 -95 c 1
 839 -99 l 1
EndSplineSet
EndChar

StartChar: uniE1A1
Encoding: 417 57761 417
Width: 1000
GlyphClass: 2
Flags: MW
HStem: -212 1129
VStem: 154 700
LayerCount: 2
Fore
SplineSet
854 -88 m 1
 573 414 l 1
 302 917 l 1
 154 917 l 1
 422 414 l 1
 425 414 l 1
 616 71 l 1
 333 -118 626 -175 744 -212 c 1
 457 -91 610 14 701 -88 c 1
 854 -88 l 1
EndSplineSet
EndChar

StartChar: uniE1A2
Encoding: 418 57762 418
Width: 1000
GlyphClass: 2
Flags: MW
HStem: -112 1129
VStem: 154 700
LayerCount: 2
Fore
SplineSet
583 391 m 1
 392 734 l 1
 675 923 382 980 264 1017 c 1
 550 896 398 791 307 893 c 1
 154 893 l 1
 435 391 l 1
 706 -112 l 1
 854 -112 l 1
 586 391 l 1
 583 391 l 1
EndSplineSet
EndChar

StartChar: uniE1A3
Encoding: 419 57763 419
Width: 1000
GlyphClass: 2
Flags: MW
HStem: -211 1120
VStem: 481.51 81.41
LayerCount: 2
Fore
SplineSet
372 752 m 1
 563 412 l 1
 413 412 l 1
 144 909 l 1
 496 905 l 1
 404 892 278 875 372 752 c 1
686 -87 m 1
 595 15 442 -90 729 -211 c 1
 611 -174 318 -117 601 72 c 1
 412 412 l 1
 467 412 515 408 560 412 c 1
 839 -87 l 1
 686 -87 l 1
EndSplineSet
EndChar

StartChar: uniE1A4
Encoding: 420 57764 420
Width: 1000
GlyphClass: 2
Flags: MW
HStem: -111 1120
VStem: 419.64 81.82
LayerCount: 2
Fore
SplineSet
571 387 m 1
 516 387 468 390 423 387 c 1
 144 885 l 1
 297 885 l 1
 388 783 540 888 254 1009 c 1
 372 972 665 915 382 727 c 1
 571 387 l 1
487 -107 m 1
 579 -94 705 -77 610 47 c 1
 420 387 l 1
 570 387 l 1
 839 -111 l 1
 487 -107 l 1
EndSplineSet
EndChar

StartChar: uniE1A5
Encoding: 421 57765 421
Width: 1000
GlyphClass: 2
Flags: MW
HStem: -3 804<237 784 237 784>
VStem: 237 547
LayerCount: 2
Fore
SplineSet
665 399 m 1
 389 801 l 1
 237 801 l 1
 518 399 l 1
 665 399 l 1
784 -3 m 1
 518 399 l 1
 365 399 l 1
 636 -3 l 1
 784 -3 l 1
EndSplineSet
EndChar

StartChar: uniE1A6
Encoding: 422 57766 422
Width: 1000
GlyphClass: 2
Flags: HMW
HStem: 1 800<236 784>
VStem: 236 548
LayerCount: 2
Fore
SplineSet
389 801 m 1
 236 801 l 1
 517 399 l 1
 665 399 l 1
 389 801 l 1
784 1 m 1
 515 399 l 5
 365 399 l 5
 555 127 l 5
 650 28 524 14 432 4 c 5
 784 1 l 1
EndSplineSet
EndChar

StartChar: uniE1A7
Encoding: 423 57767 423
Width: 1000
GlyphClass: 2
Flags: MW
HStem: 1 800<236 784 236 784>
VStem: 236 548
LayerCount: 2
Fore
SplineSet
655 403 m 1
 464 675 l 1
 370 774 496 788 588 798 c 1
 236 801 l 1
 505 403 l 1
 655 403 l 1
355 403 m 1
 631 1 l 1
 784 1 l 1
 503 403 l 1
 355 403 l 1
EndSplineSet
EndChar

StartChar: uniE1A8
Encoding: 424 57768 424
Width: 1000
GlyphClass: 2
Flags: MW
HStem: 1 797<236 774>
VStem: 236 538
LayerCount: 2
Fore
SplineSet
655 400 m 1
 464 672 l 1
 370 771 496 785 588 795 c 1
 236 798 l 1
 505 400 l 1
 655 400 l 1
774 1 m 1
 505 399 l 1
 355 399 l 1
 545 127 l 1
 640 28 514 14 422 4 c 1
 774 1 l 1
EndSplineSet
EndChar

StartChar: uniE1A9
Encoding: 425 57769 425
Width: 1000
GlyphClass: 2
Flags: MW
HStem: -100 904
VStem: 219 555
LayerCount: 2
Fore
SplineSet
366 804 m 1
 219 804 l 1
 497 402 l 1
 647 402 l 1
 366 804 l 1
774 -1 m 1
 493 401 l 1
 345 401 l 1
 536 126 l 1
 253 -25 546 -71 664 -100 c 1
 377 -3 530 81 621 -1 c 1
 774 -1 l 1
EndSplineSet
EndChar

StartChar: uniE1AA
Encoding: 426 57770 426
Width: 1000
GlyphClass: 2
Flags: HMW
HStem: -100 904
VStem: 219 555
LayerCount: 2
Fore
SplineSet
219 705 m 5
 500 303 l 5
 647 303 l 5
 456 578 l 5
 740 729 446 775 328 804 c 5
 615 707 462 623 371 705 c 5
 219 705 l 5
345 302 m 1
 626 -100 l 1
 774 -100 l 1
 495 302 l 1
 345 302 l 1
EndSplineSet
EndChar

StartChar: uniE1AB
Encoding: 427 57771 427
Width: 1000
GlyphClass: 2
Flags: MW
HStem: -100 898
VStem: 234 530
LayerCount: 2
Fore
SplineSet
462 672 m 1
 368 771 493 785 585 795 c 1
 234 798 l 1
 503 400 l 1
 652 400 l 1
 462 672 l 1
764 -1 m 1
 503 400 l 1
 335 401 l 1
 526 126 l 1
 243 -25 536 -71 654 -100 c 1
 367 -3 520 81 611 -1 c 1
 764 -1 l 1
EndSplineSet
EndChar

StartChar: uniE1AC
Encoding: 428 57772 428
Width: 1000
GlyphClass: 2
Flags: HMW
HStem: 0 898
VStem: 234 530
LayerCount: 2
Fore
SplineSet
343 898 m 1
 630 801 477 717 386 799 c 1
 234 799 l 1
 495 398 l 5
 662 397 l 1
 471 672 l 1
 755 823 461 869 343 898 c 1
764 0 m 5
 495 398 l 1
 345 398 l 5
 535 126 l 5
 630 27 504 13 412 3 c 5
 764 0 l 5
EndSplineSet
EndChar

StartChar: uniE1AD
Encoding: 429 57773 429
Width: 1000
GlyphClass: 2
Flags: MW
HStem: 3 897<225 855 225 855>
VStem: 225 630
LayerCount: 2
Fore
SplineSet
725 399 m 1
 378 900 l 1
 225 900 l 1
 578 399 l 1
 427 399 l 1
 708 3 l 1
 855 3 l 1
 579 399 l 1
 725 399 l 1
EndSplineSet
EndChar

StartChar: uniE1AE
Encoding: 430 57774 430
Width: 1000
GlyphClass: 2
Flags: MW
HStem: -1 901<306 925>
VStem: 306 619
LayerCount: 2
Fore
SplineSet
806 397 m 1
 459 900 l 1
 306 900 l 1
 659 397 l 1
 806 397 l 1
925 -1 m 1
 656 397 l 1
 507 397 l 1
 697 125 l 1
 791 26 665 12 574 2 c 1
 925 -1 l 1
EndSplineSet
EndChar

StartChar: uniE1AF
Encoding: 431 57775 431
Width: 1000
GlyphClass: 2
Flags: MW
HStem: -1 896<219 799 219 799>
VStem: 219 580
LayerCount: 2
Fore
SplineSet
668 399 m 1
 447 738 l 1
 353 861 479 878 571 891 c 1
 219 895 l 1
 518 399 l 1
 668 399 l 1
367 399 m 1
 647 -1 l 1
 799 -1 l 1
 515 399 l 1
 367 399 l 1
EndSplineSet
EndChar

StartChar: uniE1B0
Encoding: 432 57776 432
Width: 1000
GlyphClass: 2
Flags: MW
HStem: -1 896<196 759>
VStem: 196 563
LayerCount: 2
Fore
SplineSet
424 738 m 1
 330 861 456 878 548 891 c 1
 196 895 l 1
 495 399 l 1
 645 399 l 1
 424 738 l 1
759 -1 m 1
 490 397 l 1
 341 397 l 1
 531 125 l 1
 625 26 499 12 408 2 c 1
 759 -1 l 1
EndSplineSet
EndChar

StartChar: uniE1B1
Encoding: 433 57777 433
Width: 1000
GlyphClass: 2
Flags: MW
HStem: -100 1000
VStem: 244 609
LayerCount: 2
Fore
SplineSet
396 900 m 1
 244 900 l 1
 596 399 l 1
 744 399 l 1
 396 900 l 1
853 -1 m 1
 592 400 l 1
 425 401 l 1
 616 126 l 1
 332 -25 625 -71 744 -100 c 1
 457 -3 609 81 701 -1 c 1
 853 -1 l 1
EndSplineSet
EndChar

StartChar: uniE1B2
Encoding: 434 57778 434
Width: 1000
GlyphClass: 2
Flags: MW
HStem: 3 1001<259 785 259 785>
VStem: 149 636
LayerCount: 2
Fore
SplineSet
578 503 m 1
 387 778 l 1
 471 812 l 1
 467 918 l 1
 380 974 l 1
 259 1004 l 1
 357 908 l 1
 321 878 l 1
 302 905 l 1
 149 905 l 1
 429 504 l 1
 285 504 l 1
 633 3 l 1
 785 3 l 1
 434 503 l 1
 578 503 l 1
EndSplineSet
EndChar

StartChar: uniE1B3
Encoding: 435 57779 435
Width: 1000
GlyphClass: 2
Flags: MW
HStem: -101 1025<219 689>
VStem: 219 579
LayerCount: 2
Fore
SplineSet
672 396 m 1
 406 839 l 1
 484 885 l 1
 574 902 l 1
 219 924 l 1
 520 396 l 1
 672 396 l 1
646 -2 m 1
 798 -2 l 1
 517 398 l 1
 370 398 l 1
 561 125 l 1
 477 91 l 1
 481 -15 l 1
 568 -71 l 1
 689 -101 l 1
 591 -5 l 1
 627 25 l 1
 646 -2 l 1
EndSplineSet
EndChar

StartChar: uniE1B4
Encoding: 436 57780 436
Width: 1000
GlyphClass: 2
Flags: MW
HStem: -1 1005<319 849>
VStem: 209 640
LayerCount: 2
Fore
SplineSet
209 905 m 1
 566 399 l 1
 713 399 l 1
 447 778 l 1
 531 812 l 1
 527 918 l 1
 440 974 l 1
 319 1004 l 1
 417 908 l 1
 381 878 l 1
 362 905 l 1
 209 905 l 1
849 -1 m 1
 563 403 l 1
 411 403 l 1
 652 64 l 1
 574 18 l 1
 485 1 l 1
 849 -1 l 1
EndSplineSet
EndChar

StartChar: uniE1B5
Encoding: 437 57781 437
Width: 1000
GlyphClass: 2
Flags: MW
HStem: -97 897<225 855 225 855>
VStem: 225 630
LayerCount: 2
Fore
SplineSet
654 404 m 1
 373 800 l 1
 225 800 l 1
 501 404 l 1
 355 404 l 1
 703 -97 l 1
 855 -97 l 1
 503 404 l 1
 654 404 l 1
EndSplineSet
EndChar

StartChar: uniE1B6
Encoding: 438 57782 438
Width: 1000
GlyphClass: 2
Flags: MW
HStem: -99 900<157 784>
VStem: 157 627
LayerCount: 2
Fore
SplineSet
784 -99 m 1
 441 399 l 1
 586 399 l 1
 310 801 l 1
 157 801 l 1
 438 399 l 1
 288 399 l 1
 597 -33 l 1
 519 -79 l 1
 429 -96 l 1
 784 -99 l 1
EndSplineSet
EndChar

StartChar: uniE1B7
Encoding: 439 57783 439
Width: 1000
GlyphClass: 2
Flags: MW
HStem: -99 900<147 774 147 774>
VStem: 147 627
LayerCount: 2
Fore
SplineSet
576 399 m 1
 334 735 l 1
 412 781 l 1
 502 798 l 1
 147 801 l 1
 423 399 l 1
 278 399 l 1
 621 -99 l 1
 774 -99 l 1
 426 399 l 1
 576 399 l 1
EndSplineSet
EndChar

StartChar: uniE1B8
Encoding: 440 57784 440
Width: 1000
GlyphClass: 2
Flags: MW
HStem: -101 901<157 783>
VStem: 157 626
LayerCount: 2
Fore
SplineSet
783 -101 m 1
 442 399 l 1
 594 399 l 1
 344 735 l 1
 422 781 l 1
 512 798 l 1
 157 800 l 1
 438 403 l 1
 286 403 l 1
 596 -36 l 1
 518 -82 l 1
 429 -99 l 1
 783 -101 l 1
EndSplineSet
EndChar

StartChar: uniE1B9
Encoding: 441 57785 441
Width: 1000
GlyphClass: 2
Flags: MW
HStem: -199 1001<147 671>
VStem: 147 633
LayerCount: 2
Fore
SplineSet
628 -100 m 1
 780 -100 l 1
 430 398 l 1
 577 398 l 1
 300 802 l 1
 147 802 l 1
 428 399 l 1
 281 399 l 1
 543 27 l 1
 459 -7 l 1
 463 -113 l 1
 550 -169 l 1
 671 -199 l 1
 573 -103 l 1
 609 -73 l 1
 628 -100 l 1
EndSplineSet
EndChar

StartChar: uniE1BA
Encoding: 442 57786 442
Width: 1000
GlyphClass: 2
Flags: MW
HStem: -100 1001<252 778 252 778>
VStem: 142 636
LayerCount: 2
Fore
SplineSet
571 400 m 1
 380 675 l 1
 464 709 l 1
 460 815 l 1
 373 871 l 1
 252 901 l 1
 350 805 l 1
 314 775 l 1
 295 802 l 1
 142 802 l 1
 422 401 l 1
 278 401 l 1
 626 -100 l 1
 778 -100 l 1
 427 400 l 1
 571 400 l 1
EndSplineSet
EndChar

StartChar: uniE1BB
Encoding: 443 57787 443
Width: 1000
GlyphClass: 2
Flags: MW
HStem: -184 1005<175 654>
VStem: 175 589
LayerCount: 2
Fore
SplineSet
611 -85 m 1
 764 -85 l 1
 438 399 l 1
 583 399 l 1
 362 756 l 1
 440 802 l 1
 529 819 l 1
 175 821 l 1
 430 399 l 1
 290 399 l 1
 526 42 l 1
 442 8 l 1
 446 -98 l 1
 533 -154 l 1
 654 -184 l 1
 556 -88 l 1
 592 -58 l 1
 611 -85 l 1
EndSplineSet
EndChar

StartChar: uniE1BC
Encoding: 444 57788 444
Width: 1000
GlyphClass: 2
Flags: HMW
HStem: -108 1006<263 784>
VStem: 154 630
LayerCount: 2
Fore
SplineSet
784 -108 m 1
 437 400 l 1
 585 400 l 5
 391 672 l 1
 475 706 l 1
 471 812 l 1
 384 868 l 1
 263 898 l 1
 361 802 l 1
 325 772 l 1
 306 799 l 1
 154 799 l 1
 435 403 l 1
 282 403 l 1
 597 -43 l 1
 519 -89 l 1
 429 -106 l 1
 784 -108 l 1
EndSplineSet
EndChar

StartChar: uniE1BD
Encoding: 445 57789 445
Width: 1000
GlyphClass: 2
Flags: MW
HStem: -96 996<157 855 157 855>
VStem: 157 698
LayerCount: 2
Fore
SplineSet
657 399 m 1
 309 900 l 1
 157 900 l 1
 509 399 l 1
 359 399 l 1
 708 -96 l 1
 855 -96 l 1
 512 399 l 1
 657 399 l 1
EndSplineSet
EndChar

StartChar: uniE1BE
Encoding: 446 57790 446
Width: 1000
GlyphClass: 2
Flags: MW
HStem: -102 1002<156 855>
VStem: 156 699
LayerCount: 2
Fore
SplineSet
309 900 m 1
 156 900 l 1
 509 399 l 1
 656 399 l 1
 309 900 l 1
855 -102 m 1
 516 397 l 1
 364 397 l 1
 668 -37 l 1
 590 -83 l 1
 501 -100 l 1
 855 -102 l 1
EndSplineSet
EndChar

StartChar: uniE1BF
Encoding: 447 57791 447
Width: 1000
GlyphClass: 2
Flags: MW
HStem: -102 1002<146 835 146 835>
VStem: 146 689
LayerCount: 2
Fore
SplineSet
333 835 m 1
 411 881 l 1
 501 898 l 1
 146 900 l 1
 493 405 l 1
 645 405 l 1
 333 835 l 1
343 406 m 1
 683 -102 l 1
 835 -102 l 1
 490 406 l 1
 343 406 l 1
EndSplineSet
EndChar

StartChar: uniE1C0
Encoding: 448 57792 448
Width: 1000
GlyphClass: 2
Flags: MW
HStem: -102 1002<147 846>
VStem: 147 699
LayerCount: 2
Fore
SplineSet
652 399 m 1
 334 835 l 1
 412 881 l 1
 502 898 l 1
 147 900 l 1
 500 399 l 1
 652 399 l 1
846 -102 m 1
 497 403 l 1
 345 403 l 1
 659 -37 l 1
 581 -83 l 1
 492 -100 l 1
 846 -102 l 1
EndSplineSet
EndChar

StartChar: uniE1C1
Encoding: 449 57793 449
Width: 1000
GlyphClass: 2
Flags: MW
HStem: -198 1098<166 756>
VStem: 166 699
LayerCount: 2
Fore
SplineSet
713 -99 m 1
 865 -99 l 1
 522 399 l 1
 666 399 l 1
 319 900 l 1
 166 900 l 1
 518 400 l 1
 374 400 l 1
 628 28 l 1
 544 -6 l 1
 548 -112 l 1
 635 -168 l 1
 756 -198 l 1
 658 -102 l 1
 694 -72 l 1
 713 -99 l 1
EndSplineSet
EndChar

StartChar: uniE1C2
Encoding: 450 57794 450
Width: 1000
GlyphClass: 2
Flags: MW
HStem: -99 1103<260 855 260 855>
VStem: 150 705
LayerCount: 2
Fore
SplineSet
150 905 m 1
 503 399 l 1
 650 399 l 1
 388 778 l 1
 472 812 l 1
 468 918 l 1
 381 974 l 1
 260 1004 l 1
 358 908 l 1
 322 878 l 1
 303 905 l 1
 150 905 l 1
348 400 m 1
 703 -99 l 1
 855 -99 l 1
 495 400 l 1
 348 400 l 1
EndSplineSet
EndChar

StartChar: uniE1C3
Encoding: 451 57795 451
Width: 1000
GlyphClass: 2
Flags: MW
HStem: -196 1100<149 689>
VStem: 149 649
LayerCount: 2
Fore
SplineSet
646 -97 m 1
 798 -97 l 1
 456 396 l 1
 602 396 l 1
 336 839 l 1
 274 885 l 1
 504 902 l 1
 149 904 l 1
 448 399 l 1
 307 399 l 1
 561 30 l 1
 477 -4 l 1
 481 -110 l 1
 568 -166 l 1
 689 -196 l 1
 591 -100 l 1
 627 -70 l 1
 646 -97 l 1
EndSplineSet
EndChar

StartChar: uniE1C4
Encoding: 452 57796 452
Width: 1000
GlyphClass: 2
Flags: MW
HStem: -99 1103<255 859>
VStem: 145 714
LayerCount: 2
Fore
SplineSet
859 -99 m 1
 513 397 l 1
 649 397 l 1
 383 778 l 1
 467 812 l 1
 463 918 l 1
 376 974 l 1
 255 1004 l 1
 353 908 l 1
 317 878 l 1
 298 905 l 1
 145 905 l 1
 498 403 l 1
 357 403 l 1
 672 -34 l 1
 594 -80 l 1
 505 -97 l 1
 859 -99 l 1
EndSplineSet
EndChar

StartChar: uniE1C5
Encoding: 453 57797 453
Width: 1000
GlyphClass: 2
Flags: MW
HStem: -3 804<287 734 287 734>
VStem: 287 447
LayerCount: 2
Fore
SplineSet
715 399 m 1
 439 801 l 1
 287 801 l 1
 568 399 l 1
 715 399 l 1
734 -3 m 1
 468 399 l 1
 315 399 l 1
 586 -3 l 1
 734 -3 l 1
EndSplineSet
EndChar

StartChar: uniE1C6
Encoding: 454 57798 454
Width: 1000
GlyphClass: 2
Flags: MW
HStem: -3 804<274 724>
VStem: 274 450
LayerCount: 2
Fore
SplineSet
703 399 m 1
 427 801 l 1
 274 801 l 1
 555 399 l 1
 703 399 l 1
724 -3 m 1
 448 399 l 1
 295 399 l 1
 537 63 l 1
 459 17 l 1
 369 0 l 1
 724 -3 l 1
EndSplineSet
EndChar

StartChar: uniE1C7
Encoding: 455 57799 455
Width: 1000
GlyphClass: 2
Flags: MW
HStem: -3 804<264 724 264 724>
VStem: 264 460
LayerCount: 2
Fore
SplineSet
264 801 m 1
 540 399 l 1
 693 399 l 1
 451 735 l 1
 529 781 l 1
 619 798 l 1
 264 801 l 1
295 399 m 1
 571 -3 l 1
 724 -3 l 1
 443 399 l 1
 295 399 l 1
EndSplineSet
EndChar

StartChar: uniE1C8
Encoding: 456 57800 456
Width: 1000
GlyphClass: 2
Flags: MW
HStem: -3 803<273 369>
VStem: 273 451
LayerCount: 2
Fore
SplineSet
702 396 m 1
 460 735 l 1
 538 781 l 1
 628 798 l 1
 273 800 l 1
 549 396 l 1
 702 396 l 1
724 0 m 1
 448 396 l 1
 295 396 l 1
 537 60 l 1
 459 14 l 1
 369 -3 l 1
 724 0 l 1
EndSplineSet
EndChar

StartChar: uniE1C9
Encoding: 457 57801 457
Width: 1000
GlyphClass: 2
Flags: MW
HStem: -99 933<264 604>
VStem: 264 450
LayerCount: 2
Fore
SplineSet
264 834 m 1
 540 402 l 1
 693 402 l 1
 412 834 l 1
 264 834 l 1
285 402 m 1
 476 127 l 1
 392 93 l 1
 396 -13 l 1
 483 -69 l 1
 604 -99 l 1
 506 -3 l 1
 542 27 l 1
 561 0 l 1
 714 0 l 1
 433 402 l 1
 285 402 l 1
EndSplineSet
EndChar

StartChar: uniE1CA
Encoding: 458 57802 458
Width: 1000
GlyphClass: 2
Flags: MW
HStem: -3 903<382 724 382 724>
VStem: 272 452
LayerCount: 2
Fore
SplineSet
701 399 m 1
 510 674 l 1
 594 708 l 1
 590 814 l 1
 503 870 l 1
 382 900 l 1
 480 804 l 1
 444 774 l 1
 425 801 l 1
 272 801 l 1
 553 399 l 1
 701 399 l 1
724 -3 m 1
 448 399 l 1
 295 399 l 1
 576 -3 l 1
 724 -3 l 1
EndSplineSet
EndChar

StartChar: uniE1CB
Encoding: 459 57803 459
Width: 1000
GlyphClass: 2
Flags: MW
HStem: -101 951<269 624>
VStem: 269 465
LayerCount: 2
Fore
SplineSet
698 396 m 1
 456 785 l 1
 534 831 l 1
 624 848 l 1
 269 850 l 1
 545 396 l 1
 698 396 l 1
581 -2 m 1
 734 -2 l 1
 453 398 l 1
 305 398 l 1
 496 125 l 1
 412 91 l 1
 416 -15 l 1
 503 -71 l 1
 624 -101 l 1
 526 -5 l 1
 562 25 l 1
 581 -2 l 1
EndSplineSet
EndChar

StartChar: uniE1CC
Encoding: 460 57804 460
Width: 1000
GlyphClass: 2
Flags: MW
HStem: -1 871<379 727>
VStem: 269 458
LayerCount: 2
Fore
SplineSet
269 771 m 1
 550 396 l 1
 698 399 l 1
 507 644 l 1
 591 678 l 1
 587 784 l 1
 500 840 l 1
 379 870 l 1
 477 774 l 1
 441 744 l 1
 422 771 l 1
 269 771 l 1
727 -1 m 1
 451 400 l 1
 298 400 l 1
 540 64 l 1
 462 18 l 1
 372 1 l 1
 727 -1 l 1
EndSplineSet
EndChar

StartChar: uniE1CD
Encoding: 461 57805 461
Width: 1000
GlyphClass: 2
Flags: MW
HStem: 1 899<275 805 275 805>
VStem: 275 530
LayerCount: 2
Fore
SplineSet
775 399 m 1
 428 900 l 1
 275 900 l 1
 628 399 l 1
 775 399 l 1
805 1 m 1
 529 399 l 1
 377 399 l 1
 658 1 l 1
 805 1 l 1
EndSplineSet
EndChar

StartChar: uniE1CE
Encoding: 462 57806 462
Width: 1000
GlyphClass: 2
Flags: MW
HStem: 0 900<338 855>
VStem: 338 517
LayerCount: 2
Fore
SplineSet
491 900 m 1
 338 900 l 1
 691 399 l 1
 838 399 l 1
 491 900 l 1
855 0 m 1
 589 397 l 1
 437 397 l 1
 668 65 l 1
 590 19 l 1
 501 2 l 1
 855 0 l 1
EndSplineSet
EndChar

StartChar: uniE1CF
Encoding: 463 57807 463
Width: 1000
GlyphClass: 2
Flags: MW
HStem: -1 901<269 815 269 815>
VStem: 269 546
LayerCount: 2
Fore
SplineSet
269 900 m 1
 642 399 l 1
 797 399 l 1
 456 835 l 1
 534 881 l 1
 624 898 l 1
 269 900 l 1
383 399 m 1
 663 -1 l 1
 815 -1 l 1
 531 399 l 1
 383 399 l 1
EndSplineSet
EndChar

StartChar: uniE1D0
Encoding: 464 57808 464
Width: 1000
GlyphClass: 2
Flags: MW
HStem: -3 903<329 845>
VStem: 329 516
LayerCount: 2
Fore
SplineSet
516 835 m 1
 594 881 l 1
 684 898 l 1
 329 900 l 1
 682 399 l 1
 834 399 l 1
 516 835 l 1
845 -3 m 1
 569 402 l 1
 417 402 l 1
 658 62 l 1
 580 16 l 1
 491 -1 l 1
 845 -3 l 1
EndSplineSet
EndChar

StartChar: uniE1D1
Encoding: 465 57809 465
Width: 1000
GlyphClass: 2
Flags: MW
HStem: -142 1041<276 684>
VStem: 276 517
LayerCount: 2
Fore
SplineSet
776 398 m 1
 429 899 l 1
 276 899 l 1
 629 398 l 1
 776 398 l 1
641 -43 m 1
 793 -43 l 1
 512 399 l 1
 365 399 l 1
 556 84 l 1
 472 50 l 1
 476 -56 l 1
 563 -112 l 1
 684 -142 l 1
 586 -46 l 1
 622 -16 l 1
 641 -43 l 1
EndSplineSet
EndChar

StartChar: uniE1D2
Encoding: 466 57810 466
Width: 1000
GlyphClass: 2
Flags: MW
HStem: 3 1001<329 735 329 735>
VStem: 219 516
LayerCount: 2
Fore
SplineSet
648 503 m 1
 457 778 l 1
 541 812 l 1
 537 918 l 1
 450 974 l 1
 329 1004 l 1
 427 908 l 1
 391 878 l 1
 372 905 l 1
 219 905 l 1
 498 500 l 1
 648 503 l 1
235 504 m 1
 583 3 l 1
 735 3 l 1
 383 504 l 1
 235 504 l 1
EndSplineSet
EndChar

StartChar: uniE1D3
Encoding: 467 57811 467
Width: 1000
GlyphClass: 2
Flags: MW
HStem: -101 1025<279 639>
VStem: 279 469
LayerCount: 2
Fore
SplineSet
279 924 m 1
 580 396 l 1
 630 403 681 396 732 396 c 1
 466 839 l 1
 544 885 l 1
 634 902 l 1
 279 924 l 1
320 398 m 1
 511 125 l 1
 437 91 l 1
 441 -15 l 1
 518 -71 l 1
 639 -101 l 1
 541 -5 l 1
 577 25 l 1
 596 -2 l 1
 748 -2 l 1
 477 398 l 1
 320 398 l 1
EndSplineSet
EndChar

StartChar: uniE1D4
Encoding: 468 57812 468
Width: 1000
GlyphClass: 2
Flags: MW
HStem: -1 1005<379 799>
VStem: 269 530
LayerCount: 2
Fore
SplineSet
269 905 m 1
 626 399 l 1
 773 399 l 1
 507 778 l 1
 591 812 l 1
 587 918 l 1
 500 974 l 1
 379 1004 l 1
 477 908 l 1
 441 878 l 1
 422 905 l 1
 269 905 l 1
799 -1 m 1
 513 403 l 1
 361 403 l 1
 602 64 l 1
 524 18 l 1
 435 1 l 1
 799 -1 l 1
EndSplineSet
EndChar

StartChar: uniE1D5
Encoding: 469 57813 469
Width: 1000
GlyphClass: 2
Flags: MW
HStem: -103 903<213 732 213 732>
VStem: 213 519
LayerCount: 2
Fore
SplineSet
645 399 m 1
 366 800 l 1
 213 800 l 1
 497 399 l 1
 645 399 l 1
732 -103 m 1
 388 399 l 1
 235 399 l 1
 585 -103 l 1
 732 -103 l 1
EndSplineSet
EndChar

StartChar: uniE1D6
Encoding: 470 57814 470
Width: 1000
GlyphClass: 2
Flags: MW
HStem: -99 900<227 724>
VStem: 227 497
LayerCount: 2
Fore
SplineSet
656 399 m 1
 380 801 l 1
 227 801 l 1
 508 399 l 1
 656 399 l 1
724 -99 m 1
 381 399 l 1
 228 399 l 1
 537 -33 l 1
 459 -79 l 1
 389 -96 l 1
 724 -99 l 1
EndSplineSet
EndChar

StartChar: uniE1D7
Encoding: 471 57815 471
Width: 1000
GlyphClass: 2
Flags: MW
HStem: -99 900<197 724 197 724>
VStem: 197 527
LayerCount: 2
Fore
SplineSet
197 801 m 1
 473 399 l 1
 626 399 l 1
 384 735 l 1
 462 781 l 1
 552 798 l 1
 197 801 l 1
228 399 m 1
 571 -99 l 1
 724 -99 l 1
 376 399 l 1
 228 399 l 1
EndSplineSet
EndChar

StartChar: uniE1D8
Encoding: 472 57816 472
Width: 1000
GlyphClass: 2
Flags: MW
HStem: -101 901<217 733>
VStem: 217 516
LayerCount: 2
Fore
SplineSet
654 399 m 1
 404 735 l 1
 482 781 l 1
 572 798 l 1
 217 800 l 1
 501 399 l 1
 654 399 l 1
733 -101 m 1
 389 403 l 1
 236 403 l 1
 536 -36 l 1
 478 -82 l 1
 389 -99 l 1
 733 -101 l 1
EndSplineSet
EndChar

StartChar: uniE1D9
Encoding: 473 57817 473
Width: 1000
GlyphClass: 2
Flags: MW
HStem: -199 1001<197 631>
VStem: 197 543
LayerCount: 2
Fore
SplineSet
350 802 m 1
 197 802 l 1
 479 398 l 1
 627 398 l 1
 350 802 l 1
588 -100 m 1
 740 -100 l 1
 389 399 l 1
 241 399 l 1
 503 27 l 1
 419 -7 l 1
 423 -113 l 1
 510 -169 l 1
 631 -199 l 1
 533 -103 l 1
 569 -73 l 1
 588 -100 l 1
EndSplineSet
EndChar

StartChar: uniE1DA
Encoding: 474 57818 474
Width: 1000
GlyphClass: 2
Flags: MW
HStem: -100 1001<312 728 312 728>
VStem: 202 526
LayerCount: 2
Fore
SplineSet
202 802 m 1
 483 400 l 1
 631 400 l 1
 440 675 l 1
 524 709 l 1
 520 815 l 1
 433 871 l 1
 312 901 l 1
 410 805 l 1
 374 775 l 1
 355 802 l 1
 202 802 l 1
228 401 m 1
 576 -100 l 1
 728 -100 l 1
 376 401 l 1
 228 401 l 1
EndSplineSet
EndChar

StartChar: uniE1DB
Encoding: 475 57819 475
Width: 1000
GlyphClass: 2
Flags: MW
HStem: -184 985<239 599>
VStem: 235 473
LayerCount: 2
Fore
SplineSet
647 399 m 1
 426 736 l 1
 504 782 l 1
 594 799 l 1
 239 801 l 1
 495 399 l 1
 647 399 l 1
556 -85 m 1
 708 -85 l 1
 382 399 l 1
 235 399 l 1
 471 42 l 1
 387 8 l 1
 391 -98 l 1
 478 -154 l 1
 599 -184 l 1
 501 -88 l 1
 537 -58 l 1
 556 -85 l 1
EndSplineSet
EndChar

StartChar: uniE1DC
Encoding: 476 57820 476
Width: 1000
GlyphClass: 2
Flags: MW
HStem: -108 1006<323 734>
VStem: 214 520
LayerCount: 2
Fore
SplineSet
214 799 m 1
 497 400 l 1
 645 400 l 1
 451 672 l 1
 535 706 l 1
 531 812 l 1
 444 868 l 1
 323 898 l 1
 421 802 l 1
 385 772 l 1
 366 799 l 1
 214 799 l 1
734 -108 m 1
 385 403 l 1
 232 403 l 1
 547 -43 l 1
 469 -89 l 1
 379 -106 l 1
 734 -108 l 1
EndSplineSet
EndChar

StartChar: uniE1DD
Encoding: 477 57821 477
Width: 1000
GlyphClass: 2
Flags: MW
HStem: -96 996<207 805 207 805>
VStem: 207 598
LayerCount: 2
Fore
SplineSet
707 399 m 1
 359 900 l 1
 207 900 l 1
 559 399 l 1
 707 399 l 1
805 -96 m 1
 462 399 l 1
 309 399 l 1
 658 -96 l 1
 805 -96 l 1
EndSplineSet
EndChar

StartChar: uniE1DE
Encoding: 478 57822 478
Width: 1000
GlyphClass: 2
Flags: MW
HStem: -102 1002<206 805>
VStem: 206 599
LayerCount: 2
Fore
SplineSet
359 900 m 1
 206 900 l 1
 559 399 l 1
 706 399 l 1
 359 900 l 1
805 -102 m 1
 466 397 l 1
 314 397 l 1
 618 -37 l 1
 540 -83 l 1
 451 -100 l 1
 805 -102 l 1
EndSplineSet
EndChar

StartChar: uniE1DF
Encoding: 479 57823 479
Width: 1000
GlyphClass: 2
Flags: MW
HStem: -102 997<206 795 206 795>
VStem: 206 589
LayerCount: 2
Fore
SplineSet
393 830 m 1
 471 876 l 1
 561 893 l 1
 206 895 l 1
 553 400 l 1
 705 400 l 1
 393 830 l 1
303 401 m 1
 643 -102 l 1
 795 -102 l 1
 450 401 l 1
 303 401 l 1
EndSplineSet
EndChar

StartChar: uniE1E0
Encoding: 480 57824 480
Width: 1000
GlyphClass: 2
Flags: MW
HStem: -102 1002<208 807>
VStem: 208 599
LayerCount: 2
Fore
SplineSet
713 399 m 1
 395 835 l 1
 473 881 l 1
 563 898 l 1
 208 900 l 1
 561 399 l 1
 713 399 l 1
807 -102 m 1
 458 403 l 1
 306 403 l 1
 620 -37 l 1
 542 -83 l 1
 453 -100 l 1
 807 -102 l 1
EndSplineSet
EndChar

StartChar: uniE1E1
Encoding: 481 57825 481
Width: 1000
GlyphClass: 2
Flags: MW
HStem: -198 1098<196 696>
VStem: 196 609
LayerCount: 2
Fore
SplineSet
349 900 m 1
 196 900 l 1
 549 399 l 1
 696 399 l 1
 349 900 l 1
653 -99 m 1
 805 -99 l 1
 461 400 l 1
 314 400 l 1
 568 28 l 1
 484 -6 l 1
 488 -112 l 1
 575 -168 l 1
 696 -198 l 1
 598 -102 l 1
 634 -72 l 1
 653 -99 l 1
EndSplineSet
EndChar

StartChar: uniE1E2
Encoding: 482 57826 482
Width: 1000
GlyphClass: 2
Flags: MW
HStem: -99 1103<360 795 360 795>
VStem: 200 595
LayerCount: 2
Fore
SplineSet
553 399 m 1
 700 399 l 1
 438 778 l 1
 522 812 l 1
 518 918 l 1
 431 974 l 1
 360 1004 l 1
 408 908 l 1
 422 878 l 1
 403 905 l 1
 200 905 l 1
 553 399 l 1
288 400 m 1
 643 -99 l 1
 795 -99 l 1
 435 400 l 1
 288 400 l 1
EndSplineSet
EndChar

StartChar: uniE1E3
Encoding: 483 57827 483
Width: 1000
GlyphClass: 2
Flags: MW
HStem: -196 1100<199 639>
VStem: 199 549
LayerCount: 2
Fore
SplineSet
652 396 m 1
 386 839 l 1
 324 885 l 1
 554 902 l 1
 199 904 l 1
 500 396 l 1
 652 396 l 1
596 -97 m 1
 748 -97 l 1
 404 399 l 1
 257 399 l 1
 511 30 l 1
 427 -4 l 1
 431 -110 l 1
 518 -166 l 1
 639 -196 l 1
 541 -100 l 1
 577 -70 l 1
 596 -97 l 1
EndSplineSet
EndChar

StartChar: uniE1E4
Encoding: 484 57828 484
Width: 1000
GlyphClass: 2
Flags: MW
HStem: -99 1103<315 799>
VStem: 205 594
LayerCount: 2
Fore
SplineSet
205 905 m 1
 562 397 l 1
 709 397 l 1
 443 778 l 1
 527 812 l 1
 523 918 l 1
 436 974 l 1
 315 1004 l 1
 413 908 l 1
 377 878 l 1
 358 905 l 1
 205 905 l 1
799 -99 m 1
 449 403 l 1
 297 403 l 1
 612 -34 l 1
 534 -80 l 1
 445 -97 l 1
 799 -99 l 1
EndSplineSet
EndChar

StartChar: uniE1E5
Encoding: 485 57829 485
Width: 0
GlyphClass: 2
Flags: MW
HStem: 435 512<-360 -230>
VStem: -360 130
LayerCount: 2
Fore
SplineSet
-230 435 m 1
 -236 803 l 1
 -360 947 l 1
 -355 615 l 1
 -230 435 l 1
EndSplineSet
EndChar

StartChar: uniE1E6
Encoding: 486 57830 486
Width: 0
GlyphClass: 2
Flags: MW
HStem: 669.5 132.5
VStem: -558 401<668 803>
LayerCount: 2
Fore
SplineSet
-558 803 m 1
 -240 801 l 1
 -157 668 l 1
 -469 671 l 1
 -558 803 l 1
EndSplineSet
EndChar

StartChar: uniE1E7
Encoding: 487 57831 487
Width: 0
GlyphClass: 2
Flags: MW
HStem: 547 256<-438 -122>
VStem: -438 316<547 803>
LayerCount: 2
Fore
SplineSet
-122 547 m 1
 -291 803 l 1
 -438 803 l 1
 -271 550 l 1
 -122 547 l 1
EndSplineSet
EndChar

StartChar: uniE1E8
Encoding: 488 57832 488
Width: 0
GlyphClass: 2
Flags: MW
HStem: 427 374<-246 -2>
VStem: -320 318<527 801>
LayerCount: 2
Fore
SplineSet
-246 427 m 1
 -2 801 l 1
 -120 800 l 1
 -320 527 l 1
 -246 427 l 1
EndSplineSet
EndChar

StartChar: uniE1E9
Encoding: 489 57833 489
Width: 0
GlyphClass: 2
Flags: MW
HStem: 722 83
VStem: -444 333<721 807>
LayerCount: 2
Fore
SplineSet
-174 803 m 1
 -111 721 l 1
 -256 723 l 1
 -178 593 l 1
 -290 593 l 1
 -444 807 l 1
 -174 803 l 1
EndSplineSet
EndChar

StartChar: uniE1EA
Encoding: 490 57834 490
Width: 0
GlyphClass: 2
Flags: MW
HStem: 701 98.5
VStem: -440 434<799 800>
LayerCount: 2
Fore
SplineSet
-440 800 m 1
 -6 799 l 1
 -283 511 l 1
 -340 619 l 1
 -234 701 l 1
 -388 701 l 1
 -440 800 l 1
EndSplineSet
EndChar

StartChar: uniE1EB
Encoding: 491 57835 491
Width: 0
GlyphClass: 2
Flags: MW
HStem: 435 364<-240 -234>
VStem: -318 81
LayerCount: 2
Fore
SplineSet
-320 549 m 1
 -316 717 l 1
 -413 659 l 1
 -436 685 l 1
 -240 799 l 1
 -234 435 l 1
 -320 549 l 1
EndSplineSet
EndChar

StartChar: uniE1EC
Encoding: 492 57836 492
Width: 0
GlyphClass: 2
Flags: MW
HStem: 427 376<-284 -180>
VStem: -184 93
LayerCount: 2
Fore
SplineSet
-180 427 m 1
 -188 709 l 1
 -91 651 l 1
 -68 677 l 1
 -284 803 l 1
 -279 559 l 1
 -180 427 l 1
EndSplineSet
EndChar

StartChar: uniE1ED
Encoding: 493 57837 493
Width: 0
GlyphClass: 2
Flags: MW
HStem: 577 224
VStem: -331 327<577 673>
LayerCount: 2
Fore
SplineSet
-161 800 m 1
 -265 801 l 1
 -180 673 l 1
 -331 673 l 1
 -267 581 l 1
 -4 577 l 1
 -161 800 l 1
EndSplineSet
EndChar

StartChar: uniE1EE
Encoding: 494 57838 494
Width: 0
GlyphClass: 2
Flags: MW
HStem: 582 94
VStem: -338 328<580 676>
LayerCount: 2
Fore
SplineSet
-180 803 m 1
 -76 804 l 1
 -161 676 l 1
 -10 676 l 1
 -74 584 l 1
 -338 580 l 1
 -180 803 l 1
EndSplineSet
EndChar

StartChar: uniE1EF
Encoding: 495 57839 495
Width: 0
GlyphClass: 2
Flags: MW
HStem: 399 620<-319 -176>
VStem: -319 143
LayerCount: 2
Fore
SplineSet
-176 399 m 1
 -195 875 l 1
 -319 1019 l 1
 -302 579 l 1
 -176 399 l 1
EndSplineSet
EndChar

StartChar: uniE1F0
Encoding: 496 57840 496
Width: 0
GlyphClass: 2
Flags: MW
HStem: 509 510<-516 -28>
VStem: -516 488
LayerCount: 2
Fore
SplineSet
-28 509 m 1
 -372 1012 l 1
 -516 1019 l 1
 -171 512 l 1
 -28 509 l 1
EndSplineSet
EndChar

StartChar: uniE1F1
Encoding: 497 57841 497
Width: 0
GlyphClass: 2
Flags: MW
HStem: 427 524<-246 4>
VStem: -320 324
LayerCount: 2
Fore
SplineSet
-246 427 m 1
 4 951 l 1
 -114 950 l 1
 -320 527 l 1
 -246 427 l 1
EndSplineSet
EndChar

StartChar: uniE1F2
Encoding: 498 57842 498
Width: 0
GlyphClass: 2
Flags: MW
HStem: 475 320.38
VStem: -376 372
LayerCount: 2
Fore
SplineSet
-280 475 m 1
 -244 687 -204 767 -4 795 c 1
 -164 799 -284 784 -376 627 c 1
 -280 475 l 1
EndSplineSet
EndChar

StartChar: uniE1F3
Encoding: 499 57843 499
Width: 0
GlyphClass: 2
Flags: MW
HStem: 467 392
VStem: -338 326
LayerCount: 2
Fore
SplineSet
-338 577 m 1
 -320 583 -40 659 -12 859 c 1
 -8 699 -109 559 -266 467 c 1
 -338 577 l 1
EndSplineSet
EndChar

StartChar: uniE1F4
Encoding: 500 57844 500
Width: 0
GlyphClass: 2
Flags: MW
HStem: 669.5 132.5
VStem: -468 543<668 803>
LayerCount: 2
Fore
SplineSet
-152 547 m 1
 -321 803 l 1
 -468 803 l 1
 -301 550 l 1
 -152 547 l 1
-258 803 m 1
 -8 801 l 1
 75 668 l 1
 -169 671 l 1
 -258 803 l 1
EndSplineSet
EndChar

StartChar: uniE1F5
Encoding: 501 57845 501
Width: 0
GlyphClass: 2
Flags: MW
HStem: 319 628<-360 -80>
VStem: -360 359
LayerCount: 2
Fore
SplineSet
-230 435 m 1
 -236 803 l 1
 -360 947 l 1
 -355 615 l 1
 -230 435 l 1
-77 459 m 1
 -1 386 l 1
 -80 319 l 1
 -155 391 l 1
 -77 459 l 1
EndSplineSet
EndChar

StartChar: uniE1F6
Encoding: 502 57846 502
Width: 0
GlyphClass: 2
Flags: MW
HStem: 669.5 132.5
VStem: -558 401<668 803>
LayerCount: 2
Fore
SplineSet
-558 803 m 1
 -240 801 l 1
 -157 668 l 1
 -469 671 l 1
 -558 803 l 1
-316 586 m 1
 -241 513 l 1
 -320 446 l 1
 -395 518 l 1
 -316 586 l 1
EndSplineSet
EndChar

StartChar: uniE1F7
Encoding: 503 57847 503
Width: 0
GlyphClass: 2
Flags: MW
HStem: 335 468<-438 -154>
VStem: -438 363
LayerCount: 2
Fore
SplineSet
-122 547 m 1
 -291 803 l 1
 -438 803 l 1
 -271 550 l 1
 -122 547 l 1
-151 475 m 1
 -75 402 l 1
 -154 335 l 1
 -229 407 l 1
 -151 475 l 1
EndSplineSet
EndChar

StartChar: uniE1F8
Encoding: 504 57848 504
Width: 0
GlyphClass: 2
Flags: MW
HStem: 319 482<-80 -2>
VStem: -320 319<386 527>
LayerCount: 2
Fore
SplineSet
-246 427 m 1
 -2 801 l 1
 -120 800 l 1
 -320 527 l 1
 -246 427 l 1
-77 459 m 1
 -1 386 l 1
 -80 319 l 1
 -155 391 l 1
 -77 459 l 1
EndSplineSet
EndChar

StartChar: uniE1F9
Encoding: 505 57849 505
Width: 0
GlyphClass: 2
Flags: MW
HStem: 722 83
VStem: -444 393<485 807>
LayerCount: 2
Fore
SplineSet
-174 803 m 1
 -111 721 l 1
 -256 723 l 1
 -178 593 l 1
 -290 593 l 1
 -444 807 l 1
 -174 803 l 1
-126 558 m 1
 -51 485 l 1
 -130 418 l 1
 -205 490 l 1
 -126 558 l 1
EndSplineSet
EndChar

StartChar: uniE1FA
Encoding: 506 57850 506
Width: 0
GlyphClass: 2
Flags: MW
HStem: 701 98.5
VStem: -440 434<799 800>
LayerCount: 2
Fore
SplineSet
-440 800 m 1
 -6 799 l 1
 -283 511 l 1
 -340 619 l 1
 -234 701 l 1
 -388 701 l 1
 -440 800 l 1
-122 514 m 1
 -47 441 l 1
 -126 374 l 1
 -201 446 l 1
 -122 514 l 1
EndSplineSet
EndChar

StartChar: uniE1FB
Encoding: 507 57851 507
Width: 0
GlyphClass: 2
Flags: MW
HStem: 329 470<-240 -119>
VStem: -318 81
LayerCount: 2
Fore
SplineSet
-320 549 m 1
 -316 717 l 1
 -413 659 l 1
 -436 685 l 1
 -240 799 l 1
 -234 435 l 1
 -320 549 l 1
-115 469 m 1
 -40 396 l 1
 -119 329 l 1
 -194 401 l 1
 -115 469 l 1
EndSplineSet
EndChar

StartChar: uniE1FC
Encoding: 508 57852 508
Width: 0
GlyphClass: 2
Flags: MW
HStem: 338 465<-284 -71>
VStem: -184 93
LayerCount: 2
Fore
SplineSet
-180 427 m 1
 -188 709 l 1
 -91 651 l 1
 -68 677 l 1
 -284 803 l 1
 -279 559 l 1
 -180 427 l 1
-67 478 m 1
 9 405 l 1
 -71 338 l 1
 -146 410 l 1
 -67 478 l 1
EndSplineSet
EndChar

StartChar: uniE1FD
Encoding: 509 57853 509
Width: 0
GlyphClass: 2
Flags: MW
HStem: 470 109
VStem: -331 327<577 673>
LayerCount: 2
Fore
SplineSet
-161 800 m 1
 -265 801 l 1
 -180 673 l 1
 -331 673 l 1
 -267 581 l 1
 -4 577 l 1
 -161 800 l 1
-115 538 m 1
 -40 465 l 1
 -119 398 l 1
 -194 470 l 1
 -115 538 l 1
EndSplineSet
EndChar

StartChar: uniE1FE
Encoding: 510 57854 510
Width: 0
GlyphClass: 2
Flags: MW
HStem: 582 94
VStem: -338 328<580 676>
LayerCount: 2
Fore
SplineSet
-180 803 m 1
 -76 804 l 1
 -161 676 l 1
 -10 676 l 1
 -74 584 l 1
 -338 580 l 1
 -180 803 l 1
-133 532 m 1
 -58 459 l 1
 -137 392 l 1
 -212 464 l 1
 -133 532 l 1
EndSplineSet
EndChar

StartChar: uniE1FF
Encoding: 511 57855 511
Width: 0
GlyphClass: 2
Flags: MW
HStem: 319 700<-319 -80>
VStem: -319 318
LayerCount: 2
Fore
SplineSet
-176 399 m 1
 -195 875 l 1
 -319 1019 l 1
 -302 579 l 1
 -176 399 l 1
-77 459 m 1
 -1 386 l 1
 -80 319 l 1
 -155 391 l 1
 -77 459 l 1
EndSplineSet
EndChar

StartChar: uniE200
Encoding: 512 57856 512
Width: 0
GlyphClass: 2
Flags: MW
HStem: 297 722<-516 -79>
VStem: -516 516
LayerCount: 2
Fore
SplineSet
-28 509 m 1
 -372 1012 l 1
 -516 1019 l 1
 -171 512 l 1
 -28 509 l 1
-76 437 m 1
 0 364 l 1
 -79 297 l 1
 -154 369 l 1
 -76 437 l 1
EndSplineSet
EndChar

StartChar: uniE201
Encoding: 513 57857 513
Width: 0
GlyphClass: 2
Flags: MW
HStem: 319 632<-80 4>
VStem: -320 324
LayerCount: 2
Fore
SplineSet
-246 427 m 1
 4 951 l 1
 -114 950 l 1
 -320 527 l 1
 -246 427 l 1
-77 459 m 1
 -1 386 l 1
 -80 319 l 1
 -155 391 l 1
 -77 459 l 1
EndSplineSet
EndChar

StartChar: uniE202
Encoding: 514 57858 514
Width: 0
GlyphClass: 2
Flags: MW
HStem: 458 337.38
VStem: -376 372
LayerCount: 2
Fore
SplineSet
-280 475 m 1
 -244 687 -204 767 -4 795 c 1
 -164 799 -284 784 -376 627 c 1
 -280 475 l 1
-86 598 m 1
 -11 525 l 1
 -90 458 l 1
 -165 530 l 1
 -86 598 l 1
EndSplineSet
EndChar

StartChar: uniE203
Encoding: 515 57859 515
Width: 0
GlyphClass: 2
Flags: MW
HStem: 359 500
VStem: -338 340<426 577>
LayerCount: 2
Fore
SplineSet
-338 577 m 1
 -320 583 -40 659 -12 859 c 1
 -8 699 -109 559 -266 467 c 1
 -338 577 l 1
-74 499 m 1
 2 426 l 1
 -78 359 l 1
 -153 431 l 1
 -74 499 l 1
EndSplineSet
EndChar

StartChar: uniE204
Encoding: 516 57860 516
Width: 0
GlyphClass: 2
Flags: MW
HStem: 669.5 132.5
VStem: -468 543<668 803>
LayerCount: 2
Fore
SplineSet
-152 547 m 1
 -321 803 l 1
 -468 803 l 1
 -301 550 l 1
 -152 547 l 1
-258 803 m 1
 -8 801 l 1
 75 668 l 1
 -169 671 l 1
 -258 803 l 1
-120 475 m 1
 -44 402 l 1
 -123 335 l 1
 -198 407 l 1
 -120 475 l 1
EndSplineSet
EndChar

StartChar: uniE205
Encoding: 517 57861 517
Width: 0
GlyphClass: 2
Flags: MW
HStem: -147 512<-360 -230>
VStem: -357.5 124.5
LayerCount: 2
Fore
SplineSet
-230 365 m 1
 -236 -3 l 1
 -360 -147 l 1
 -355 185 l 1
 -230 365 l 1
EndSplineSet
EndChar

StartChar: uniE206
Encoding: 518 57862 518
Width: 0
GlyphClass: 2
Flags: MW
HStem: -3 135
VStem: -558 401<-3 132>
LayerCount: 2
Fore
SplineSet
-558 -3 m 1
 -240 -1 l 1
 -157 132 l 1
 -469 129 l 1
 -558 -3 l 1
EndSplineSet
EndChar

StartChar: uniE207
Encoding: 519 57863 519
Width: 0
GlyphClass: 2
Flags: MW
HStem: -3 254.5
VStem: -438 316<-3 253>
LayerCount: 2
Fore
SplineSet
-122 253 m 1
 -291 -3 l 1
 -438 -3 l 1
 -271 250 l 1
 -122 253 l 1
EndSplineSet
EndChar

StartChar: uniE208
Encoding: 520 57864 520
Width: 0
GlyphClass: 2
Flags: MW
HStem: -1 374<-246 -2>
VStem: -320 318<-1 273>
LayerCount: 2
Fore
SplineSet
-246 373 m 1
 -2 -1 l 1
 -120 0 l 1
 -320 273 l 1
 -246 373 l 1
EndSplineSet
EndChar

StartChar: uniE209
Encoding: 521 57865 521
Width: 0
GlyphClass: 2
Flags: MW
HStem: -7 214<-444 -178>
VStem: -444 333<-7 79>
LayerCount: 2
Fore
SplineSet
-174 -3 m 1
 -111 79 l 1
 -256 77 l 1
 -178 207 l 1
 -290 207 l 1
 -444 -7 l 1
 -174 -3 l 1
EndSplineSet
EndChar

StartChar: uniE20A
Encoding: 522 57866 522
Width: 0
GlyphClass: 2
Flags: MW
HStem: 0 289<-440 -283>
VStem: -440 434<0 1>
LayerCount: 2
Fore
SplineSet
-440 0 m 1
 -6 1 l 1
 -283 289 l 1
 -340 181 l 1
 -234 99 l 1
 -388 99 l 1
 -440 0 l 1
EndSplineSet
EndChar

StartChar: uniE20B
Encoding: 523 57867 523
Width: 0
GlyphClass: 2
Flags: MW
HStem: 1 364<-240 -234>
VStem: -436 202
LayerCount: 2
Fore
SplineSet
-320 251 m 1
 -316 83 l 1
 -413 141 l 1
 -436 115 l 1
 -240 1 l 1
 -234 365 l 1
 -320 251 l 1
EndSplineSet
EndChar

StartChar: uniE20C
Encoding: 524 57868 524
Width: 0
GlyphClass: 2
Flags: MW
HStem: -3 376<-284 -180>
VStem: -281.5 97.5
LayerCount: 2
Fore
SplineSet
-180 373 m 1
 -188 91 l 1
 -91 149 l 1
 -68 123 l 1
 -284 -3 l 1
 -279 241 l 1
 -180 373 l 1
EndSplineSet
EndChar

StartChar: uniE20D
Encoding: 525 57869 525
Width: 0
GlyphClass: 2
Flags: MW
HStem: 127 94
VStem: -331 327<127 223>
LayerCount: 2
Fore
SplineSet
-161 0 m 1
 -265 -1 l 1
 -180 127 l 1
 -331 127 l 1
 -267 219 l 1
 -4 223 l 1
 -161 0 l 1
EndSplineSet
EndChar

StartChar: uniE20E
Encoding: 526 57870 526
Width: 0
GlyphClass: 2
Flags: MW
HStem: -4 224
VStem: -338 328<124 220>
LayerCount: 2
Fore
SplineSet
-180 -3 m 1
 -76 -4 l 1
 -161 124 l 1
 -10 124 l 1
 -74 216 l 1
 -338 220 l 1
 -180 -3 l 1
EndSplineSet
EndChar

StartChar: uniE20F
Encoding: 527 57871 527
Width: 0
GlyphClass: 2
Flags: MW
HStem: -219 620<-319 -176>
VStem: -310.5 125
LayerCount: 2
Fore
SplineSet
-176 401 m 1
 -195 -75 l 1
 -319 -219 l 1
 -302 221 l 1
 -176 401 l 1
EndSplineSet
EndChar

StartChar: uniE210
Encoding: 528 57872 528
Width: 0
GlyphClass: 2
Flags: MW
HStem: -219 510<-516 -28>
VStem: -516 488
LayerCount: 2
Fore
SplineSet
-28 291 m 1
 -372 -212 l 1
 -516 -219 l 1
 -171 288 l 1
 -28 291 l 1
EndSplineSet
EndChar

StartChar: uniE211
Encoding: 529 57873 529
Width: 0
GlyphClass: 2
Flags: MW
HStem: -151 524<-246 4>
VStem: -320 324
LayerCount: 2
Fore
SplineSet
-246 373 m 1
 4 -151 l 1
 -114 -150 l 1
 -320 273 l 1
 -246 373 l 1
EndSplineSet
EndChar

StartChar: uniE212
Encoding: 530 57874 530
Width: 0
GlyphClass: 2
Flags: MW
HStem: 4.64 320.36
VStem: -376 372
LayerCount: 2
Fore
SplineSet
-280 325 m 1
 -244 113 -204 33 -4 5 c 1
 -164 1 -284 16 -376 173 c 1
 -280 325 l 1
EndSplineSet
EndChar

StartChar: uniE213
Encoding: 531 57875 531
Width: 0
GlyphClass: 2
Flags: MW
HStem: -59 392
VStem: -338 326
LayerCount: 2
Fore
SplineSet
-338 223 m 1
 -320 217 -40 141 -12 -59 c 1
 -8 101 -109 241 -266 333 c 1
 -338 223 l 1
EndSplineSet
EndChar

StartChar: uniE214
Encoding: 532 57876 532
Width: 0
GlyphClass: 2
Flags: MW
HStem: 130.5 121
VStem: -468 543<-3 132>
LayerCount: 2
Fore
SplineSet
-152 253 m 1
 -321 -3 l 1
 -468 -3 l 1
 -301 250 l 1
 -152 253 l 1
-258 -3 m 1
 -8 -1 l 1
 75 132 l 1
 -169 129 l 1
 -258 -3 l 1
EndSplineSet
EndChar

StartChar: uniE215
Encoding: 533 57877 533
Width: 0
GlyphClass: 2
Flags: MW
HStem: -147 628<-360 -80>
VStem: -357.5 124.5
LayerCount: 2
Fore
SplineSet
-77 341 m 1
 -1 414 l 1
 -80 481 l 1
 -155 409 l 1
 -77 341 l 1
-230 365 m 1
 -236 -3 l 1
 -360 -147 l 1
 -355 185 l 1
 -230 365 l 1
EndSplineSet
EndChar

StartChar: uniE216
Encoding: 534 57878 534
Width: 0
GlyphClass: 2
Flags: MW
HStem: 130.5 83.5
VStem: -558 401<-3 132>
LayerCount: 2
Fore
SplineSet
-316 214 m 1
 -241 287 l 1
 -320 354 l 1
 -395 282 l 1
 -316 214 l 1
-558 -3 m 1
 -240 -1 l 1
 -157 132 l 1
 -469 129 l 1
 -558 -3 l 1
EndSplineSet
EndChar

StartChar: uniE217
Encoding: 535 57879 535
Width: 0
GlyphClass: 2
Flags: MW
HStem: -3 468<-438 -154 -438 -154>
VStem: -438 363
LayerCount: 2
Fore
SplineSet
-151 325 m 1
 -75 398 l 1
 -154 465 l 1
 -229 393 l 1
 -151 325 l 1
-122 253 m 1
 -291 -3 l 1
 -438 -3 l 1
 -271 250 l 1
 -122 253 l 1
EndSplineSet
EndChar

StartChar: uniE218
Encoding: 536 57880 536
Width: 0
GlyphClass: 2
Flags: MW
HStem: -1 482<-80 -2>
VStem: -320 319<273 414>
LayerCount: 2
Fore
SplineSet
-77 341 m 1
 -1 414 l 1
 -80 481 l 1
 -155 409 l 1
 -77 341 l 1
-246 373 m 1
 -2 -1 l 1
 -120 0 l 1
 -320 273 l 1
 -246 373 l 1
EndSplineSet
EndChar

StartChar: uniE219
Encoding: 537 57881 537
Width: 0
GlyphClass: 2
Flags: MW
HStem: -7 389<-444 -130>
VStem: -444 393<-7 315>
LayerCount: 2
Fore
SplineSet
-126 242 m 1
 -51 315 l 1
 -130 382 l 1
 -205 310 l 1
 -126 242 l 1
-174 -3 m 1
 -111 79 l 1
 -256 77 l 1
 -178 207 l 1
 -290 207 l 1
 -444 -7 l 1
 -174 -3 l 1
EndSplineSet
EndChar

StartChar: uniE21A
Encoding: 538 57882 538
Width: 0
GlyphClass: 2
Flags: MW
HStem: 0 426<-440 -126>
VStem: -440 434<0 1>
LayerCount: 2
Fore
SplineSet
-122 286 m 1
 -47 359 l 1
 -126 426 l 1
 -201 354 l 1
 -122 286 l 1
-440 0 m 1
 -6 1 l 1
 -283 289 l 1
 -340 181 l 1
 -234 99 l 1
 -388 99 l 1
 -440 0 l 1
EndSplineSet
EndChar

StartChar: uniE21B
Encoding: 539 57883 539
Width: 0
GlyphClass: 2
Flags: MW
HStem: 1 470<-240 -119>
VStem: -237 122
LayerCount: 2
Fore
SplineSet
-115 331 m 1
 -40 404 l 1
 -119 471 l 1
 -194 399 l 1
 -115 331 l 1
-320 251 m 1
 -316 83 l 1
 -413 141 l 1
 -436 115 l 1
 -240 1 l 1
 -234 365 l 1
 -320 251 l 1
EndSplineSet
EndChar

StartChar: uniE21C
Encoding: 540 57884 540
Width: 0
GlyphClass: 2
Flags: MW
HStem: -3 465<-284 -71>
VStem: -281.5 97.5
LayerCount: 2
Fore
SplineSet
-67 322 m 1
 9 395 l 1
 -71 462 l 1
 -146 390 l 1
 -67 322 l 1
-180 373 m 1
 -188 91 l 1
 -91 149 l 1
 -68 123 l 1
 -284 -3 l 1
 -279 241 l 1
 -180 373 l 1
EndSplineSet
EndChar

StartChar: uniE21D
Encoding: 541 57885 541
Width: 0
GlyphClass: 2
Flags: MW
HStem: 127 94
VStem: -331 327<127 223>
LayerCount: 2
Fore
SplineSet
-115 262 m 1
 -40 335 l 1
 -119 402 l 1
 -194 330 l 1
 -115 262 l 1
-161 0 m 1
 -265 -1 l 1
 -180 127 l 1
 -331 127 l 1
 -267 219 l 1
 -4 223 l 1
 -161 0 l 1
EndSplineSet
EndChar

StartChar: uniE21E
Encoding: 542 57886 542
Width: 0
GlyphClass: 2
Flags: MW
HStem: 218 50
VStem: -338 328<124 220>
LayerCount: 2
Fore
SplineSet
-133 268 m 1
 -58 341 l 1
 -137 408 l 1
 -212 336 l 1
 -133 268 l 1
-180 -3 m 1
 -76 -4 l 1
 -161 124 l 1
 -10 124 l 1
 -74 216 l 1
 -338 220 l 1
 -180 -3 l 1
EndSplineSet
EndChar

StartChar: uniE21F
Encoding: 543 57887 543
Width: 0
GlyphClass: 2
Flags: MW
HStem: -219 700<-319 -80>
VStem: -310.5 125
LayerCount: 2
Fore
SplineSet
-77 341 m 1
 -1 414 l 1
 -80 481 l 1
 -155 409 l 1
 -77 341 l 1
-176 401 m 1
 -195 -75 l 1
 -319 -219 l 1
 -302 221 l 1
 -176 401 l 1
EndSplineSet
EndChar

StartChar: uniE220
Encoding: 544 57888 544
Width: 0
GlyphClass: 2
Flags: MW
HStem: -219 722<-516 -79>
VStem: -516 516
LayerCount: 2
Fore
SplineSet
-76 363 m 1
 0 436 l 1
 -79 503 l 1
 -154 431 l 1
 -76 363 l 1
-28 291 m 1
 -372 -212 l 1
 -516 -219 l 1
 -171 288 l 1
 -28 291 l 1
EndSplineSet
EndChar

StartChar: uniE221
Encoding: 545 57889 545
Width: 0
GlyphClass: 2
Flags: MW
HStem: -151 632<-80 4>
VStem: -320 324
LayerCount: 2
Fore
SplineSet
-77 341 m 1
 -1 414 l 1
 -80 481 l 1
 -155 409 l 1
 -77 341 l 1
-246 373 m 1
 4 -151 l 1
 -114 -150 l 1
 -320 273 l 1
 -246 373 l 1
EndSplineSet
EndChar

StartChar: uniE222
Encoding: 546 57890 546
Width: 0
GlyphClass: 2
Flags: MW
HStem: 4.64 337.36
VStem: -376 372
LayerCount: 2
Fore
SplineSet
-86 202 m 1
 -11 275 l 1
 -90 342 l 1
 -165 270 l 1
 -86 202 l 1
-280 325 m 1
 -244 113 -204 33 -4 5 c 1
 -164 1 -284 16 -376 173 c 1
 -280 325 l 1
EndSplineSet
EndChar

StartChar: uniE223
Encoding: 547 57891 547
Width: 0
GlyphClass: 2
Flags: MW
HStem: 851.5 44
VStem: -663 259<851 1020>
LayerCount: 2
Fore
SplineSet
-663 851 m 1
 -490 1022 l 1
 -404 1020 l 1
 -533 894 l 1
 -409 897 l 1
 -442 852 l 1
 -663 851 l 1
EndSplineSet
EndChar

StartChar: uniE224
Encoding: 548 57892 548
Width: 0
GlyphClass: 2
Flags: MW
HStem: 851 171
VStem: -663 259<851 1020>
LayerCount: 2
Fore
SplineSet
-404 851 m 1
 -576 1022 l 1
 -663 1020 l 1
 -534 894 l 1
 -658 897 l 1
 -625 852 l 1
 -404 851 l 1
EndSplineSet
EndChar

StartChar: uniE225
Encoding: 549 57893 549
Width: 0
GlyphClass: 2
Flags: MW
HStem: -231 162.02
VStem: -544 265.76
LayerCount: 2
Fore
SplineSet
-483 -147 m 1
 -433 -140 -301 -94 -288 -231 c 1
 -282 -185 l 1
 -246 -50 -473 -71 -544 -69 c 1
 -483 -147 l 1
EndSplineSet
EndChar

StartChar: uniE226
Encoding: 550 57894 550
Width: 0
GlyphClass: 2
Flags: MW
HStem: -134.37 65.37
VStem: -543.78 9.78
LayerCount: 2
Fore
SplineSet
-339 -147 m 1
 -389 -140 -521 -94 -534 -231 c 1
 -540 -185 l 1
 -576 -50 -349 -71 -278 -69 c 1
 -339 -147 l 1
EndSplineSet
EndChar

StartChar: uniE227
Encoding: 551 57895 551
Width: 0
GlyphClass: 2
Flags: MW
HStem: 725 329<-101 -7>
VStem: -100.5 93
LayerCount: 2
Fore
SplineSet
-7 1054 m 1
 -8 811 l 1
 -101 725 l 1
 -100 960 l 1
 -7 1054 l 1
EndSplineSet
EndChar

StartChar: uniE228
Encoding: 552 57896 552
Width: 0
GlyphClass: 2
Flags: MW
HStem: 251.5 44
VStem: -263 259<251 420>
LayerCount: 2
Fore
SplineSet
-263 251 m 1
 -90 422 l 1
 -4 420 l 1
 -133 294 l 1
 -9 297 l 1
 -42 252 l 1
 -263 251 l 1
EndSplineSet
EndChar

StartChar: uniE229
Encoding: 553 57897 553
Width: 0
GlyphClass: 2
Flags: MW
HStem: 251 171
VStem: -263 259<251 420>
LayerCount: 2
Fore
SplineSet
-4 251 m 1
 -176 422 l 1
 -263 420 l 1
 -134 294 l 1
 -258 297 l 1
 -225 252 l 1
 -4 251 l 1
EndSplineSet
EndChar

StartChar: uniE22A
Encoding: 554 57898 554
Width: 0
GlyphClass: 2
Flags: MW
HStem: 351 171
VStem: -263 259<353 522>
LayerCount: 2
Fore
SplineSet
-263 522 m 1
 -90 351 l 1
 -4 353 l 1
 -133 479 l 1
 -9 476 l 1
 -42 521 l 1
 -263 522 l 1
EndSplineSet
EndChar

StartChar: uniE22B
Encoding: 555 57899 555
Width: 0
GlyphClass: 2
Flags: MW
HStem: 477.5 44
VStem: -263 259<353 522>
LayerCount: 2
Fore
SplineSet
-4 522 m 1
 -176 351 l 1
 -263 353 l 1
 -134 479 l 1
 -258 476 l 1
 -225 521 l 1
 -4 522 l 1
EndSplineSet
EndChar

StartChar: uniE22C
Encoding: 556 57900 556
Width: 0
GlyphClass: 2
Flags: MW
HStem: 818.99 162
VStem: -543.78 265.78
LayerCount: 2
Fore
SplineSet
-339 897 m 1
 -389 890 -521 844 -534 981 c 1
 -540 935 l 1
 -576 800 -349 821 -278 819 c 1
 -339 897 l 1
EndSplineSet
EndChar

StartChar: uniE22D
Encoding: 557 57901 557
Width: 0
GlyphClass: 2
Flags: MW
HStem: 819 65.39
VStem: -288 9.75999
LayerCount: 2
Fore
SplineSet
-483 897 m 1
 -433 890 -301 844 -288 981 c 1
 -282 935 l 1
 -246 800 -473 821 -544 819 c 1
 -483 897 l 1
EndSplineSet
EndChar

StartChar: uniE22E
Encoding: 558 57902 558
Width: 0
GlyphClass: 2
Flags: MW
HStem: 926 77
VStem: -214.09 208.94
LayerCount: 2
Fore
SplineSet
-6 861 m 0
 -9 849 -55 920 -107 926 c 0
 -161 932 -209 832 -213 859 c 0
 -220 899 -195 1000 -114 1003 c 0
 -36 1006 2 899 -6 861 c 0
EndSplineSet
EndChar

StartChar: uniE22F
Encoding: 559 57903 559
Width: 0
GlyphClass: 2
Flags: MW
HStem: 854 148.92
VStem: -214.09 208.94
LayerCount: 2
Fore
SplineSet
-6 996 m 0
 -9 1009 -55 938 -107 932 c 0
 -161 925 -209 1026 -213 998 c 0
 -220 958 -195 858 -114 854 c 0
 -36 851 2 959 -6 996 c 0
EndSplineSet
EndChar

StartChar: uniE230
Encoding: 560 57904 560
Width: 0
GlyphClass: 2
Flags: MW
HStem: -248 199<-105 -95>
VStem: -203 203<-151 -150>
LayerCount: 2
Fore
SplineSet
0 -150 m 1
 -105 -248 l 1
 -203 -151 l 1
 -95 -49 l 1
 0 -150 l 1
EndSplineSet
EndChar

StartChar: uniE231
Encoding: 561 57905 561
Width: 0
GlyphClass: 2
Flags: MW
HStem: -376 329<-101 -7>
VStem: -100.5 93
LayerCount: 2
Fore
SplineSet
-7 -47 m 1
 -8 -290 l 1
 -101 -376 l 1
 -100 -141 l 1
 -7 -47 l 1
EndSplineSet
EndChar

StartChar: uniE232
Encoding: 562 57906 562
Width: 1000
GlyphClass: 2
Flags: MW
HStem: 1 800<446 552 552 552>
VStem: 443 115
LayerCount: 2
Fore
SplineSet
445 402 m 1
 443 402 l 1
 444 1 l 1
 552 1 l 1
 553 402 l 1
 558 801 l 1
 446 801 l 1
 445 402 l 1
EndSplineSet
EndChar

StartChar: uniE233
Encoding: 563 57907 563
Width: 1000
GlyphClass: 2
Flags: MW
HStem: 211 376<246 247>
VStem: 154 184
LayerCount: 2
Fore
SplineSet
246 587 m 1
 154 496 l 1
 246 400 l 1
 337 494 l 1
 246 587 l 1
247 398 m 1
 155 307 l 1
 247 211 l 1
 338 305 l 1
 247 398 l 1
EndSplineSet
EndChar

StartChar: uniE234
Encoding: 564 57908 564
Width: 1000
GlyphClass: 2
Flags: MW
HStem: 116 562<246 247>
VStem: 154 184
LayerCount: 2
Fore
SplineSet
246 678 m 1
 154 587 l 1
 246 491 l 1
 337 585 l 1
 246 678 l 1
246 490 m 1
 154 399 l 1
 246 303 l 1
 337 397 l 1
 246 490 l 1
247 303 m 1
 155 212 l 1
 247 116 l 1
 338 210 l 1
 247 303 l 1
EndSplineSet
EndChar

StartChar: uniE260
Encoding: 565 57952 565
Width: 1000
GlyphClass: 2
Flags: MW
HStem: 450 92<354 584>
VStem: 354 230<450 542>
LayerCount: 2
Fore
SplineSet
354 450 m 5
 513 452 l 5
 584 542 l 5
 428 542 l 5
 354 450 l 5
EndSplineSet
EndChar

StartChar: uniE261
Encoding: 566 57953 566
Width: 1000
GlyphClass: 2
Flags: MW
HStem: 318 230<443 535>
VStem: 444 91
LayerCount: 2
Fore
SplineSet
443 318 m 5
 445 477 l 5
 535 548 l 5
 535 392 l 5
 443 318 l 5
EndSplineSet
EndChar

StartChar: uniE271
Encoding: 582 57969 567
Width: 1000
GlyphClass: 2
Flags: HMW
LayerCount: 2
Fore
SplineSet
844 693 m 1
 748 801 l 1
 150 804 l 1
 266 694 l 5
 844 693 l 1
EndSplineSet
EndChar

StartChar: uniE0C7E260.liga
Encoding: 613 -1 568
Width: 1000
GlyphClass: 3
Flags: HMW
HStem: 0 804<160 499>
VStem: 160 840<695 804>
LayerCount: 2
Fore
SplineSet
772 602 m 5
 931 604 l 5
 1002 694 l 5
 846 694 l 5
 772 602 l 5
EndSplineSet
Refer: 199 57543 N 1 0 0 1 0 0 2
Ligature2: "Consonantal Horizontal Line" uniE0C7 uniE260
EndChar

StartChar: uniE0C7E261.liga
Encoding: 614 -1 569
Width: 1000
GlyphClass: 3
Flags: HMW
HStem: 0 804<160 499>
VStem: 753 91
LayerCount: 2
Fore
SplineSet
752 464 m 5
 754 623 l 5
 844 694 l 5
 844 538 l 5
 752 464 l 5
EndSplineSet
Refer: 199 57543 N 1 0 0 1 0 0 2
Ligature2: "Consonantal Horizontal Line" uniE0C7 uniE261
EndChar

StartChar: uniE0C9E261.liga
Encoding: 617 -1 572
Width: 1000
GlyphClass: 3
Flags: HMW
HStem: 545 150.5
VStem: 495 89<400 400> 750 91
LayerCount: 2
Fore
SplineSet
752 464 m 5
 754 623 l 5
 844 694 l 5
 844 538 l 5
 752 464 l 5
EndSplineSet
Refer: 201 57545 N 1 0 0 1 0 0 2
Ligature2: "Consonantal Horizontal Line" uniE0C9 uniE261
EndChar

StartChar: uniE0C9E260.liga
Encoding: 618 -1 573
Width: 1000
GlyphClass: 3
Flags: HMW
HStem: 545 150.5
VStem: 495 89<400 400>
LayerCount: 2
Fore
SplineSet
772 602 m 5
 931 604 l 5
 1002 694 l 5
 846 694 l 5
 772 602 l 5
EndSplineSet
Refer: 201 57545 N 1 0 0 1 0 0 2
LCarets2: 1 0
Ligature2: "Consonantal Horizontal Line" uniE0C9 uniE260
EndChar

StartChar: uniE0CBE260.liga
Encoding: 621 -1 576
Width: 1000
GlyphClass: 3
Flags: HMW
HStem: 566.5 128.5
VStem: 150 850<695 804>
LayerCount: 2
Fore
SplineSet
772 602 m 5
 931 604 l 5
 1002 694 l 5
 846 694 l 5
 772 602 l 5
EndSplineSet
Refer: 203 57547 N 1 0 0 1 0 0 2
Ligature2: "Consonantal Horizontal Line" uniE0CB uniE260
EndChar

StartChar: uniE0CCE261.liga
Encoding: 623 -1 578
Width: 1000
GlyphClass: 3
Flags: HMW
HStem: 566.5 128.5
VStem: 150 694<693 804>
LayerCount: 2
Fore
SplineSet
752 464 m 5
 754 623 l 5
 844 694 l 5
 844 538 l 5
 752 464 l 5
EndSplineSet
Refer: 203 57547 N 1 0 0 1 0 0 2
LCarets2: 1 0
Ligature2: "Consonantal Horizontal Line" uniE0CC uniE261
EndChar

StartChar: uniE0CDE260.liga
Encoding: 625 -1 580
Width: 1000
GlyphClass: 3
Flags: HMW
HStem: 0 804<151 794>
VStem: 151 682<0 658 0 658>
LayerCount: 2
Fore
SplineSet
604 566 m 5
 763 568 l 5
 834 658 l 5
 678 658 l 5
 604 566 l 5
EndSplineSet
Refer: 205 57549 N 1 0 0 1 0 0 2
Ligature2: "Consonantal Horizontal Line" uniE0CD uniE260
EndChar

StartChar: uniE0CBE261.liga
Encoding: 626 -1 581
Width: 1000
GlyphClass: 3
Flags: HMW
HStem: 566.5 128.5
VStem: 752 91
LayerCount: 2
Fore
SplineSet
584 429 m 5
 586 588 l 5
 676 659 l 5
 676 503 l 5
 584 429 l 5
EndSplineSet
Refer: 205 57549 N 1 0 0 1 0 0 2
Ligature2: "Consonantal Horizontal Line" uniE0CB uniE261
EndChar

StartChar: uniE0CEE261.liga
Encoding: 627 -1 582
Width: 1000
GlyphClass: 3
Flags: HMW
HStem: 1 800<250 842 392 842>
VStem: 660 91
LayerCount: 2
Fore
SplineSet
661 456 m 5
 663 615 l 5
 753 686 l 5
 753 530 l 5
 661 456 l 5
EndSplineSet
Refer: 206 57550 N 1 0 0 1 0 0 2
Ligature2: "Consonantal Horizontal Line" uniE0CE uniE261
EndChar

StartChar: uniE0CEE260.liga
Encoding: 628 -1 583
Width: 1000
GlyphClass: 3
Flags: HMW
HStem: 1 800<250 842 392 842>
VStem: 158 752<688 800>
LayerCount: 2
Fore
SplineSet
680 596 m 5
 839 598 l 5
 910 688 l 5
 754 688 l 5
 680 596 l 5
EndSplineSet
Refer: 206 57550 N 1 0 0 1 0 0 2
Ligature2: "Consonantal Horizontal Line" uniE0CE uniE260
EndChar

StartChar: uniE0CFE261.liga
Encoding: 629 -1 584
Width: 1000
GlyphClass: 3
Flags: HMW
HStem: 0 799<151 151>
VStem: 540 91
LayerCount: 2
Fore
SplineSet
539 456 m 5
 541 615 l 5
 631 686 l 5
 631 530 l 5
 539 456 l 5
EndSplineSet
Refer: 207 57551 N 1 0 0 1 0 0 2
Ligature2: "Consonantal Horizontal Line" uniE0CF uniE261
EndChar

StartChar: uniE0CFE260.liga
Encoding: 630 -1 585
Width: 1000
GlyphClass: 3
Flags: HMW
HStem: 0 799<151 151>
VStem: 151 636<685 685 685 799>
LayerCount: 2
Fore
SplineSet
560 594 m 5
 719 596 l 5
 790 686 l 5
 634 686 l 5
 560 594 l 5
EndSplineSet
Refer: 207 57551 N 1 0 0 1 0 0 2
Ligature2: "Consonantal Horizontal Line" uniE0CF uniE260
EndChar

StartChar: uniE0D1E261.liga
Encoding: 633 -1 588
Width: 1000
GlyphClass: 3
Flags: HMW
HStem: 574 112
VStem: 652 91
LayerCount: 2
Fore
SplineSet
652 456 m 5
 654 615 l 5
 744 686 l 5
 744 530 l 5
 652 456 l 5
EndSplineSet
Refer: 209 57553 N 1 0 0 1 0 0 2
Ligature2: "Consonantal Horizontal Line" uniE0D1 uniE261
EndChar

StartChar: uniE0D1E260.liga
Encoding: 634 -1 589
Width: 1000
GlyphClass: 3
Flags: HMW
HStem: 574 112
VStem: 151 752<688 801>
LayerCount: 2
Fore
SplineSet
670 596 m 5
 829 598 l 5
 900 688 l 5
 744 688 l 5
 670 596 l 5
EndSplineSet
Refer: 209 57553 N 1 0 0 1 0 0 2
Ligature2: "Consonantal Horizontal Line" uniE0D1 uniE260
EndChar

StartChar: uniE0D3E261.liga
Encoding: 637 -1 592
Width: 1000
GlyphClass: 3
Flags: HMW
HStem: 4 795<235 235>
VStem: 241 99 555 91
LayerCount: 2
Fore
SplineSet
554 456 m 5
 556 615 l 5
 646 686 l 5
 646 530 l 5
 554 456 l 5
EndSplineSet
Refer: 211 57555 N 1 0 0 1 0 0 2
Ligature2: "Consonantal Horizontal Line" uniE0D3 uniE261
EndChar

StartChar: uniE0D3E260.liga
Encoding: 639 -1 594
Width: 1000
GlyphClass: 3
Flags: HMW
HStem: 4 795<235 235>
VStem: 241 99
LayerCount: 2
Fore
SplineSet
574 594 m 5
 733 596 l 5
 804 686 l 5
 648 686 l 5
 574 594 l 5
EndSplineSet
Refer: 211 57555 N 1 0 0 1 0 0 2
Ligature2: "Consonantal Horizontal Line" uniE0D3 uniE260
EndChar

StartChar: uniE0D5E261.liga
Encoding: 641 -1 596
Width: 1000
GlyphClass: 3
Flags: HMW
HStem: 0 799<499 652 652 652>
VStem: 551 91
LayerCount: 2
Fore
SplineSet
550 456 m 5
 552 615 l 5
 642 686 l 5
 642 530 l 5
 550 456 l 5
EndSplineSet
Refer: 213 57557 N 1 0 0 1 0 0 2
Ligature2: "Consonantal Horizontal Line" uniE0D5 uniE261
EndChar

StartChar: uniE0D5E260.liga
Encoding: 642 -1 597
Width: 1000
GlyphClass: 3
Flags: HMW
HStem: 0 799<499 652 652 652>
VStem: 151 651<688 688 688 799 319 688>
LayerCount: 2
Fore
SplineSet
568 594 m 5
 727 596 l 5
 798 686 l 5
 642 686 l 5
 568 594 l 5
EndSplineSet
Refer: 213 57557 N 1 0 0 1 0 0 2
Ligature2: "Consonantal Horizontal Line" uniE0D5 uniE260
EndChar

StartChar: uniE0D7E261.liga
Encoding: 645 -1 600
Width: 1000
GlyphClass: 3
Flags: HMW
HStem: 0 802<499 749 631 749>
VStem: 554 91
LayerCount: 2
Fore
SplineSet
556 452 m 5
 558 611 l 5
 648 682 l 5
 648 526 l 5
 556 452 l 5
EndSplineSet
Refer: 215 57559 N 1 0 0 1 0 0 2
Ligature2: "Consonantal Horizontal Line" uniE0D7 uniE261
EndChar

StartChar: uniE0D7E260.liga
Encoding: 646 -1 601
Width: 1000
GlyphClass: 3
Flags: HMW
HStem: 0 802<499 749 631 749>
VStem: 151 654<682 799>
LayerCount: 2
Fore
SplineSet
574 590 m 5
 733 592 l 5
 804 682 l 5
 648 682 l 5
 574 590 l 5
EndSplineSet
Refer: 215 57559 N 1 0 0 1 0 0 2
Ligature2: "Consonantal Horizontal Line" uniE0D7 uniE260
EndChar

StartChar: uniE0D9E261.liga
Encoding: 649 -1 604
Width: 1000
GlyphClass: 3
Flags: HMW
HStem: 0 802<151 153>
VStem: 752 91
LayerCount: 2
Fore
SplineSet
752 464 m 5
 754 623 l 5
 844 694 l 5
 844 538 l 5
 752 464 l 5
EndSplineSet
Refer: 217 57561 N 1 0 0 1 0 0 2
Ligature2: "Consonantal Horizontal Line" uniE0D9 uniE261
EndChar

StartChar: uniE0D9E260.liga
Encoding: 650 -1 605
Width: 1000
GlyphClass: 3
Flags: HMW
HStem: 0 802<151 153>
VStem: 151 849<0 668 0 668>
LayerCount: 2
Fore
SplineSet
772 577 m 5
 931 579 l 5
 1002 669 l 5
 846 669 l 5
 772 577 l 5
EndSplineSet
Refer: 217 57561 N 1 0 0 1 0 0 2
Ligature2: "Consonantal Horizontal Line" uniE0D9 uniE260
EndChar

StartChar: uniE0DBE261.liga
Encoding: 653 -1 608
Width: 1000
GlyphClass: 3
Flags: HMW
HStem: 399 293.5
VStem: 645 91
LayerCount: 2
Fore
SplineSet
644 458 m 5
 646 617 l 5
 736 688 l 5
 736 532 l 5
 644 458 l 5
EndSplineSet
Refer: 219 57563 N 1 0 0 1 0 0 2
Ligature2: "Consonantal Horizontal Line" uniE0DB uniE261
EndChar

StartChar: uniE0DBE260.liga
Encoding: 654 -1 609
Width: 1000
GlyphClass: 3
Flags: HMW
HStem: 399 200
VStem: 151 743<690 799>
LayerCount: 2
Fore
SplineSet
662 598 m 5
 821 600 l 5
 892 690 l 5
 736 690 l 5
 662 598 l 5
EndSplineSet
Refer: 219 57563 N 1 0 0 1 0 0 2
Ligature2: "Consonantal Horizontal Line" uniE0DB uniE260
EndChar

StartChar: uniE0DCE261.liga
Encoding: 655 -1 610
Width: 1000
GlyphClass: 3
Flags: HMW
HStem: -15 819<499 499>
VStem: 665 91
LayerCount: 2
Fore
SplineSet
666 451 m 5
 668 610 l 5
 758 681 l 5
 758 525 l 5
 666 451 l 5
EndSplineSet
Refer: 220 57564 N 1 0 0 1 0 0 2
Ligature2: "Consonantal Horizontal Line" uniE0DC uniE261
EndChar

StartChar: uniE0DCE260.liga
Encoding: 656 -1 611
Width: 1000
GlyphClass: 3
Flags: HMW
HStem: -15 819<499 499>
VStem: 189 728<605 683>
LayerCount: 2
Fore
SplineSet
686 592 m 5
 845 594 l 5
 916 684 l 5
 760 684 l 5
 686 592 l 5
EndSplineSet
Refer: 220 57564 N 1 0 0 1 0 0 2
Ligature2: "Consonantal Horizontal Line" uniE0DC uniE260
EndChar

StartChar: uniE0DEE261.liga
Encoding: 659 -1 614
Width: 1000
GlyphClass: 3
Flags: HMW
HStem: 574 116.5
VStem: 742 91
LayerCount: 2
Fore
SplineSet
752 464 m 5
 754 623 l 5
 844 694 l 5
 844 538 l 5
 752 464 l 5
EndSplineSet
Refer: 222 57566 N 1 0 0 1 0 0 2
Ligature2: "Consonantal Horizontal Line" uniE0DE uniE261
EndChar

StartChar: uniE0DEE260.liga
Encoding: 660 -1 615
Width: 1000
GlyphClass: 3
Flags: HMW
HStem: 574 116.5
VStem: 151 843<692 799>
LayerCount: 2
Fore
SplineSet
772 602 m 5
 931 604 l 5
 1002 694 l 5
 846 694 l 5
 772 602 l 5
EndSplineSet
Refer: 222 57566 N 1 0 0 1 0 0 2
Ligature2: "Consonantal Horizontal Line" uniE0DE uniE260
EndChar

StartChar: uniE0DFE261.liga
Encoding: 661 -1 616
Width: 1000
GlyphClass: 3
Flags: HMW
HStem: 399 292
VStem: 642 91
LayerCount: 2
Fore
SplineSet
644 458 m 5
 646 617 l 5
 736 688 l 5
 736 532 l 5
 644 458 l 5
EndSplineSet
Refer: 223 57567 N 1 0 0 1 0 0 2
Ligature2: "Consonantal Horizontal Line" uniE0DF uniE261
EndChar

StartChar: uniE0DFE260.liga
Encoding: 662 -1 617
Width: 1000
GlyphClass: 3
Flags: HMW
HStem: 399 292
VStem: 151 746<0 688 688 799>
LayerCount: 2
Fore
SplineSet
665 596 m 5
 824 598 l 5
 895 688 l 5
 739 688 l 5
 665 596 l 5
EndSplineSet
Refer: 223 57567 N 1 0 0 1 0 0 2
Ligature2: "Consonantal Horizontal Line" uniE0DF uniE260
EndChar

StartChar: uniE0E1E261.liga
Encoding: 665 -1 620
Width: 1000
GlyphClass: 3
Flags: HMW
HStem: 401 290
VStem: 634 91
LayerCount: 2
Fore
SplineSet
634 456 m 5
 636 615 l 5
 726 686 l 5
 726 530 l 5
 634 456 l 5
EndSplineSet
Refer: 225 57569 N 1 0 0 1 0 0 2
Ligature2: "Consonantal Horizontal Line" uniE0E1 uniE261
EndChar

StartChar: uniE0E1E260.liga
Encoding: 666 -1 621
Width: 1000
GlyphClass: 3
Flags: HMW
HStem: 401 290
VStem: 151 735<688 799>
LayerCount: 2
Fore
SplineSet
655 597 m 5
 814 599 l 5
 885 689 l 5
 729 689 l 5
 655 597 l 5
EndSplineSet
Refer: 225 57569 N 1 0 0 1 0 0 2
Ligature2: "Consonantal Horizontal Line" uniE0E1 uniE260
EndChar

StartChar: uniE0E7E261.liga
Encoding: 677 -1 632
Width: 1000
GlyphClass: 3
Flags: HMW
HStem: 346.5 118 688.5 111
VStem: 151 110 499 110.5 652 91
LayerCount: 2
Fore
SplineSet
652 455 m 5
 654 614 l 5
 744 685 l 5
 744 529 l 5
 652 455 l 5
EndSplineSet
Refer: 231 57575 N 1 0 0 1 0 0 2
Ligature2: "Consonantal Horizontal Line" uniE0E7 uniE261
EndChar

StartChar: uniE0E7E260.liga
Encoding: 678 -1 633
Width: 1000
GlyphClass: 3
Flags: HMW
HStem: 346.5 118 688.5 111
VStem: 151 110 499 110.5
LayerCount: 2
Fore
SplineSet
673 595 m 5
 832 597 l 5
 903 687 l 5
 747 687 l 5
 673 595 l 5
EndSplineSet
Refer: 231 57575 N 1 0 0 1 0 0 2
Ligature2: "Consonantal Horizontal Line" uniE0E7 uniE260
EndChar

StartChar: uniE0E9E261.liga
Encoding: 680 -1 635
Width: 1000
GlyphClass: 3
Flags: HMW
HStem: 563 126
VStem: 246 93 641 91
LayerCount: 2
Fore
SplineSet
640 456 m 5
 642 615 l 5
 732 686 l 5
 732 530 l 5
 640 456 l 5
EndSplineSet
Refer: 233 57577 N 1 0 0 1 0 0 2
Ligature2: "Consonantal Horizontal Line" uniE0E9 uniE261
EndChar

StartChar: uniE0E9E260.liga
Encoding: 682 -1 637
Width: 1000
GlyphClass: 3
Flags: HMW
HStem: 563 126
VStem: 246 93
LayerCount: 2
Fore
SplineSet
660 596 m 5
 819 598 l 5
 890 688 l 5
 734 688 l 5
 660 596 l 5
EndSplineSet
Refer: 233 57577 N 1 0 0 1 0 0 2
Ligature2: "Consonantal Horizontal Line" uniE0E9 uniE260
EndChar

StartChar: uniE0EBE261.liga
Encoding: 684 -1 639
Width: 1000
GlyphClass: 3
Flags: HMW
HStem: 506 182.5
VStem: 245.5 255 651 91
LayerCount: 2
Fore
SplineSet
651 456 m 5
 653 615 l 5
 743 686 l 5
 743 530 l 5
 651 456 l 5
EndSplineSet
Refer: 235 57579 N 1 0 0 1 0 0 2
Ligature2: "Consonantal Horizontal Line" uniE0EB uniE261
EndChar

StartChar: uniE0EBE260.liga
Encoding: 686 -1 641
Width: 1000
GlyphClass: 3
Flags: HMW
HStem: 506 182.5
VStem: 245.5 255
LayerCount: 2
Fore
SplineSet
668 594 m 5
 827 596 l 5
 898 686 l 5
 742 686 l 5
 668 594 l 5
EndSplineSet
Refer: 235 57579 N 1 0 0 1 0 0 2
Ligature2: "Consonantal Horizontal Line" uniE0EB uniE260
EndChar

StartChar: uniE0EDE261.liga
Encoding: 688 -1 643
Width: 1000
GlyphClass: 3
Flags: HMW
HStem: 399 110.5 680 119.5
VStem: 151 124.5 655 91
LayerCount: 2
Fore
SplineSet
656 460 m 5
 658 619 l 5
 748 690 l 5
 748 534 l 5
 656 460 l 5
EndSplineSet
Refer: 237 57581 N 1 0 0 1 0 0 2
Ligature2: "Consonantal Horizontal Line" uniE0ED uniE261
EndChar

StartChar: uniE0EEE261.liga
Encoding: 690 -1 645
Width: 1000
GlyphClass: 3
Flags: HMW
HStem: 398 107 681.5 118
VStem: 151 103<506 684 506 801> 655 91
LayerCount: 2
Fore
SplineSet
655 450 m 5
 657 609 l 5
 747 680 l 5
 747 524 l 5
 655 450 l 5
EndSplineSet
Refer: 238 57582 N 1 0 0 1 0 0 2
Ligature2: "Consonantal Horizontal Line" uniE0EE uniE261
EndChar

StartChar: uniE0EEE260.liga
Encoding: 691 -1 646
Width: 1000
GlyphClass: 3
Flags: HMW
HStem: 398 107 681.5 118
VStem: 151 103<506 684 506 801>
LayerCount: 2
Fore
SplineSet
674 597 m 5
 833 599 l 5
 904 689 l 5
 748 689 l 5
 674 597 l 5
EndSplineSet
Refer: 237 57581 N 1 0 0 1 0 0 2
Ligature2: "Consonantal Horizontal Line" uniE0EE uniE260
EndChar

StartChar: uniE0EFE260.liga
Encoding: 693 -1 648
Width: 1000
GlyphClass: 3
Flags: HMW
HStem: 398 107 681.5 118
VStem: 654 103<506 684 684 684>
LayerCount: 2
Fore
SplineSet
674 590 m 5
 833 592 l 5
 904 682 l 5
 748 682 l 5
 674 590 l 5
EndSplineSet
Refer: 238 57582 N 1 0 0 1 0 0 2
Ligature2: "Consonantal Horizontal Line" uniE0EF uniE260
EndChar

StartChar: uniE0F0E261.liga
Encoding: 695 -1 650
Width: 1000
GlyphClass: 3
Flags: HMW
HStem: 399 281.5
VStem: 750 91
LayerCount: 2
Fore
SplineSet
752 464 m 5
 754 623 l 5
 844 694 l 5
 844 538 l 5
 752 464 l 5
EndSplineSet
Refer: 240 57584 N 1 0 0 1 0 0 2
Ligature2: "Consonantal Horizontal Line" uniE0F0 uniE261
EndChar

StartChar: uniE0F0E260.liga
Encoding: 696 -1 651
Width: 1000
GlyphClass: 3
Flags: HMW
HStem: 399 192 574 106.5
VStem: 151 849<0 682>
LayerCount: 2
Fore
SplineSet
771 590 m 5x20
 930 592 l 5
 1001 682 l 5
 845 682 l 5
 771 590 l 5x20
EndSplineSet
Refer: 240 57584 N 1 0 0 1 0 0 2
Ligature2: "Consonantal Horizontal Line" uniE0F0 uniE260
EndChar

StartChar: uniE0F2E261.liga
Encoding: 699 -1 654
Width: 1000
GlyphClass: 3
Flags: HMW
HStem: 449 241.5
VStem: 389 110 751 91
LayerCount: 2
Fore
SplineSet
752 464 m 5
 754 623 l 5
 844 694 l 5
 844 538 l 5
 752 464 l 5
EndSplineSet
Refer: 242 57586 N 1 0 0 1 0 0 2
Ligature2: "Consonantal Horizontal Line" uniE0F2 uniE261
EndChar

StartChar: uniE0F2E260.liga
Encoding: 701 -1 656
Width: 1000
GlyphClass: 3
Flags: HMW
HStem: 449 241.5
VStem: 389 110
LayerCount: 2
Fore
SplineSet
771 599 m 5
 930 601 l 5
 1001 691 l 5
 845 691 l 5
 771 599 l 5
EndSplineSet
Refer: 242 57586 N 1 0 0 1 0 0 2
Ligature2: "Consonantal Horizontal Line" uniE0F2 uniE260
EndChar

StartChar: uniE262
Encoding: 567 57954 752
Width: 1000
GlyphClass: 2
Flags: W
HStem: 295 260
LayerCount: 2
Fore
SplineSet
335 462 m 5
 428 555 l 5
 548.727539062 514.713867188 610.05859375 397.473632812 565 295 c 5
 603.158203125 338.060546875 427.622070312 511.018554688 335 462 c 5
EndSplineSet
EndChar

StartChar: uniE0C7E262.liga
Encoding: 797 -1 753
Width: 1000
GlyphClass: 3
Flags: HMW
HStem: 0 804<160 499>
VStem: 160 684<695 804>
LayerCount: 2
Fore
SplineSet
751 602 m 5
 844 695 l 5
 964.727539062 654.713867188 1026.05859375 537.473632812 981 435 c 5
 1019.15820312 478.060546875 843.622070312 651.018554688 751 602 c 5
EndSplineSet
Refer: 199 57543 N 1 0 0 1 0 0 2
Ligature2: "Consonantal Horizontal Line" uniE0C7 uniE262
EndChar

StartChar: uniE0C9E262.liga
Encoding: 799 -1 755
Width: 1000
GlyphClass: 3
Flags: HM
LayerCount: 2
Fore
SplineSet
748 602 m 5
 841 695 l 5
 961.727539062 654.713867188 1023.05859375 537.473632812 978 435 c 5
 1016.15820312 478.060546875 840.622070312 651.018554688 748 602 c 5
EndSplineSet
Refer: 201 57545 N 1 0 0 1 0 0 2
Ligature2: "Consonantal Horizontal Line" uniE0C9 uniE262
EndChar

StartChar: uniE0CBE262.liga
Encoding: 801 -1 757
Width: 1000
GlyphClass: 3
Flags: HM
LayerCount: 2
Fore
SplineSet
750 602 m 5
 843 695 l 5
 963.727539062 654.713867188 1025.05859375 537.473632812 980 435 c 5
 1018.15820312 478.060546875 842.622070312 651.018554688 750 602 c 5
EndSplineSet
Refer: 203 57547 N 1 0 0 1 0 0 2
Ligature2: "Consonantal Horizontal Line" uniE0CB uniE262
EndChar

StartChar: uniE0CDE262.liga
Encoding: 803 -1 759
Width: 1000
GlyphClass: 3
Flags: HM
LayerCount: 2
Fore
SplineSet
584 563 m 5
 677 656 l 5
 797.727539062 615.713867188 859.05859375 498.473632812 814 396 c 5
 852.158203125 439.060546875 676.622070312 612.018554688 584 563 c 5
EndSplineSet
Refer: 205 57549 N 1 0 0 1 0 0 2
Ligature2: "Consonantal Horizontal Line" uniE0CD uniE262
EndChar

StartChar: uniE0CEE262.liga
Encoding: 804 -1 760
Width: 1000
GlyphClass: 3
Flags: HM
LayerCount: 2
Fore
SplineSet
660 595 m 5
 753 688 l 5
 873.727539062 647.713867188 935.05859375 530.473632812 890 428 c 5
 928.158203125 471.060546875 752.622070312 644.018554688 660 595 c 5
EndSplineSet
Refer: 206 57550 N 1 0 0 1 0 0 2
Ligature2: "Consonantal Horizontal Line" uniE0CE uniE262
EndChar

StartChar: uniE0CFE262.liga
Encoding: 805 -1 761
Width: 1000
GlyphClass: 3
Flags: HM
LayerCount: 2
Fore
SplineSet
539 593 m 5
 632 686 l 5
 752.727539062 645.713867188 814.05859375 528.473632812 769 426 c 5
 807.158203125 469.060546875 631.622070312 642.018554688 539 593 c 5
EndSplineSet
Refer: 207 57551 N 1 0 0 1 0 0 2
Ligature2: "Consonantal Horizontal Line" uniE0CF uniE262
EndChar

StartChar: uniE0D1E262.liga
Encoding: 807 -1 763
Width: 1000
GlyphClass: 3
Flags: HM
LayerCount: 2
Fore
SplineSet
650 593 m 5
 743 686 l 5
 863.727539062 645.713867188 925.05859375 528.473632812 880 426 c 5
 918.158203125 469.060546875 742.622070312 642.018554688 650 593 c 5
EndSplineSet
Refer: 209 57553 N 1 0 0 1 0 0 2
Ligature2: "Consonantal Horizontal Line" uniE0D1 uniE262
EndChar

StartChar: uniE0D3E262.liga
Encoding: 809 -1 765
Width: 1000
GlyphClass: 3
Flags: HM
LayerCount: 2
Fore
SplineSet
554 595 m 5
 647 688 l 5
 767.727539062 647.713867188 829.05859375 530.473632812 784 428 c 5
 822.158203125 471.060546875 646.622070312 644.018554688 554 595 c 5
EndSplineSet
Refer: 211 57555 N 1 0 0 1 0 0 2
Ligature2: "Consonantal Horizontal Line" uniE0D3 uniE262
EndChar

StartChar: uniE0D5E262.liga
Encoding: 811 -1 767
Width: 1000
GlyphClass: 3
Flags: HM
LayerCount: 2
Fore
SplineSet
552 594 m 5
 645 687 l 5
 765.727539062 646.713867188 827.05859375 529.473632812 782 427 c 5
 820.158203125 470.060546875 644.622070312 643.018554688 552 594 c 5
EndSplineSet
Refer: 213 57557 N 1 0 0 1 0 0 2
Ligature2: "Consonantal Horizontal Line" uniE0D5 uniE262
EndChar

StartChar: uniE0D7E262.liga
Encoding: 813 -1 769
Width: 1000
GlyphClass: 3
Flags: HM
LayerCount: 2
Fore
SplineSet
556 589 m 5
 649 682 l 5
 769.727539062 641.713867188 831.05859375 524.473632812 786 422 c 5
 824.158203125 465.060546875 648.622070312 638.018554688 556 589 c 5
EndSplineSet
Refer: 215 57559 N 1 0 0 1 0 0 2
Ligature2: "Consonantal Horizontal Line" uniE0D7 uniE262
EndChar

StartChar: uniE0D9E262.liga
Encoding: 815 -1 771
Width: 1000
GlyphClass: 3
Flags: HM
LayerCount: 2
Fore
SplineSet
750 575 m 5
 843 668 l 5
 963.727539062 627.713867188 1025.05859375 510.473632812 980 408 c 5
 1018.15820312 451.060546875 842.622070312 624.018554688 750 575 c 5
EndSplineSet
Refer: 217 57561 N 1 0 0 1 0 0 2
Ligature2: "Consonantal Horizontal Line" uniE0D9 uniE262
EndChar

StartChar: uniE0DBE262.liga
Encoding: 817 -1 773
Width: 1000
GlyphClass: 3
Flags: HM
LayerCount: 2
Fore
SplineSet
644 597 m 5
 737 690 l 5
 857.727539062 649.713867188 919.05859375 532.473632812 874 430 c 5
 912.158203125 473.060546875 736.622070312 646.018554688 644 597 c 5
EndSplineSet
Refer: 219 57563 N 1 0 0 1 0 0 2
Ligature2: "Consonantal Horizontal Line" uniE0DB uniE262
EndChar

StartChar: uniE0DCE262.liga
Encoding: 818 -1 774
Width: 1000
GlyphClass: 3
Flags: HM
LayerCount: 2
Fore
SplineSet
667 590 m 5
 760 683 l 5
 880.727539062 642.713867188 942.05859375 525.473632812 897 423 c 5
 935.158203125 466.060546875 759.622070312 639.018554688 667 590 c 5
EndSplineSet
Refer: 220 57564 N 1 0 0 1 0 0 2
Ligature2: "Consonantal Horizontal Line" uniE0DC uniE262
EndChar

StartChar: uniE0DEE262.liga
Encoding: 820 -1 776
Width: 1000
GlyphClass: 3
Flags: HM
LayerCount: 2
Fore
SplineSet
742 596 m 5
 835 689 l 5
 955.727539062 648.713867188 1017.05859375 531.473632812 972 429 c 5
 1010.15820312 472.060546875 834.622070312 645.018554688 742 596 c 5
EndSplineSet
Refer: 222 57566 N 1 0 0 1 0 0 2
Ligature2: "Consonantal Horizontal Line" uniE0DE uniE262
EndChar

StartChar: uniE0DFE262.liga
Encoding: 821 -1 777
Width: 1000
GlyphClass: 3
Flags: HM
LayerCount: 2
Fore
SplineSet
642 593 m 5
 735 686 l 5
 855.727539062 645.713867188 917.05859375 528.473632812 872 426 c 5
 910.158203125 469.060546875 734.622070312 642.018554688 642 593 c 5
EndSplineSet
Refer: 223 57567 N 1 0 0 1 0 0 2
Ligature2: "Consonantal Horizontal Line" uniE0DF uniE262
EndChar

StartChar: uniE0E1E262.liga
Encoding: 823 -1 779
Width: 1000
GlyphClass: 3
Flags: HM
LayerCount: 2
Fore
SplineSet
636 595 m 5
 729 688 l 5
 849.727539062 647.713867188 911.05859375 530.473632812 866 428 c 5
 904.158203125 471.060546875 728.622070312 644.018554688 636 595 c 5
EndSplineSet
Refer: 225 57569 N 1 0 0 1 0 0 2
Ligature2: "Consonantal Horizontal Line" uniE0E1 uniE262
EndChar

StartChar: uniE0E7E262.liga
Encoding: 829 -1 785
Width: 1000
GlyphClass: 3
Flags: HM
LayerCount: 2
Fore
SplineSet
652 591 m 5
 745 684 l 5
 865.727539062 643.713867188 927.05859375 526.473632812 882 424 c 5
 920.158203125 467.060546875 744.622070312 640.018554688 652 591 c 5
EndSplineSet
Refer: 231 57575 N 1 0 0 1 0 0 2
Ligature2: "Consonantal Horizontal Line" uniE0E7 uniE262
EndChar

StartChar: uniE0E9E262.liga
Encoding: 831 -1 787
Width: 1000
GlyphClass: 3
Flags: HM
LayerCount: 2
Fore
SplineSet
640 595 m 5
 733 688 l 5
 853.727539062 647.713867188 915.05859375 530.473632812 870 428 c 5
 908.158203125 471.060546875 732.622070312 644.018554688 640 595 c 5
EndSplineSet
Refer: 233 57577 N 1 0 0 1 0 0 2
Ligature2: "Consonantal Horizontal Line" uniE0E9 uniE262
EndChar

StartChar: uniE0EBE262.liga
Encoding: 833 -1 789
Width: 1000
GlyphClass: 3
Flags: HM
LayerCount: 2
Fore
SplineSet
650 593 m 5
 743 686 l 5
 863.727539062 645.713867188 925.05859375 528.473632812 880 426 c 5
 918.158203125 469.060546875 742.622070312 642.018554688 650 593 c 5
EndSplineSet
Refer: 235 57579 N 1 0 0 1 0 0 2
Ligature2: "Consonantal Horizontal Line" uniE0EB uniE262
EndChar

StartChar: uniE0EDE262.liga
Encoding: 835 -1 791
Width: 1000
GlyphClass: 3
Flags: HM
LayerCount: 2
Fore
SplineSet
654 595 m 5
 747 688 l 5
 867.727539062 647.713867188 929.05859375 530.473632812 884 428 c 5
 922.158203125 471.060546875 746.622070312 644.018554688 654 595 c 5
EndSplineSet
Refer: 237 57581 N 1 0 0 1 0 0 2
Ligature2: "Consonantal Horizontal Line" uniE0ED uniE262
EndChar

StartChar: uniE0EEE262.liga
Encoding: 836 -1 792
Width: 1000
GlyphClass: 3
Flags: HM
LayerCount: 2
Fore
SplineSet
654 587 m 5
 747 680 l 5
 867.727539062 639.713867188 929.05859375 522.473632812 884 420 c 5
 922.158203125 463.060546875 746.622070312 636.018554688 654 587 c 5
EndSplineSet
Refer: 238 57582 N 1 0 0 1 0 0 2
Ligature2: "Consonantal Horizontal Line" uniE0EE uniE262
EndChar

StartChar: uniE0F0E262.liga
Encoding: 838 -1 794
Width: 1000
GlyphClass: 3
Flags: HM
LayerCount: 2
Fore
SplineSet
750 587 m 5
 843 680 l 5
 963.727539062 639.713867188 1025.05859375 522.473632812 980 420 c 5
 1018.15820312 463.060546875 842.622070312 636.018554688 750 587 c 5
EndSplineSet
Refer: 240 57584 N 1 0 0 1 0 0 2
Ligature2: "Consonantal Horizontal Line" uniE0F0 uniE262
EndChar

StartChar: uniE0F2E262.liga
Encoding: 840 -1 796
Width: 1000
GlyphClass: 3
Flags: HM
LayerCount: 2
Fore
SplineSet
750 597 m 5
 843 690 l 5
 963.727539062 649.713867188 1025.05859375 532.473632812 980 430 c 5
 1018.15820312 473.060546875 842.622070312 646.018554688 750 597 c 5
EndSplineSet
Refer: 242 57586 N 1 0 0 1 0 0 2
Ligature2: "Consonantal Horizontal Line" uniE0F2 uniE262
EndChar

StartChar: uniE0F5E262.liga
Encoding: 843 -1 799
Width: 1000
GlyphClass: 3
Flags: HMW
HStem: 0 804<160 499>
VStem: 160 684<0 109>
LayerCount: 2
Fore
SplineSet
751 202 m 5
 844 109 l 5
 964.727539062 149.286132812 1026.05859375 266.526367188 981 369 c 5
 1019.15820312 325.939453125 843.622070312 152.981445312 751 202 c 5
EndSplineSet
Refer: 199 57543 N 1 0 0 -1 0 804 2
Ligature2: "Consonantal Horizontal Line" uniE0F5 uniE262
EndChar

StartChar: uniE0F7E262.liga
Encoding: 845 -1 801
Width: 1000
GlyphClass: 3
Flags: HMW
LayerCount: 2
Fore
SplineSet
748 204 m 5
 841 111 l 5
 961.727539062 151.286132812 1023.05859375 268.526367188 978 371 c 5
 1016.15820312 327.939453125 840.622070312 154.981445312 748 204 c 5
EndSplineSet
Refer: 201 57545 N 1 0 0 -1 0 806 2
Ligature2: "Consonantal Horizontal Line" uniE0F7 uniE262
EndChar

StartChar: uniE0F9E262.liga
Encoding: 847 -1 803
Width: 1000
GlyphClass: 3
Flags: HMW
LayerCount: 2
Fore
SplineSet
750 202 m 5
 843 109 l 5
 963.727539062 149.286132812 1025.05859375 266.526367188 980 369 c 5
 1018.15820312 325.939453125 842.622070312 152.981445312 750 202 c 5
EndSplineSet
Refer: 203 57547 N 1 0 0 -1 0 804 2
Ligature2: "Consonantal Horizontal Line" uniE0F9 uniE262
EndChar

StartChar: uniE0FBE262.liga
Encoding: 849 -1 805
Width: 1000
GlyphClass: 3
Flags: HMW
LayerCount: 2
Fore
SplineSet
584 241 m 5
 677 148 l 5
 797.727539062 188.286132812 859.05859375 305.526367188 814 408 c 5
 852.158203125 364.939453125 676.622070312 191.981445312 584 241 c 5
EndSplineSet
Refer: 205 57549 N 1 0 0 -1 0 804 2
Ligature2: "Consonantal Horizontal Line" uniE0FB uniE262
EndChar

StartChar: uniE0FCE262.liga
Encoding: 850 -1 806
Width: 1000
GlyphClass: 3
Flags: HMW
LayerCount: 2
Fore
SplineSet
660 207 m 5
 753 114 l 5
 873.727539062 154.286132812 935.05859375 271.526367188 890 374 c 5
 928.158203125 330.939453125 752.622070312 157.981445312 660 207 c 5
EndSplineSet
Refer: 206 57550 N 1 0 0 -1 0 802 2
Ligature2: "Consonantal Horizontal Line" uniE0FC uniE262
EndChar

StartChar: uniE0FDE262.liga
Encoding: 851 -1 807
Width: 1000
GlyphClass: 3
Flags: HMW
LayerCount: 2
Fore
SplineSet
539 206 m 5
 632 113 l 5
 752.727539062 153.286132812 814.05859375 270.526367188 769 373 c 5
 807.158203125 329.939453125 631.622070312 156.981445312 539 206 c 5
EndSplineSet
Refer: 207 57551 N 1 0 0 -1 0 799 2
Ligature2: "Consonantal Horizontal Line" uniE0FD uniE262
EndChar

StartChar: uniE0FFE262.liga
Encoding: 853 -1 809
Width: 1000
GlyphClass: 3
Flags: HMW
LayerCount: 2
Fore
SplineSet
650 209 m 5
 743 116 l 5
 863.727539062 156.286132812 925.05859375 273.526367188 880 376 c 5
 918.158203125 332.939453125 742.622070312 159.981445312 650 209 c 5
EndSplineSet
Refer: 209 57553 N 1 0 0 -1 0 802 2
Ligature2: "Consonantal Horizontal Line" uniE0FF uniE262
EndChar

StartChar: uniE101E262.liga
Encoding: 855 -1 811
Width: 1000
GlyphClass: 3
Flags: HMW
LayerCount: 2
Fore
SplineSet
554 208 m 5
 647 115 l 5
 767.727539062 155.286132812 829.05859375 272.526367188 784 375 c 5
 822.158203125 331.939453125 646.622070312 158.981445312 554 208 c 5
EndSplineSet
Refer: 211 57555 N 1 0 0 -1 0 803 2
Ligature2: "Consonantal Horizontal Line" uniE101 uniE262
EndChar

StartChar: uniE103E262.liga
Encoding: 857 -1 813
Width: 1000
GlyphClass: 3
Flags: HMW
LayerCount: 2
Fore
SplineSet
552 205 m 5
 645 112 l 5
 765.727539062 152.286132812 827.05859375 269.526367188 782 372 c 5
 820.158203125 328.939453125 644.622070312 155.981445312 552 205 c 5
EndSplineSet
Refer: 213 57557 N 1 0 0 -1 0 799 2
Ligature2: "Consonantal Horizontal Line" uniE103 uniE262
EndChar

StartChar: uniE105E262.liga
Encoding: 859 -1 815
Width: 1000
GlyphClass: 3
Flags: HMW
LayerCount: 2
Fore
SplineSet
556 213 m 5
 649 120 l 5
 769.727539062 160.286132812 831.05859375 277.526367188 786 380 c 5
 824.158203125 336.939453125 648.622070312 163.981445312 556 213 c 5
EndSplineSet
Refer: 215 57559 N 1 0 0 -1 0 802 2
Ligature2: "Consonantal Horizontal Line" uniE105 uniE262
EndChar

StartChar: uniE107E262.liga
Encoding: 861 -1 817
Width: 1000
GlyphClass: 3
Flags: HMW
LayerCount: 2
Fore
SplineSet
750 227 m 5
 843 134 l 5
 963.727539062 174.286132812 1025.05859375 291.526367188 980 394 c 5
 1018.15820312 350.939453125 842.622070312 177.981445312 750 227 c 5
EndSplineSet
Refer: 217 57561 N 1 0 0 -1 0 802 2
Ligature2: "Consonantal Horizontal Line" uniE107 uniE262
EndChar

StartChar: uniE109E262.liga
Encoding: 863 -1 819
Width: 1000
GlyphClass: 3
Flags: HMW
LayerCount: 2
Fore
SplineSet
644 206 m 5
 737 113 l 5
 857.727539062 153.286132812 919.05859375 270.526367188 874 373 c 5
 912.158203125 329.939453125 736.622070312 156.981445312 644 206 c 5
EndSplineSet
Refer: 219 57563 N 1 0 0 -1 0 803 2
Ligature2: "Consonantal Horizontal Line" uniE109 uniE262
EndChar

StartChar: uniE10AE262.liga
Encoding: 864 -1 820
Width: 1000
GlyphClass: 3
Flags: HMW
LayerCount: 2
Fore
SplineSet
667 199 m 5
 760 106 l 5
 880.727539062 146.286132812 942.05859375 263.526367188 897 366 c 5
 935.158203125 322.939453125 759.622070312 149.981445312 667 199 c 5
EndSplineSet
Refer: 220 57564 N 1 0 0 -1 0 789 2
Ligature2: "Consonantal Horizontal Line" uniE10A uniE262
EndChar

StartChar: uniE10CE262.liga
Encoding: 866 -1 822
Width: 1000
GlyphClass: 3
Flags: HMW
LayerCount: 2
Fore
SplineSet
742 205 m 5
 835 112 l 5
 955.727539062 152.286132812 1017.05859375 269.526367188 972 372 c 5
 1010.15820312 328.939453125 834.622070312 155.981445312 742 205 c 5
EndSplineSet
Refer: 222 57566 N 1 0 0 -1 0 801 2
Ligature2: "Consonantal Horizontal Line" uniE10C uniE262
EndChar

StartChar: uniE10DE262.liga
Encoding: 867 -1 823
Width: 1000
GlyphClass: 3
Flags: HMW
LayerCount: 2
Fore
SplineSet
642 206 m 5
 735 113 l 5
 855.727539062 153.286132812 917.05859375 270.526367188 872 373 c 5
 910.158203125 329.939453125 734.622070312 156.981445312 642 206 c 5
EndSplineSet
Refer: 223 57567 N 1 0 0 -1 0 799 2
Ligature2: "Consonantal Horizontal Line" uniE10D uniE262
EndChar

StartChar: uniE10FE262.liga
Encoding: 869 -1 825
Width: 1000
GlyphClass: 3
Flags: HMW
LayerCount: 2
Fore
SplineSet
636 206 m 5
 729 113 l 5
 849.727539062 153.286132812 911.05859375 270.526367188 866 373 c 5
 904.158203125 329.939453125 728.622070312 156.981445312 636 206 c 5
EndSplineSet
Refer: 225 57569 N 1 0 0 -1 0 801 2
Ligature2: "Consonantal Horizontal Line" uniE10F uniE262
EndChar

StartChar: uniE115E262.liga
Encoding: 875 -1 831
Width: 1000
GlyphClass: 3
Flags: HMW
LayerCount: 2
Fore
SplineSet
652 213 m 5
 745 120 l 5
 865.727539062 160.286132812 927.05859375 277.526367188 882 380 c 5
 920.158203125 336.939453125 744.622070312 163.981445312 652 213 c 5
EndSplineSet
Refer: 231 57575 N 1 0 0 -1 0 804 2
Ligature2: "Consonantal Horizontal Line" uniE115 uniE262
EndChar

StartChar: uniE117E262.liga
Encoding: 877 -1 833
Width: 1000
GlyphClass: 3
Flags: HMW
LayerCount: 2
Fore
SplineSet
640 206 m 5
 733 113 l 5
 853.727539062 153.286132812 915.05859375 270.526367188 870 373 c 5
 908.158203125 329.939453125 732.622070312 156.981445312 640 206 c 5
EndSplineSet
Refer: 233 57577 N 1 0 0 -1 0 801 2
Ligature2: "Consonantal Horizontal Line" uniE117 uniE262
EndChar

StartChar: uniE119E262.liga
Encoding: 879 -1 835
Width: 1000
GlyphClass: 3
Flags: HMW
LayerCount: 2
Fore
SplineSet
650 206 m 5
 743 113 l 5
 863.727539062 153.286132812 925.05859375 270.526367188 880 373 c 5
 918.158203125 329.939453125 742.622070312 156.981445312 650 206 c 5
EndSplineSet
Refer: 235 57579 N 1 0 0 -1 0 799 2
Ligature2: "Consonantal Horizontal Line" uniE119 uniE262
EndChar

StartChar: uniE11BE262.liga
Encoding: 881 -1 837
Width: 1000
GlyphClass: 3
Flags: HMW
LayerCount: 2
Fore
SplineSet
654 206 m 5
 747 113 l 5
 867.727539062 153.286132812 929.05859375 270.526367188 884 373 c 5
 922.158203125 329.939453125 746.622070312 156.981445312 654 206 c 5
EndSplineSet
Refer: 237 57581 N 1 0 0 -1 0 801 2
Ligature2: "Consonantal Horizontal Line" uniE11B uniE262
EndChar

StartChar: uniE11CE262.liga
Encoding: 882 -1 838
Width: 1000
GlyphClass: 3
Flags: HMW
LayerCount: 2
Fore
SplineSet
654 216 m 5
 747 123 l 5
 867.727539062 163.286132812 929.05859375 280.526367188 884 383 c 5
 922.158203125 339.939453125 746.622070312 166.981445312 654 216 c 5
EndSplineSet
Refer: 238 57582 N 1 0 0 -1 0 803 2
Ligature2: "Consonantal Horizontal Line" uniE11C uniE262
EndChar

StartChar: uniE11EE262.liga
Encoding: 884 -1 840
Width: 1000
GlyphClass: 3
Flags: HMW
LayerCount: 2
Fore
SplineSet
750 217 m 5
 843 124 l 5
 963.727539062 164.286132812 1025.05859375 281.526367188 980 384 c 5
 1018.15820312 340.939453125 842.622070312 167.981445312 750 217 c 5
EndSplineSet
Refer: 240 57584 N 1 0 0 -1 0 804 2
Ligature2: "Consonantal Horizontal Line" uniE11E uniE262
EndChar

StartChar: uniE120E262.liga
Encoding: 886 -1 842
Width: 1000
GlyphClass: 3
Flags: HMW
LayerCount: 2
Fore
SplineSet
750 206 m 5
 843 113 l 5
 963.727539062 153.286132812 1025.05859375 270.526367188 980 373 c 5
 1018.15820312 329.939453125 842.622070312 156.981445312 750 206 c 5
EndSplineSet
Refer: 242 57586 N 1 0 0 -1 0 803 2
Ligature2: "Consonantal Horizontal Line" uniE120 uniE262
EndChar

StartChar: uniE0C7E265.liga
Encoding: 889 -1 845
Width: 1000
GlyphClass: 3
Flags: HMW
HStem: 295 260
LayerCount: 2
Fore
SplineSet
846 694 m 5
 939 601 l 5
 898.713867188 480.272460938 781.473632812 418.94140625 679 464 c 5
 722.060546875 425.841796875 895.018554688 601.377929688 846 694 c 5
EndSplineSet
Refer: 199 57543 N 1 0 0 1 0 0 2
Ligature2: "Consonantal Horizontal Line" uniE0C7 uniE265
EndChar

StartChar: uniE0C8E265.liga
Encoding: 890 -1 846
Width: 1000
GlyphClass: 3
Flags: HMW
HStem: 295 260
LayerCount: 2
Fore
SplineSet
253 694 m 5
 160 601 l 5
 200.286132812 480.272460938 317.526367188 418.94140625 420 464 c 5
 376.939453125 425.841796875 203.981445312 601.377929688 253 694 c 5
EndSplineSet
Refer: 199 57543 N -1 0 0 1 1099 0 2
Ligature2: "Consonantal Horizontal Line" uniE0C8 uniE265
EndChar

StartChar: uniE0C9E265.liga
Encoding: 891 -1 847
Width: 1000
GlyphClass: 3
Flags: HMW
LayerCount: 2
Fore
SplineSet
846 694 m 5
 939 601 l 5
 898.713867188 480.272460938 781.473632812 418.94140625 679 464 c 5
 722.060546875 425.841796875 895.018554688 601.377929688 846 694 c 5
EndSplineSet
Refer: 201 57545 N 1 0 0 1 0 0 2
Ligature2: "Consonantal Horizontal Line" uniE0C9 uniE265
EndChar

StartChar: uniE0CAE265.liga
Encoding: 892 -1 848
Width: 1000
GlyphClass: 3
Flags: HMW
LayerCount: 2
Fore
SplineSet
251 694 m 5
 158 601 l 5
 198.286132812 480.272460938 315.526367188 418.94140625 418 464 c 5
 374.939453125 425.841796875 201.981445312 601.377929688 251 694 c 5
EndSplineSet
Refer: 201 57545 N -1 0 0 1 1097 0 2
Ligature2: "Consonantal Horizontal Line" uniE0CA uniE265
EndChar

StartChar: uniE0CBE265.liga
Encoding: 893 -1 849
Width: 1000
GlyphClass: 3
Flags: HMW
LayerCount: 2
Fore
SplineSet
846 694 m 5
 939 601 l 5
 898.713867188 480.272460938 781.473632812 418.94140625 679 464 c 5
 722.060546875 425.841796875 895.018554688 601.377929688 846 694 c 5
EndSplineSet
Refer: 203 57547 N 1 0 0 1 0 0 2
Ligature2: "Consonantal Horizontal Line" uniE0CB uniE265
EndChar

StartChar: uniE0CCE265.liga
Encoding: 894 -1 850
Width: 1000
GlyphClass: 3
Flags: HMW
LayerCount: 2
Fore
SplineSet
243 694 m 5
 150 601 l 5
 190.286132812 480.272460938 307.526367188 418.94140625 410 464 c 5
 366.939453125 425.841796875 193.981445312 601.377929688 243 694 c 5
EndSplineSet
Refer: 203 57547 N -1 0 0 1 1089 0 2
Ligature2: "Consonantal Horizontal Line" uniE0CC uniE265
EndChar

StartChar: uniE0CDE265.liga
Encoding: 895 -1 851
Width: 1000
GlyphClass: 3
Flags: HMW
LayerCount: 2
Fore
SplineSet
684 654 m 5
 777 561 l 5
 736.713867188 440.272460938 619.473632812 378.94140625 517 424 c 5
 560.060546875 385.841796875 733.018554688 561.377929688 684 654 c 5
EndSplineSet
Refer: 205 57549 N 1 0 0 1 0 0 2
Ligature2: "Consonantal Horizontal Line" uniE0CD uniE265
EndChar

StartChar: uniE0CEE265.liga
Encoding: 896 -1 852
Width: 1000
GlyphClass: 3
Flags: HMW
LayerCount: 2
Fore
SplineSet
756 684 m 1
 849 591 l 1
 808.713867188 470.272460938 714.473632812 416.94140625 612 462 c 1
 655.060546875 423.841796875 805.018554688 591.377929688 756 684 c 1
EndSplineSet
Refer: 206 57550 N 1 0 0 1 0 0 2
Ligature2: "Consonantal Horizontal Line" uniE0CE uniE265
EndChar

StartChar: uniE0CFE265.liga
Encoding: 897 -1 853
Width: 1000
GlyphClass: 3
Flags: HMW
LayerCount: 2
Fore
SplineSet
635 680 m 5
 728 587 l 5
 687.713867188 466.272460938 570.473632812 404.94140625 468 450 c 5
 511.060546875 411.841796875 684.018554688 587.377929688 635 680 c 5
EndSplineSet
Refer: 207 57551 N 1 0 0 1 0 0 2
Ligature2: "Consonantal Horizontal Line" uniE0CF uniE265
EndChar

StartChar: uniE0D0E265.liga
Encoding: 898 -1 854
Width: 1000
GlyphClass: 3
Flags: HMW
LayerCount: 2
Fore
SplineSet
250 680 m 5
 157 587 l 5
 197.286132812 466.272460938 314.526367188 404.94140625 417 450 c 5
 373.939453125 411.841796875 200.981445312 587.377929688 250 680 c 5
EndSplineSet
Refer: 207 57551 N -1 0 0 1 885 0 2
Ligature2: "Consonantal Horizontal Line" uniE0D0 uniE265
EndChar

StartChar: uniE0D1E265.liga
Encoding: 899 -1 855
Width: 1000
GlyphClass: 3
Flags: HMW
LayerCount: 2
Fore
SplineSet
751 682 m 5
 844 589 l 5
 803.713867188 468.272460938 686.473632812 406.94140625 584 452 c 5
 627.060546875 413.841796875 800.018554688 589.377929688 751 682 c 5
EndSplineSet
Refer: 209 57553 N 1 0 0 1 0 0 2
Ligature2: "Consonantal Horizontal Line" uniE0D1 uniE265
EndChar

StartChar: uniE0D2E265.liga
Encoding: 900 -1 856
Width: 1000
GlyphClass: 3
Flags: HMW
LayerCount: 2
Fore
SplineSet
244 682 m 5
 151 589 l 5
 191.286132812 468.272460938 308.526367188 406.94140625 411 452 c 5
 367.939453125 413.841796875 194.981445312 589.377929688 244 682 c 5
EndSplineSet
Refer: 209 57553 N -1 0 0 1 995 0 2
Ligature2: "Consonantal Horizontal Line" uniE0D2 uniE265
EndChar

StartChar: uniE0D3E265.liga
Encoding: 901 -1 857
Width: 1000
GlyphClass: 3
Flags: HMW
LayerCount: 2
Fore
SplineSet
653 684 m 5
 746 591 l 5
 705.713867188 470.272460938 588.473632812 408.94140625 486 454 c 5
 529.060546875 415.841796875 702.018554688 591.377929688 653 684 c 5
EndSplineSet
Refer: 211 57555 N 1 0 0 1 0 0 2
Ligature2: "Consonantal Horizontal Line" uniE0D3 uniE265
EndChar

StartChar: uniE0D4E265.liga
Encoding: 902 -1 858
Width: 1000
GlyphClass: 3
Flags: HMW
LayerCount: 2
Fore
SplineSet
246 684 m 5
 153 591 l 5
 193.286132812 470.272460938 310.526367188 408.94140625 413 454 c 5
 369.939453125 415.841796875 196.981445312 591.377929688 246 684 c 5
EndSplineSet
Refer: 211 57555 N -1 0 0 1 899 0 2
Ligature2: "Consonantal Horizontal Line" uniE0D4 uniE265
EndChar

StartChar: uniE0D5E265.liga
Encoding: 903 -1 859
Width: 1000
GlyphClass: 3
Flags: HMW
LayerCount: 2
Fore
SplineSet
649 682 m 5
 742 589 l 5
 701.713867188 468.272460938 584.473632812 406.94140625 482 452 c 5
 525.060546875 413.841796875 698.018554688 589.377929688 649 682 c 5
EndSplineSet
Refer: 213 57557 N 1 0 0 1 0 0 2
Ligature2: "Consonantal Horizontal Line" uniE0D5 uniE265
EndChar

StartChar: uniE0D6E265.liga
Encoding: 904 -1 860
Width: 1000
GlyphClass: 3
Flags: HMW
LayerCount: 2
Fore
SplineSet
251 684 m 1
 158 591 l 1
 198.286132812 470.272460938 292.526367188 416.94140625 395 462 c 1
 351.939453125 423.841796875 201.981445312 591.377929688 251 684 c 1
EndSplineSet
Refer: 206 57550 N -1 0 0 1 1007 0 2
Ligature2: "Consonantal Horizontal Line" uniE0D6 uniE265
EndChar

StartChar: uniE0D7E265.liga
Encoding: 905 -1 861
Width: 1000
GlyphClass: 3
Flags: HMW
LayerCount: 2
Fore
SplineSet
654 678 m 5
 747 585 l 5
 706.713867188 464.272460938 589.473632812 402.94140625 487 448 c 5
 530.060546875 409.841796875 703.018554688 585.377929688 654 678 c 5
EndSplineSet
Refer: 215 57559 N 1 0 0 1 0 0 2
Ligature2: "Consonantal Horizontal Line" uniE0D7 uniE265
EndChar

StartChar: uniE0D8E265.liga
Encoding: 906 -1 862
Width: 1000
GlyphClass: 3
Flags: HMW
LayerCount: 2
Fore
SplineSet
246 678 m 5
 153 585 l 5
 193.286132812 464.272460938 310.526367188 402.94140625 413 448 c 5
 369.939453125 409.841796875 196.981445312 585.377929688 246 678 c 5
EndSplineSet
Refer: 215 57559 N -1 0 0 1 900 0 2
Ligature2: "Consonantal Horizontal Line" uniE0D8 uniE265
EndChar

StartChar: uniE0D9E265.liga
Encoding: 907 -1 863
Width: 1000
GlyphClass: 3
Flags: HMW
LayerCount: 2
Fore
SplineSet
846 666 m 5
 939 573 l 5
 898.713867188 452.272460938 781.473632812 390.94140625 679 436 c 5
 722.060546875 397.841796875 895.018554688 573.377929688 846 666 c 5
EndSplineSet
Refer: 217 57561 N 1 0 0 1 0 0 2
Ligature2: "Consonantal Horizontal Line" uniE0D9 uniE265
EndChar

StartChar: uniE0DAE265.liga
Encoding: 908 -1 864
Width: 1000
GlyphClass: 3
Flags: HMW
LayerCount: 2
Fore
SplineSet
244 666 m 5
 151 573 l 5
 191.286132812 452.272460938 308.526367188 390.94140625 411 436 c 5
 367.939453125 397.841796875 194.981445312 573.377929688 244 666 c 5
EndSplineSet
Refer: 217 57561 N -1 0 0 1 1090 0 2
Ligature2: "Consonantal Horizontal Line" uniE0DA uniE265
EndChar

StartChar: uniE0DBE265.liga
Encoding: 909 -1 865
Width: 1000
GlyphClass: 3
Flags: HMW
LayerCount: 2
Fore
SplineSet
744 685 m 5
 837 592 l 5
 796.713867188 471.272460938 679.473632812 409.94140625 577 455 c 5
 620.060546875 416.841796875 793.018554688 592.377929688 744 685 c 5
EndSplineSet
Refer: 219 57563 N 1 0 0 1 0 0 2
Ligature2: "Consonantal Horizontal Line" uniE0DB uniE265
EndChar

StartChar: uniE0DCE265.liga
Encoding: 910 -1 866
Width: 1000
GlyphClass: 3
Flags: HMW
LayerCount: 2
Fore
SplineSet
763 679 m 5
 856 586 l 5
 815.713867188 465.272460938 698.473632812 403.94140625 596 449 c 5
 639.060546875 410.841796875 812.018554688 586.377929688 763 679 c 5
EndSplineSet
Refer: 220 57564 N 1 0 0 1 0 0 2
Ligature2: "Consonantal Horizontal Line" uniE0DC uniE265
EndChar

StartChar: uniE0DDE265.liga
Encoding: 911 -1 867
Width: 1000
GlyphClass: 3
Flags: HMW
LayerCount: 2
Fore
SplineSet
261 654 m 5
 168 561 l 5
 208.286132812 440.272460938 325.526367188 378.94140625 428 424 c 5
 384.939453125 385.841796875 211.981445312 561.377929688 261 654 c 5
EndSplineSet
Refer: 205 57549 N -1 0 0 1 945 0 2
Ligature2: "Consonantal Horizontal Line" uniE0DD uniE265
EndChar

StartChar: uniE0DEE265.liga
Encoding: 912 -1 868
Width: 1000
GlyphClass: 3
Flags: HMW
LayerCount: 2
Fore
SplineSet
836 690 m 5
 929 597 l 5
 888.713867188 476.272460938 771.473632812 414.94140625 669 460 c 5
 712.060546875 421.841796875 885.018554688 597.377929688 836 690 c 5
EndSplineSet
Refer: 222 57566 N 1 0 0 1 0 0 2
Ligature2: "Consonantal Horizontal Line" uniE0DE uniE265
EndChar

StartChar: uniE0DFE265.liga
Encoding: 913 -1 869
Width: 1000
GlyphClass: 3
Flags: HMW
LayerCount: 2
Fore
SplineSet
742 685 m 1
 835 592 l 1
 794.713867188 471.272460938 685.473632812 426.94140625 583 472 c 5
 626.060546875 433.841796875 791.018554688 592.377929688 742 685 c 1
EndSplineSet
Refer: 223 57567 N 1 0 0 1 0 0 2
Ligature2: "Consonantal Horizontal Line" uniE0DF uniE265
EndChar

StartChar: uniE0E0E265.liga
Encoding: 914 -1 870
Width: 1000
GlyphClass: 3
Flags: HMW
LayerCount: 2
Fore
SplineSet
282 679 m 5
 189 586 l 5
 229.286132812 465.272460938 346.526367188 403.94140625 449 449 c 5
 405.939453125 410.841796875 232.981445312 586.377929688 282 679 c 5
EndSplineSet
Refer: 220 57564 N -1 0 0 1 1045 0 2
Ligature2: "Consonantal Horizontal Line" uniE0E0 uniE265
EndChar

StartChar: uniE0E1E265.liga
Encoding: 915 -1 871
Width: 1000
GlyphClass: 3
Flags: HMW
LayerCount: 2
Fore
SplineSet
734 684 m 1
 827 591 l 1
 786.713867188 470.272460938 676.473632812 434.94140625 574 480 c 5
 617.060546875 441.841796875 783.018554688 591.377929688 734 684 c 1
EndSplineSet
Refer: 225 57569 N 1 0 0 1 0 0 2
Ligature2: "Consonantal Horizontal Line" uniE0E1 uniE265
EndChar

StartChar: uniE0E2E265.liga
Encoding: 916 -1 872
Width: 1000
GlyphClass: 3
Flags: HMW
LayerCount: 2
Fore
SplineSet
246 684 m 1
 153 591 l 1
 193.286132812 470.272460938 303.526367188 434.94140625 406 480 c 5
 362.939453125 441.841796875 196.981445312 591.377929688 246 684 c 1
EndSplineSet
Refer: 225 57569 N -1 0 0 1 980 0 2
Ligature2: "Consonantal Horizontal Line" uniE0E2 uniE265
EndChar

StartChar: uniE0E3E265.liga
Encoding: 917 -1 873
Width: 1000
GlyphClass: 3
Flags: HMW
LayerCount: 2
Fore
SplineSet
245 685 m 5
 152 592 l 5
 192.286132812 471.272460938 309.526367188 409.94140625 412 455 c 5
 368.939453125 416.841796875 195.981445312 592.377929688 245 685 c 5
EndSplineSet
Refer: 219 57563 N -1 0 0 1 989 0 2
Ligature2: "Consonantal Horizontal Line" uniE0E3 uniE265
EndChar

StartChar: uniE0E4E265.liga
Encoding: 918 -1 874
Width: 1000
GlyphClass: 3
Flags: HMW
LayerCount: 2
Fore
SplineSet
248 685 m 1
 155 592 l 1
 195.286132812 471.272460938 304.526367188 426.94140625 407 472 c 5
 363.939453125 433.841796875 198.981445312 592.377929688 248 685 c 1
EndSplineSet
Refer: 223 57567 N -1 0 0 1 990 0 2
Ligature2: "Consonantal Horizontal Line" uniE0E4 uniE265
EndChar

StartChar: uniE0E5E265.liga
Encoding: 919 -1 875
Width: 1000
GlyphClass: 3
Flags: HMW
LayerCount: 2
Fore
SplineSet
247 682 m 5
 154 589 l 5
 194.286132812 468.272460938 311.526367188 406.94140625 414 452 c 5
 370.939453125 413.841796875 197.981445312 589.377929688 247 682 c 5
EndSplineSet
Refer: 213 57557 N -1 0 0 1 896 0 2
Ligature2: "Consonantal Horizontal Line" uniE0E5 uniE265
EndChar

StartChar: uniE0E6E265.liga
Encoding: 920 -1 876
Width: 1000
GlyphClass: 3
Flags: HMW
LayerCount: 2
Fore
SplineSet
244 690 m 5
 151 597 l 5
 191.286132812 476.272460938 308.526367188 414.94140625 411 460 c 5
 367.939453125 421.841796875 194.981445312 597.377929688 244 690 c 5
EndSplineSet
Refer: 222 57566 N -1 0 0 1 1080 0 2
Ligature2: "Consonantal Horizontal Line" uniE0E6 uniE265
EndChar

StartChar: uniE0E7E265.liga
Encoding: 921 -1 877
Width: 1000
GlyphClass: 3
Flags: HMW
LayerCount: 2
Fore
SplineSet
748 681 m 1
 841 588 l 1
 800.713867188 467.272460938 686.473632812 434.94140625 584 480 c 5
 627.060546875 441.841796875 797.018554688 588.377929688 748 681 c 1
EndSplineSet
Refer: 231 57575 N 1 0 0 1 0 0 2
Ligature2: "Consonantal Horizontal Line" uniE0E7 uniE265
EndChar

StartChar: uniE0E8E265.liga
Encoding: 922 -1 878
Width: 1000
GlyphClass: 3
Flags: HMW
LayerCount: 2
Fore
SplineSet
244 681 m 1
 151 588 l 1
 191.286132812 467.272460938 305.526367188 434.94140625 408 480 c 5
 364.939453125 441.841796875 194.981445312 588.377929688 244 681 c 1
EndSplineSet
Refer: 231 57575 N -1 0 0 1 992 0 2
Ligature2: "Consonantal Horizontal Line" uniE0E8 uniE265
EndChar

StartChar: uniE0E9E265.liga
Encoding: 923 -1 879
Width: 1000
GlyphClass: 3
Flags: HMW
LayerCount: 2
Fore
SplineSet
739 681 m 5
 832 588 l 5
 791.713867188 467.272460938 674.473632812 405.94140625 572 451 c 5
 615.060546875 412.841796875 788.018554688 588.377929688 739 681 c 5
EndSplineSet
Refer: 233 57577 N 1 0 0 1 0 0 2
Ligature2: "Consonantal Horizontal Line" uniE0E9 uniE265
EndChar

StartChar: uniE0EAE265.liga
Encoding: 924 -1 880
Width: 1000
GlyphClass: 3
Flags: HMW
LayerCount: 2
Fore
SplineSet
246 681 m 5
 153 588 l 5
 193.286132812 467.272460938 310.526367188 405.94140625 413 451 c 5
 369.939453125 412.841796875 196.981445312 588.377929688 246 681 c 5
EndSplineSet
Refer: 233 57577 N -1 0 0 1 985 0 2
Ligature2: "Consonantal Horizontal Line" uniE0EA uniE265
EndChar

StartChar: uniE0EBE265.liga
Encoding: 925 -1 881
Width: 1000
GlyphClass: 3
Flags: HMW
LayerCount: 2
Fore
SplineSet
745 685 m 1
 838 592 l 1
 797.713867188 471.272460938 684.473632812 442.94140625 582 488 c 5
 625.060546875 449.841796875 794.018554688 592.377929688 745 685 c 1
EndSplineSet
Refer: 235 57579 N 1 0 0 1 0 0 2
Ligature2: "Consonantal Horizontal Line" uniE0EB uniE265
EndChar

StartChar: uniE0ECE265.liga
Encoding: 926 -1 882
Width: 1000
GlyphClass: 3
Flags: HMW
LayerCount: 2
Fore
SplineSet
250 685 m 1
 157 592 l 1
 197.286132812 471.272460938 310.526367188 442.94140625 413 488 c 5
 369.939453125 449.841796875 200.981445312 592.377929688 250 685 c 1
EndSplineSet
Refer: 235 57579 N -1 0 0 1 995 0 2
Ligature2: "Consonantal Horizontal Line" uniE0EC uniE265
EndChar

StartChar: uniE0EDE265.liga
Encoding: 927 -1 883
Width: 1000
GlyphClass: 3
Flags: HMW
LayerCount: 2
Fore
SplineSet
754 678 m 1
 847 585 l 1
 806.713867188 464.272460938 722.473632812 426.94140625 620 472 c 5
 663.060546875 433.841796875 803.018554688 585.377929688 754 678 c 1
EndSplineSet
Refer: 237 57581 N 1 0 0 1 0 0 2
Ligature2: "Consonantal Horizontal Line" uniE0ED uniE265
EndChar

StartChar: uniE0EEE265.liga
Encoding: 928 -1 884
Width: 1000
GlyphClass: 3
Flags: HMW
LayerCount: 2
Fore
SplineSet
744 688 m 1
 837 595 l 1
 796.713867188 474.272460938 705.473632812 402.94140625 603 448 c 5
 646.060546875 409.841796875 793.018554688 595.377929688 744 688 c 1
EndSplineSet
Refer: 238 57582 N 1 0 0 1 0 0 2
Ligature2: "Consonantal Horizontal Line" uniE0EE uniE265
EndChar

StartChar: uniE0EFE265.liga
Encoding: 929 -1 885
Width: 1000
GlyphClass: 3
Flags: HMW
LayerCount: 2
Fore
SplineSet
102 688 m 1
 9 595 l 1
 49.2861328125 474.272460938 140.526367188 402.94140625 243 448 c 5
 199.939453125 409.841796875 52.9814453125 595.377929688 102 688 c 1
EndSplineSet
Refer: 238 57582 N -1 0 0 1 846 0 2
Ligature2: "Consonantal Horizontal Line" uniE0EF uniE265
EndChar

StartChar: uniE0F0E265.liga
Encoding: 930 -1 886
Width: 1000
GlyphClass: 3
Flags: HMW
LayerCount: 2
Fore
SplineSet
846 676 m 5
 939 583 l 5
 898.713867188 462.272460938 781.473632812 400.94140625 679 446 c 5
 722.060546875 407.841796875 895.018554688 583.377929688 846 676 c 5
EndSplineSet
Refer: 240 57584 N 1 0 0 1 0 0 2
Ligature2: "Consonantal Horizontal Line" uniE0F0 uniE265
EndChar

StartChar: uniE0F1E265.liga
Encoding: 931 -1 887
Width: 1000
GlyphClass: 3
Flags: HMW
LayerCount: 2
Fore
SplineSet
244 676 m 5
 151 583 l 5
 191.286132812 462.272460938 308.526367188 400.94140625 411 446 c 5
 367.939453125 407.841796875 194.981445312 583.377929688 244 676 c 5
EndSplineSet
Refer: 240 57584 N -1 0 0 1 1090 0 2
Ligature2: "Consonantal Horizontal Line" uniE0F1 uniE265
EndChar

StartChar: uniE0F2E265.liga
Encoding: 932 -1 888
Width: 1000
GlyphClass: 3
Flags: HMW
LayerCount: 2
Fore
SplineSet
846 689 m 5
 939 596 l 5
 898.713867188 475.272460938 781.473632812 413.94140625 679 459 c 5
 722.060546875 420.841796875 895.018554688 596.377929688 846 689 c 5
EndSplineSet
Refer: 242 57586 N 1 0 0 1 0 0 2
Ligature2: "Consonantal Horizontal Line" uniE0F2 uniE265
EndChar

StartChar: uniE0F3E265.liga
Encoding: 933 -1 889
Width: 1000
GlyphClass: 3
Flags: HMW
LayerCount: 2
Fore
SplineSet
253 689 m 5
 160 596 l 5
 200.286132812 475.272460938 317.526367188 413.94140625 420 459 c 5
 376.939453125 420.841796875 203.981445312 596.377929688 253 689 c 5
EndSplineSet
Refer: 242 57586 N -1 0 0 1 1099 0 2
Ligature2: "Consonantal Horizontal Line" uniE0F3 uniE265
EndChar

StartChar: uniE0F4E265.liga
Encoding: 934 -1 890
Width: 1000
GlyphClass: 3
Flags: HMW
LayerCount: 2
Fore
SplineSet
244 678 m 1
 151 585 l 1
 191.286132812 464.272460938 275.526367188 426.94140625 378 472 c 5
 334.939453125 433.841796875 194.981445312 585.377929688 244 678 c 1
EndSplineSet
Refer: 237 57581 N -1 0 0 1 998 0 2
Ligature2: "Consonantal Horizontal Line" uniE0F4 uniE265
EndChar

StartChar: uniE0F5E265.liga
Encoding: 935 -1 891
Width: 1000
GlyphClass: 3
Flags: HMW
HStem: 249 260
LayerCount: 2
Fore
SplineSet
846 110 m 5
 939 203 l 5
 898.713867188 323.727539062 781.473632812 385.05859375 679 340 c 5
 722.060546875 378.158203125 895.018554688 202.622070312 846 110 c 5
EndSplineSet
Refer: 199 57543 N 1 0 0 -1 0 804 2
Ligature2: "Consonantal Horizontal Line" uniE0F5 uniE265
EndChar

StartChar: uniE0F6E265.liga
Encoding: 936 -1 892
Width: 1000
GlyphClass: 3
Flags: HMW
HStem: 249 260
LayerCount: 2
Fore
SplineSet
253 110 m 5
 160 203 l 5
 200.286132812 323.727539062 317.526367188 385.05859375 420 340 c 5
 376.939453125 378.158203125 203.981445312 202.622070312 253 110 c 5
EndSplineSet
Refer: 199 57543 N -1 -0 0 -1 1099 804 2
Ligature2: "Consonantal Horizontal Line" uniE0F6 uniE265
EndChar

StartChar: uniE0F7E265.liga
Encoding: 937 -1 893
Width: 1000
GlyphClass: 3
Flags: HMW
LayerCount: 2
Fore
SplineSet
846 112 m 5
 939 205 l 5
 898.713867188 325.727539062 781.473632812 387.05859375 679 342 c 5
 722.060546875 380.158203125 895.018554688 204.622070312 846 112 c 5
EndSplineSet
Refer: 201 57545 N 1 0 0 -1 0 806 2
Ligature2: "Consonantal Horizontal Line" uniE0F7 uniE265
EndChar

StartChar: uniE0F8E265.liga
Encoding: 938 -1 894
Width: 1000
GlyphClass: 3
Flags: HMW
LayerCount: 2
Fore
SplineSet
251 112 m 5
 158 205 l 5
 198.286132812 325.727539062 315.526367188 387.05859375 418 342 c 5
 374.939453125 380.158203125 201.981445312 204.622070312 251 112 c 5
EndSplineSet
Refer: 201 57545 N -1 -0 0 -1 1097 806 2
Ligature2: "Consonantal Horizontal Line" uniE0F8 uniE265
EndChar

StartChar: uniE0F9E265.liga
Encoding: 939 -1 895
Width: 1000
GlyphClass: 3
Flags: HMW
LayerCount: 2
Fore
SplineSet
846 110 m 5
 939 203 l 5
 898.713867188 323.727539062 781.473632812 385.05859375 679 340 c 5
 722.060546875 378.158203125 895.018554688 202.622070312 846 110 c 5
EndSplineSet
Refer: 203 57547 N 1 0 0 -1 0 804 2
Ligature2: "Consonantal Horizontal Line" uniE0F9 uniE265
EndChar

StartChar: uniE0FAE265.liga
Encoding: 940 -1 896
Width: 1000
GlyphClass: 3
Flags: HMW
LayerCount: 2
Fore
SplineSet
243 110 m 5
 150 203 l 5
 190.286132812 323.727539062 307.526367188 385.05859375 410 340 c 5
 366.939453125 378.158203125 193.981445312 202.622070312 243 110 c 5
EndSplineSet
Refer: 203 57547 N -1 -0 0 -1 1089 804 2
Ligature2: "Consonantal Horizontal Line" uniE0FA uniE265
EndChar

StartChar: uniE0FBE265.liga
Encoding: 941 -1 897
Width: 1000
GlyphClass: 3
Flags: HMW
LayerCount: 2
Fore
SplineSet
684 150 m 5
 777 243 l 5
 736.713867188 363.727539062 619.473632812 425.05859375 517 380 c 5
 560.060546875 418.158203125 733.018554688 242.622070312 684 150 c 5
EndSplineSet
Refer: 205 57549 N 1 0 0 -1 0 804 2
Ligature2: "Consonantal Horizontal Line" uniE0FB uniE265
EndChar

StartChar: uniE0FCE265.liga
Encoding: 942 -1 898
Width: 1000
GlyphClass: 3
Flags: HMW
LayerCount: 2
Fore
SplineSet
756 118 m 1
 849 211 l 1
 808.713867188 331.727539062 714.473632812 385.05859375 612 340 c 1
 655.060546875 378.158203125 805.018554688 210.622070312 756 118 c 1
EndSplineSet
Refer: 206 57550 N 1 0 0 -1 0 802 2
Ligature2: "Consonantal Horizontal Line" uniE0FC uniE265
EndChar

StartChar: uniE0FDE265.liga
Encoding: 943 -1 899
Width: 1000
GlyphClass: 3
Flags: HMW
LayerCount: 2
Fore
SplineSet
635 119 m 5
 728 212 l 5
 687.713867188 332.727539062 570.473632812 394.05859375 468 349 c 5
 511.060546875 387.158203125 684.018554688 211.622070312 635 119 c 5
EndSplineSet
Refer: 207 57551 N 1 0 0 -1 0 799 2
Ligature2: "Consonantal Horizontal Line" uniE0FD uniE265
EndChar

StartChar: uniE0FEE265.liga
Encoding: 944 -1 900
Width: 1000
GlyphClass: 3
Flags: HMW
LayerCount: 2
Fore
SplineSet
250 119 m 5
 157 212 l 5
 197.286132812 332.727539062 314.526367188 394.05859375 417 349 c 5
 373.939453125 387.158203125 200.981445312 211.622070312 250 119 c 5
EndSplineSet
Refer: 207 57551 N -1 -0 0 -1 885 799 2
Ligature2: "Consonantal Horizontal Line" uniE0FE uniE265
EndChar

StartChar: uniE0FFE265.liga
Encoding: 945 -1 901
Width: 1000
GlyphClass: 3
Flags: HMW
LayerCount: 2
Fore
SplineSet
751 120 m 5
 844 213 l 5
 803.713867188 333.727539062 686.473632812 395.05859375 584 350 c 5
 627.060546875 388.158203125 800.018554688 212.622070312 751 120 c 5
EndSplineSet
Refer: 209 57553 N 1 0 0 -1 0 802 2
Ligature2: "Consonantal Horizontal Line" uniE0FF uniE265
EndChar

StartChar: uniE100E265.liga
Encoding: 946 -1 902
Width: 1000
GlyphClass: 3
Flags: HMW
LayerCount: 2
Fore
SplineSet
244 120 m 5
 151 213 l 5
 191.286132812 333.727539062 308.526367188 395.05859375 411 350 c 5
 367.939453125 388.158203125 194.981445312 212.622070312 244 120 c 5
EndSplineSet
Refer: 209 57553 N -1 -0 0 -1 995 802 2
Ligature2: "Consonantal Horizontal Line" uniE100 uniE265
EndChar

StartChar: uniE101E265.liga
Encoding: 947 -1 903
Width: 1000
GlyphClass: 3
Flags: HMW
LayerCount: 2
Fore
SplineSet
653 119 m 5
 746 212 l 5
 705.713867188 332.727539062 588.473632812 394.05859375 486 349 c 5
 529.060546875 387.158203125 702.018554688 211.622070312 653 119 c 5
EndSplineSet
Refer: 211 57555 N 1 0 0 -1 0 803 2
Ligature2: "Consonantal Horizontal Line" uniE101 uniE265
EndChar

StartChar: uniE102E265.liga
Encoding: 948 -1 904
Width: 1000
GlyphClass: 3
Flags: HMW
LayerCount: 2
Fore
SplineSet
246 119 m 5
 153 212 l 5
 193.286132812 332.727539062 310.526367188 394.05859375 413 349 c 5
 369.939453125 387.158203125 196.981445312 211.622070312 246 119 c 5
EndSplineSet
Refer: 211 57555 N -1 -0 0 -1 899 803 2
Ligature2: "Consonantal Horizontal Line" uniE102 uniE265
EndChar

StartChar: uniE103E265.liga
Encoding: 949 -1 905
Width: 1000
GlyphClass: 3
Flags: HMW
LayerCount: 2
Fore
SplineSet
649 117 m 5
 742 210 l 5
 701.713867188 330.727539062 584.473632812 392.05859375 482 347 c 5
 525.060546875 385.158203125 698.018554688 209.622070312 649 117 c 5
EndSplineSet
Refer: 213 57557 N 1 0 0 -1 0 799 2
Ligature2: "Consonantal Horizontal Line" uniE103 uniE265
EndChar

StartChar: uniE104E265.liga
Encoding: 950 -1 906
Width: 1000
GlyphClass: 3
Flags: HMW
LayerCount: 2
Fore
SplineSet
251 118 m 1
 158 211 l 1
 198.286132812 331.727539062 292.526367188 385.05859375 395 340 c 1
 351.939453125 378.158203125 201.981445312 210.622070312 251 118 c 1
EndSplineSet
Refer: 206 57550 N -1 -0 0 -1 1007 802 2
Ligature2: "Consonantal Horizontal Line" uniE104 uniE265
EndChar

StartChar: uniE105E265.liga
Encoding: 951 -1 907
Width: 1000
GlyphClass: 3
Flags: HMW
LayerCount: 2
Fore
SplineSet
654 124 m 5
 747 217 l 5
 706.713867188 337.727539062 589.473632812 399.05859375 487 354 c 5
 530.060546875 392.158203125 703.018554688 216.622070312 654 124 c 5
EndSplineSet
Refer: 215 57559 N 1 0 0 -1 0 802 2
Ligature2: "Consonantal Horizontal Line" uniE105 uniE265
EndChar

StartChar: uniE106E265.liga
Encoding: 952 -1 908
Width: 1000
GlyphClass: 3
Flags: HMW
LayerCount: 2
Fore
SplineSet
246 124 m 5
 153 217 l 5
 193.286132812 337.727539062 310.526367188 399.05859375 413 354 c 5
 369.939453125 392.158203125 196.981445312 216.622070312 246 124 c 5
EndSplineSet
Refer: 215 57559 N -1 -0 0 -1 900 802 2
Ligature2: "Consonantal Horizontal Line" uniE106 uniE265
EndChar

StartChar: uniE107E265.liga
Encoding: 953 -1 909
Width: 1000
GlyphClass: 3
Flags: HMW
LayerCount: 2
Fore
SplineSet
846 136 m 5
 939 229 l 5
 898.713867188 349.727539062 781.473632812 411.05859375 679 366 c 5
 722.060546875 404.158203125 895.018554688 228.622070312 846 136 c 5
EndSplineSet
Refer: 217 57561 N 1 0 0 -1 0 802 2
Ligature2: "Consonantal Horizontal Line" uniE107 uniE265
EndChar

StartChar: uniE108E265.liga
Encoding: 954 -1 910
Width: 1000
GlyphClass: 3
Flags: HMW
LayerCount: 2
Fore
SplineSet
244 136 m 5
 151 229 l 5
 191.286132812 349.727539062 308.526367188 411.05859375 411 366 c 5
 367.939453125 404.158203125 194.981445312 228.622070312 244 136 c 5
EndSplineSet
Refer: 217 57561 N -1 -0 0 -1 1090 802 2
Ligature2: "Consonantal Horizontal Line" uniE108 uniE265
EndChar

StartChar: uniE109E265.liga
Encoding: 955 -1 911
Width: 1000
GlyphClass: 3
Flags: HMW
LayerCount: 2
Fore
SplineSet
744 118 m 5
 837 211 l 5
 796.713867188 331.727539062 679.473632812 393.05859375 577 348 c 5
 620.060546875 386.158203125 793.018554688 210.622070312 744 118 c 5
EndSplineSet
Refer: 219 57563 N 1 0 0 -1 0 803 2
Ligature2: "Consonantal Horizontal Line" uniE109 uniE265
EndChar

StartChar: uniE10AE265.liga
Encoding: 956 -1 912
Width: 1000
GlyphClass: 3
Flags: HMW
LayerCount: 2
Fore
SplineSet
763 110 m 5
 856 203 l 5
 815.713867188 323.727539062 698.473632812 385.05859375 596 340 c 5
 639.060546875 378.158203125 812.018554688 202.622070312 763 110 c 5
EndSplineSet
Refer: 220 57564 N 1 0 0 -1 0 789 2
Ligature2: "Consonantal Horizontal Line" uniE10A uniE265
EndChar

StartChar: uniE10BE265.liga
Encoding: 957 -1 913
Width: 1000
GlyphClass: 3
Flags: HMW
LayerCount: 2
Fore
SplineSet
261 150 m 5
 168 243 l 5
 208.286132812 363.727539062 325.526367188 425.05859375 428 380 c 5
 384.939453125 418.158203125 211.981445312 242.622070312 261 150 c 5
EndSplineSet
Refer: 205 57549 N -1 -0 0 -1 945 804 2
Ligature2: "Consonantal Horizontal Line" uniE10B uniE265
EndChar

StartChar: uniE10CE265.liga
Encoding: 958 -1 914
Width: 1000
GlyphClass: 3
Flags: HMW
LayerCount: 2
Fore
SplineSet
836 111 m 5
 929 204 l 5
 888.713867188 324.727539062 771.473632812 386.05859375 669 341 c 5
 712.060546875 379.158203125 885.018554688 203.622070312 836 111 c 5
EndSplineSet
Refer: 222 57566 N 1 0 0 -1 0 801 2
Ligature2: "Consonantal Horizontal Line" uniE10C uniE265
EndChar

StartChar: uniE10DE265.liga
Encoding: 959 -1 915
Width: 1000
GlyphClass: 3
Flags: HMW
LayerCount: 2
Fore
SplineSet
742 114 m 1
 835 207 l 1
 794.713867188 327.727539062 685.473632812 372.05859375 583 327 c 5
 626.060546875 365.158203125 791.018554688 206.622070312 742 114 c 1
EndSplineSet
Refer: 223 57567 N 1 0 0 -1 0 799 2
Ligature2: "Consonantal Horizontal Line" uniE10D uniE265
EndChar

StartChar: uniE10EE265.liga
Encoding: 960 -1 916
Width: 1000
GlyphClass: 3
Flags: HMW
LayerCount: 2
Fore
SplineSet
282 110 m 5
 189 203 l 5
 229.286132812 323.727539062 346.526367188 385.05859375 449 340 c 5
 405.939453125 378.158203125 232.981445312 202.622070312 282 110 c 5
EndSplineSet
Refer: 220 57564 N -1 -0 0 -1 1045 789 2
Ligature2: "Consonantal Horizontal Line" uniE10E uniE265
EndChar

StartChar: uniE10FE265.liga
Encoding: 961 -1 917
Width: 1000
GlyphClass: 3
Flags: HMW
LayerCount: 2
Fore
SplineSet
734 117 m 1
 827 210 l 1
 786.713867188 330.727539062 676.473632812 366.05859375 574 321 c 5
 617.060546875 359.158203125 783.018554688 209.622070312 734 117 c 1
EndSplineSet
Refer: 225 57569 N 1 0 0 -1 0 801 2
Ligature2: "Consonantal Horizontal Line" uniE10F uniE265
EndChar

StartChar: uniE110E265.liga
Encoding: 962 -1 918
Width: 1000
GlyphClass: 3
Flags: HMW
LayerCount: 2
Fore
SplineSet
246 117 m 1
 153 210 l 1
 193.286132812 330.727539062 303.526367188 366.05859375 406 321 c 5
 362.939453125 359.158203125 196.981445312 209.622070312 246 117 c 1
EndSplineSet
Refer: 225 57569 N -1 -0 0 -1 980 801 2
Ligature2: "Consonantal Horizontal Line" uniE110 uniE265
EndChar

StartChar: uniE111E265.liga
Encoding: 963 -1 919
Width: 1000
GlyphClass: 3
Flags: HMW
LayerCount: 2
Fore
SplineSet
245 118 m 5
 152 211 l 5
 192.286132812 331.727539062 309.526367188 393.05859375 412 348 c 5
 368.939453125 386.158203125 195.981445312 210.622070312 245 118 c 5
EndSplineSet
Refer: 219 57563 N -1 -0 0 -1 989 803 2
Ligature2: "Consonantal Horizontal Line" uniE111 uniE265
EndChar

StartChar: uniE112E265.liga
Encoding: 964 -1 920
Width: 1000
GlyphClass: 3
Flags: HMW
LayerCount: 2
Fore
SplineSet
248 114 m 1
 155 207 l 1
 195.286132812 327.727539062 304.526367188 372.05859375 407 327 c 5
 363.939453125 365.158203125 198.981445312 206.622070312 248 114 c 1
EndSplineSet
Refer: 223 57567 N -1 -0 0 -1 990 799 2
Ligature2: "Consonantal Horizontal Line" uniE112 uniE265
EndChar

StartChar: uniE113E265.liga
Encoding: 965 -1 921
Width: 1000
GlyphClass: 3
Flags: HMW
LayerCount: 2
Fore
SplineSet
247 117 m 5
 154 210 l 5
 194.286132812 330.727539062 311.526367188 392.05859375 414 347 c 5
 370.939453125 385.158203125 197.981445312 209.622070312 247 117 c 5
EndSplineSet
Refer: 213 57557 N -1 -0 0 -1 896 799 2
Ligature2: "Consonantal Horizontal Line" uniE113 uniE265
EndChar

StartChar: uniE114E265.liga
Encoding: 966 -1 922
Width: 1000
GlyphClass: 3
Flags: HMW
LayerCount: 2
Fore
SplineSet
244 111 m 5
 151 204 l 5
 191.286132812 324.727539062 308.526367188 386.05859375 411 341 c 5
 367.939453125 379.158203125 194.981445312 203.622070312 244 111 c 5
EndSplineSet
Refer: 222 57566 N -1 -0 0 -1 1080 801 2
Ligature2: "Consonantal Horizontal Line" uniE114 uniE265
EndChar

StartChar: uniE115E265.liga
Encoding: 967 -1 923
Width: 1000
GlyphClass: 3
Flags: HMW
LayerCount: 2
Fore
SplineSet
748 123 m 1
 841 216 l 1
 800.713867188 336.727539062 686.473632812 369.05859375 584 324 c 5
 627.060546875 362.158203125 797.018554688 215.622070312 748 123 c 1
EndSplineSet
Refer: 231 57575 N 1 0 0 -1 0 804 2
Ligature2: "Consonantal Horizontal Line" uniE115 uniE265
EndChar

StartChar: uniE116E265.liga
Encoding: 968 -1 924
Width: 1000
GlyphClass: 3
Flags: HMW
LayerCount: 2
Fore
SplineSet
244 123 m 1
 151 216 l 1
 191.286132812 336.727539062 305.526367188 369.05859375 408 324 c 5
 364.939453125 362.158203125 194.981445312 215.622070312 244 123 c 1
EndSplineSet
Refer: 231 57575 N -1 -0 0 -1 992 804 2
Ligature2: "Consonantal Horizontal Line" uniE116 uniE265
EndChar

StartChar: uniE117E265.liga
Encoding: 969 -1 925
Width: 1000
GlyphClass: 3
Flags: HMW
LayerCount: 2
Fore
SplineSet
739 120 m 5
 832 213 l 5
 791.713867188 333.727539062 674.473632812 395.05859375 572 350 c 5
 615.060546875 388.158203125 788.018554688 212.622070312 739 120 c 5
EndSplineSet
Refer: 233 57577 N 1 0 0 -1 0 801 2
Ligature2: "Consonantal Horizontal Line" uniE117 uniE265
EndChar

StartChar: uniE118E265.liga
Encoding: 970 -1 926
Width: 1000
GlyphClass: 3
Flags: HMW
LayerCount: 2
Fore
SplineSet
246 120 m 5
 153 213 l 5
 193.286132812 333.727539062 310.526367188 395.05859375 413 350 c 5
 369.939453125 388.158203125 196.981445312 212.622070312 246 120 c 5
EndSplineSet
Refer: 233 57577 N -1 -0 0 -1 985 801 2
Ligature2: "Consonantal Horizontal Line" uniE118 uniE265
EndChar

StartChar: uniE119E265.liga
Encoding: 971 -1 927
Width: 1000
GlyphClass: 3
Flags: HMW
LayerCount: 2
Fore
SplineSet
745 114 m 1
 838 207 l 1
 797.713867188 327.727539062 684.473632812 356.05859375 582 311 c 5
 625.060546875 349.158203125 794.018554688 206.622070312 745 114 c 1
EndSplineSet
Refer: 235 57579 N 1 0 0 -1 0 799 2
Ligature2: "Consonantal Horizontal Line" uniE119 uniE265
EndChar

StartChar: uniE11AE265.liga
Encoding: 972 -1 928
Width: 1000
GlyphClass: 3
Flags: HMW
LayerCount: 2
Fore
SplineSet
250 114 m 1
 157 207 l 1
 197.286132812 327.727539062 310.526367188 356.05859375 413 311 c 5
 369.939453125 349.158203125 200.981445312 206.622070312 250 114 c 1
EndSplineSet
Refer: 235 57579 N -1 -0 0 -1 995 799 2
Ligature2: "Consonantal Horizontal Line" uniE11A uniE265
EndChar

StartChar: uniE11BE265.liga
Encoding: 973 -1 929
Width: 1000
GlyphClass: 3
Flags: HMW
LayerCount: 2
Fore
SplineSet
754 123 m 1
 847 216 l 1
 806.713867188 336.727539062 722.473632812 374.05859375 620 329 c 5
 663.060546875 367.158203125 803.018554688 215.622070312 754 123 c 1
EndSplineSet
Refer: 237 57581 N 1 0 0 -1 0 801 2
Ligature2: "Consonantal Horizontal Line" uniE11B uniE265
EndChar

StartChar: uniE11CE265.liga
Encoding: 974 -1 930
Width: 1000
GlyphClass: 3
Flags: HMW
LayerCount: 2
Fore
SplineSet
744 115 m 1
 837 208 l 1
 796.713867188 328.727539062 705.473632812 400.05859375 603 355 c 5
 646.060546875 393.158203125 793.018554688 207.622070312 744 115 c 1
EndSplineSet
Refer: 238 57582 N 1 0 0 -1 0 803 2
Ligature2: "Consonantal Horizontal Line" uniE11C uniE265
EndChar

StartChar: uniE11DE265.liga
Encoding: 975 -1 931
Width: 1000
GlyphClass: 3
Flags: HMW
LayerCount: 2
Fore
SplineSet
102 115 m 1
 9 208 l 1
 49.2861328125 328.727539062 140.526367188 400.05859375 243 355 c 5
 199.939453125 393.158203125 52.9814453125 207.622070312 102 115 c 1
EndSplineSet
Refer: 238 57582 N -1 -0 0 -1 846 803 2
Ligature2: "Consonantal Horizontal Line" uniE11D uniE265
EndChar

StartChar: uniE11EE265.liga
Encoding: 976 -1 932
Width: 1000
GlyphClass: 3
Flags: HMW
LayerCount: 2
Fore
SplineSet
846 128 m 5
 939 221 l 5
 898.713867188 341.727539062 781.473632812 403.05859375 679 358 c 5
 722.060546875 396.158203125 895.018554688 220.622070312 846 128 c 5
EndSplineSet
Refer: 240 57584 N 1 0 0 -1 0 804 2
Ligature2: "Consonantal Horizontal Line" uniE11E uniE265
EndChar

StartChar: uniE11FE265.liga
Encoding: 977 -1 933
Width: 1000
GlyphClass: 3
Flags: HMW
LayerCount: 2
Fore
SplineSet
244 128 m 5
 151 221 l 5
 191.286132812 341.727539062 308.526367188 403.05859375 411 358 c 5
 367.939453125 396.158203125 194.981445312 220.622070312 244 128 c 5
EndSplineSet
Refer: 240 57584 N -1 -0 0 -1 1090 804 2
Ligature2: "Consonantal Horizontal Line" uniE11F uniE265
EndChar

StartChar: uniE120E265.liga
Encoding: 978 -1 934
Width: 1000
GlyphClass: 3
Flags: HMW
LayerCount: 2
Fore
SplineSet
846 114 m 5
 939 207 l 5
 898.713867188 327.727539062 781.473632812 389.05859375 679 344 c 5
 722.060546875 382.158203125 895.018554688 206.622070312 846 114 c 5
EndSplineSet
Refer: 242 57586 N 1 0 0 -1 0 803 2
Ligature2: "Consonantal Horizontal Line" uniE120 uniE265
EndChar

StartChar: uniE121E265.liga
Encoding: 979 -1 935
Width: 1000
GlyphClass: 3
Flags: HMW
LayerCount: 2
Fore
SplineSet
253 114 m 5
 160 207 l 5
 200.286132812 327.727539062 317.526367188 389.05859375 420 344 c 5
 376.939453125 382.158203125 203.981445312 206.622070312 253 114 c 5
EndSplineSet
Refer: 242 57586 N -1 -0 0 -1 1099 803 2
Ligature2: "Consonantal Horizontal Line" uniE121 uniE265
EndChar

StartChar: uniE122E265.liga
Encoding: 980 -1 936
Width: 1000
GlyphClass: 3
Flags: HMW
LayerCount: 2
Fore
SplineSet
244 123 m 1
 151 216 l 1
 191.286132812 336.727539062 275.526367188 374.05859375 378 329 c 5
 334.939453125 367.158203125 194.981445312 215.622070312 244 123 c 1
EndSplineSet
Refer: 237 57581 N -1 -0 0 -1 998 801 2
Ligature2: "Consonantal Horizontal Line" uniE122 uniE265
EndChar

StartChar: uniE265
Encoding: 570 57957 937
Width: 1000
GlyphClass: 2
Flags: W
VStem: 327.396 260
LayerCount: 2
Fore
SplineSet
494.396484375 547.396484375 m 5
 587.396484375 454.396484375 l 5
 547.110351562 333.668945312 429.870117188 272.337890625 327.396484375 317.396484375 c 5
 370.45703125 279.23828125 543.415039062 454.774414062 494.396484375 547.396484375 c 5
EndSplineSet
EndChar

StartChar: uniE263
Encoding: 568 57955 938
Width: 1000
GlyphClass: 2
Flags: W
LayerCount: 2
Fore
SplineSet
420.396484375 547.396484375 m 5
 327.396484375 454.396484375 l 5
 367.682617188 333.668945312 484.922851562 272.337890625 587.396484375 317.396484375 c 5
 544.3359375 279.23828125 371.377929688 454.774414062 420.396484375 547.396484375 c 5
EndSplineSet
EndChar

StartChar: uniE0C7E263.liga
Encoding: 981 -1 939
Width: 1000
GlyphClass: 3
Flags: W
HStem: 0 804<160 499>
VStem: 160 684<695 804>
LayerCount: 2
Fore
SplineSet
842 693 m 5
 749 600 l 5
 789.286132812 479.272460938 906.526367188 417.94140625 1009 463 c 5
 965.939453125 424.841796875 792.981445312 600.377929688 842 693 c 5
EndSplineSet
Refer: 199 57543 N 1 0 0 1 0 0 2
Ligature2: "Consonantal Horizontal Line" uniE0C7 uniE263
EndChar

StartChar: uniE0C9E263.liga
Encoding: 983 -1 941
Width: 1000
GlyphClass: 3
Flags: W
HStem: 545 150.5
VStem: 495 89<400 400>
LayerCount: 2
Fore
SplineSet
837 692 m 5
 744 599 l 5
 784.286132812 478.272460938 901.526367188 416.94140625 1004 462 c 5
 960.939453125 423.841796875 787.981445312 599.377929688 837 692 c 5
EndSplineSet
Refer: 201 57545 N 1 0 0 1 0 0 2
Ligature2: "Consonantal Horizontal Line" uniE0C9 uniE263
EndChar

